<svg  viewBox="0 0 815 231" fill="none" xmlns="http://www.w3.org/2000/svg">
<path d="M246.56 129.12C239.627 129.12 234.133 127.2 230.08 123.36C226.027 119.467 224 113.92 224 106.72V93.28C224 86.08 226.027 80.56 230.08 76.72C234.133 72.8267 239.627 70.88 246.56 70.88C253.44 70.88 258.747 72.7733 262.48 76.56C266.267 80.2933 268.16 85.44 268.16 92V92.48H257.76V91.68C257.76 88.3733 256.827 85.6533 254.96 83.52C253.147 81.3867 250.347 80.32 246.56 80.32C242.827 80.32 239.893 81.4667 237.76 83.76C235.627 86.0533 234.56 89.1733 234.56 93.12V106.88C234.56 110.773 235.627 113.893 237.76 116.24C239.893 118.533 242.827 119.68 246.56 119.68C250.347 119.68 253.147 118.613 254.96 116.48C256.827 114.293 257.76 111.573 257.76 108.32V106.88H268.16V108C268.16 114.56 266.267 119.733 262.48 123.52C258.747 127.253 253.44 129.12 246.56 129.12ZM292.764 129.12C288.818 129.12 285.324 128.293 282.284 126.64C279.298 124.933 276.951 122.56 275.244 119.52C273.591 116.427 272.764 112.8 272.764 108.64V107.68C272.764 103.52 273.591 99.92 275.244 96.88C276.898 93.7867 279.218 91.4133 282.204 89.76C285.191 88.0533 288.658 87.2 292.604 87.2C296.498 87.2 299.884 88.08 302.764 89.84C305.644 91.5467 307.884 93.9467 309.484 97.04C311.084 100.08 311.884 103.627 311.884 107.68V111.12H283.004C283.111 113.84 284.124 116.053 286.044 117.76C287.964 119.467 290.311 120.32 293.084 120.32C295.911 120.32 297.991 119.707 299.324 118.48C300.658 117.253 301.671 115.893 302.364 114.4L310.604 118.72C309.858 120.107 308.764 121.627 307.324 123.28C305.938 124.88 304.071 126.267 301.724 127.44C299.378 128.56 296.391 129.12 292.764 129.12ZM283.084 103.6H301.644C301.431 101.307 300.498 99.4667 298.844 98.08C297.244 96.6933 295.138 96 292.524 96C289.804 96 287.644 96.6933 286.044 98.08C284.444 99.4667 283.458 101.307 283.084 103.6ZM318.456 128V88.32H328.376V93.52H329.816C330.456 92.1333 331.656 90.8267 333.416 89.6C335.176 88.32 337.843 87.68 341.416 87.68C344.51 87.68 347.203 88.4 349.496 89.84C351.843 91.2267 353.656 93.1733 354.936 95.68C356.216 98.1333 356.856 101.013 356.856 104.32V128H346.776V105.12C346.776 102.133 346.03 99.8933 344.536 98.4C343.096 96.9067 341.016 96.16 338.296 96.16C335.203 96.16 332.803 97.2 331.096 99.28C329.39 101.307 328.536 104.16 328.536 107.84V128H318.456ZM379.459 128C376.846 128 374.713 127.2 373.059 125.6C371.459 123.947 370.659 121.76 370.659 119.04V96.64H360.739V88.32H370.659V76H380.739V88.32H391.619V96.64H380.739V117.28C380.739 118.88 381.486 119.68 382.979 119.68H390.659V128H379.459ZM415.017 129.12C411.071 129.12 407.577 128.293 404.537 126.64C401.551 124.933 399.204 122.56 397.497 119.52C395.844 116.427 395.017 112.8 395.017 108.64V107.68C395.017 103.52 395.844 99.92 397.497 96.88C399.151 93.7867 401.471 91.4133 404.457 89.76C407.444 88.0533 410.911 87.2 414.857 87.2C418.751 87.2 422.137 88.08 425.017 89.84C427.897 91.5467 430.137 93.9467 431.737 97.04C433.337 100.08 434.137 103.627 434.137 107.68V111.12H405.257C405.364 113.84 406.377 116.053 408.297 117.76C410.217 119.467 412.564 120.32 415.337 120.32C418.164 120.32 420.244 119.707 421.577 118.48C422.911 117.253 423.924 115.893 424.617 114.4L432.857 118.72C432.111 120.107 431.017 121.627 429.577 123.28C428.191 124.88 426.324 126.267 423.977 127.44C421.631 128.56 418.644 129.12 415.017 129.12ZM405.337 103.6H423.897C423.684 101.307 422.751 99.4667 421.097 98.08C419.497 96.6933 417.391 96 414.777 96C412.057 96 409.897 96.6933 408.297 98.08C406.697 99.4667 405.711 101.307 405.337 103.6ZM440.709 128V88.32H450.629V92.8H452.069C452.656 91.2 453.616 90.0267 454.949 89.28C456.336 88.5333 457.936 88.16 459.749 88.16H464.549V97.12H459.589C457.029 97.12 454.923 97.8133 453.269 99.2C451.616 100.533 450.789 102.613 450.789 105.44V128H440.709ZM487.621 128V72H522.821V81.6H498.181V95.12H520.901V104.72H498.181V128H487.621ZM546.842 129.12C542.896 129.12 539.349 128.32 536.202 126.72C533.056 125.12 530.576 122.8 528.762 119.76C526.949 116.72 526.042 113.067 526.042 108.8V107.52C526.042 103.253 526.949 99.6 528.762 96.56C530.576 93.52 533.056 91.2 536.202 89.6C539.349 88 542.896 87.2 546.842 87.2C550.789 87.2 554.336 88 557.482 89.6C560.629 91.2 563.109 93.52 564.922 96.56C566.736 99.6 567.642 103.253 567.642 107.52V108.8C567.642 113.067 566.736 116.72 564.922 119.76C563.109 122.8 560.629 125.12 557.482 126.72C554.336 128.32 550.789 129.12 546.842 129.12ZM546.842 120.16C549.936 120.16 552.496 119.173 554.522 117.2C556.549 115.173 557.562 112.293 557.562 108.56V107.76C557.562 104.027 556.549 101.173 554.522 99.2C552.549 97.1733 549.989 96.16 546.842 96.16C543.749 96.16 541.189 97.1733 539.162 99.2C537.136 101.173 536.122 104.027 536.122 107.76V108.56C536.122 112.293 537.136 115.173 539.162 117.2C541.189 119.173 543.749 120.16 546.842 120.16ZM574.547 128V88.32H584.467V92.8H585.907C586.494 91.2 587.454 90.0267 588.787 89.28C590.174 88.5333 591.774 88.16 593.587 88.16H598.387V97.12H593.427C590.867 97.12 588.76 97.8133 587.107 99.2C585.454 100.533 584.627 102.613 584.627 105.44V128H574.547ZM246.56 211.12C239.627 211.12 234.133 209.2 230.08 205.36C226.027 201.467 224 195.92 224 188.72V175.28C224 168.08 226.027 162.56 230.08 158.72C234.133 154.827 239.627 152.88 246.56 152.88C253.44 152.88 258.747 154.773 262.48 158.56C266.267 162.293 268.16 167.44 268.16 174V174.48H257.76V173.68C257.76 170.373 256.827 167.653 254.96 165.52C253.147 163.387 250.347 162.32 246.56 162.32C242.827 162.32 239.893 163.467 237.76 165.76C235.627 168.053 234.56 171.173 234.56 175.12V188.88C234.56 192.773 235.627 195.893 237.76 198.24C239.893 200.533 242.827 201.68 246.56 201.68C250.347 201.68 253.147 200.613 254.96 198.48C256.827 196.293 257.76 193.573 257.76 190.32V188.88H268.16V190C268.16 196.56 266.267 201.733 262.48 205.52C258.747 209.253 253.44 211.12 246.56 211.12ZM274.684 210V170.32H284.604V174.8H286.044C286.631 173.2 287.591 172.027 288.924 171.28C290.311 170.533 291.911 170.16 293.724 170.16H298.524V179.12H293.564C291.004 179.12 288.898 179.813 287.244 181.2C285.591 182.533 284.764 184.613 284.764 187.44V210H274.684ZM304.003 210V170.32H314.083V210H304.003ZM309.043 165.68C307.23 165.68 305.683 165.093 304.403 163.92C303.176 162.747 302.563 161.2 302.563 159.28C302.563 157.36 303.176 155.813 304.403 154.64C305.683 153.467 307.23 152.88 309.043 152.88C310.91 152.88 312.456 153.467 313.683 154.64C314.91 155.813 315.523 157.36 315.523 159.28C315.523 161.2 314.91 162.747 313.683 163.92C312.456 165.093 310.91 165.68 309.043 165.68ZM322.853 210V170.32H332.773V174.64H334.213C334.906 173.307 336.053 172.16 337.653 171.2C339.253 170.187 341.36 169.68 343.973 169.68C346.8 169.68 349.066 170.24 350.773 171.36C352.48 172.427 353.786 173.84 354.693 175.6H356.133C357.04 173.893 358.32 172.48 359.973 171.36C361.626 170.24 363.973 169.68 367.013 169.68C369.466 169.68 371.68 170.213 373.653 171.28C375.68 172.293 377.28 173.867 378.453 176C379.68 178.08 380.293 180.72 380.293 183.92V210H370.213V184.64C370.213 182.453 369.653 180.827 368.533 179.76C367.413 178.64 365.84 178.08 363.813 178.08C361.52 178.08 359.733 178.827 358.453 180.32C357.226 181.76 356.613 183.84 356.613 186.56V210H346.533V184.64C346.533 182.453 345.973 180.827 344.853 179.76C343.733 178.64 342.16 178.08 340.133 178.08C337.84 178.08 336.053 178.827 334.773 180.32C333.546 181.76 332.933 183.84 332.933 186.56V210H322.853ZM388.734 210V170.32H398.814V210H388.734ZM393.774 165.68C391.961 165.68 390.414 165.093 389.134 163.92C387.908 162.747 387.294 161.2 387.294 159.28C387.294 157.36 387.908 155.813 389.134 154.64C390.414 153.467 391.961 152.88 393.774 152.88C395.641 152.88 397.188 153.467 398.414 154.64C399.641 155.813 400.254 157.36 400.254 159.28C400.254 161.2 399.641 162.747 398.414 163.92C397.188 165.093 395.641 165.68 393.774 165.68ZM407.584 210V170.32H417.504V175.52H418.944C419.584 174.133 420.784 172.827 422.544 171.6C424.304 170.32 426.971 169.68 430.544 169.68C433.638 169.68 436.331 170.4 438.624 171.84C440.971 173.227 442.784 175.173 444.064 177.68C445.344 180.133 445.984 183.013 445.984 186.32V210H435.904V187.12C435.904 184.133 435.158 181.893 433.664 180.4C432.224 178.907 430.144 178.16 427.424 178.16C424.331 178.16 421.931 179.2 420.224 181.28C418.518 183.307 417.664 186.16 417.664 189.84V210H407.584ZM466.801 211.12C463.975 211.12 461.441 210.64 459.201 209.68C456.961 208.667 455.175 207.227 453.841 205.36C452.561 203.44 451.921 201.12 451.921 198.4C451.921 195.68 452.561 193.413 453.841 191.6C455.175 189.733 456.988 188.347 459.281 187.44C461.628 186.48 464.295 186 467.281 186H478.161V183.76C478.161 181.893 477.575 180.373 476.401 179.2C475.228 177.973 473.361 177.36 470.801 177.36C468.295 177.36 466.428 177.947 465.201 179.12C463.975 180.24 463.175 181.707 462.801 183.52L453.521 180.4C454.161 178.373 455.175 176.533 456.561 174.88C458.001 173.173 459.895 171.813 462.241 170.8C464.641 169.733 467.548 169.2 470.961 169.2C476.188 169.2 480.321 170.507 483.361 173.12C486.401 175.733 487.921 179.52 487.921 184.48V199.28C487.921 200.88 488.668 201.68 490.161 201.68H493.361V210H486.641C484.668 210 483.041 209.52 481.761 208.56C480.481 207.6 479.841 206.32 479.841 204.72V204.64H478.321C478.108 205.28 477.628 206.133 476.881 207.2C476.135 208.213 474.961 209.12 473.361 209.92C471.761 210.72 469.575 211.12 466.801 211.12ZM468.561 202.96C471.388 202.96 473.681 202.187 475.441 200.64C477.255 199.04 478.161 196.933 478.161 194.32V193.52H468.001C466.135 193.52 464.668 193.92 463.601 194.72C462.535 195.52 462.001 196.64 462.001 198.08C462.001 199.52 462.561 200.693 463.681 201.6C464.801 202.507 466.428 202.96 468.561 202.96ZM498.331 210V154H508.411V210H498.331ZM550.854 211.12C545.094 211.12 540.507 209.547 537.094 206.4C533.734 203.253 532.054 198.853 532.054 193.2V187.92H542.614V193.2C542.614 195.707 543.307 197.68 544.694 199.12C546.08 200.507 548.027 201.2 550.534 201.2C552.88 201.2 554.694 200.507 555.974 199.12C557.307 197.733 557.974 195.76 557.974 193.2V163.6H548.374V154H574.934V163.6H568.534V193.2C568.534 199.013 566.96 203.467 563.814 206.56C560.667 209.6 556.347 211.12 550.854 211.12ZM593.908 210.64C590.814 210.64 588.094 209.947 585.748 208.56C583.454 207.12 581.668 205.147 580.388 202.64C579.108 200.133 578.467 197.253 578.467 194V170.32H588.548V193.2C588.548 196.187 589.268 198.427 590.708 199.92C592.201 201.413 594.308 202.16 597.028 202.16C600.121 202.16 602.521 201.147 604.228 199.12C605.934 197.04 606.788 194.16 606.788 190.48V170.32H616.868V210H606.948V204.8H605.508C604.868 206.133 603.668 207.44 601.908 208.72C600.148 210 597.481 210.64 593.908 210.64ZM642.164 211.12C636.991 211.12 632.751 210 629.444 207.76C626.138 205.52 624.138 202.32 623.444 198.16L632.724 195.76C633.098 197.627 633.711 199.093 634.564 200.16C635.471 201.227 636.564 202 637.844 202.48C639.178 202.907 640.618 203.12 642.164 203.12C644.511 203.12 646.244 202.72 647.364 201.92C648.484 201.067 649.044 200.027 649.044 198.8C649.044 197.573 648.511 196.64 647.444 196C646.378 195.307 644.671 194.747 642.324 194.32L640.084 193.92C637.311 193.387 634.778 192.667 632.484 191.76C630.191 190.8 628.351 189.493 626.964 187.84C625.578 186.187 624.884 184.053 624.884 181.44C624.884 177.493 626.324 174.48 629.204 172.4C632.084 170.267 635.871 169.2 640.564 169.2C644.991 169.2 648.671 170.187 651.604 172.16C654.538 174.133 656.458 176.72 657.364 179.92L648.004 182.8C647.578 180.773 646.698 179.333 645.364 178.48C644.084 177.627 642.484 177.2 640.564 177.2C638.644 177.2 637.178 177.547 636.164 178.24C635.151 178.88 634.644 179.787 634.644 180.96C634.644 182.24 635.178 183.2 636.244 183.84C637.311 184.427 638.751 184.88 640.564 185.2L642.804 185.6C645.791 186.133 648.484 186.853 650.884 187.76C653.338 188.613 655.258 189.867 656.644 191.52C658.084 193.12 658.804 195.307 658.804 198.08C658.804 202.24 657.284 205.467 654.244 207.76C651.258 210 647.231 211.12 642.164 211.12ZM679.656 210C677.043 210 674.91 209.2 673.256 207.6C671.656 205.947 670.856 203.76 670.856 201.04V178.64H660.936V170.32H670.856V158H680.936V170.32H691.816V178.64H680.936V199.28C680.936 200.88 681.683 201.68 683.176 201.68H690.856V210H679.656ZM698.541 210V170.32H708.621V210H698.541ZM703.581 165.68C701.767 165.68 700.221 165.093 698.941 163.92C697.714 162.747 697.101 161.2 697.101 159.28C697.101 157.36 697.714 155.813 698.941 154.64C700.221 153.467 701.767 152.88 703.581 152.88C705.447 152.88 706.994 153.467 708.221 154.64C709.447 155.813 710.061 157.36 710.061 159.28C710.061 161.2 709.447 162.747 708.221 163.92C706.994 165.093 705.447 165.68 703.581 165.68ZM736.031 211.12C732.191 211.12 728.697 210.32 725.551 208.72C722.457 207.12 720.004 204.8 718.191 201.76C716.377 198.72 715.471 195.04 715.471 190.72V189.6C715.471 185.28 716.377 181.6 718.191 178.56C720.004 175.52 722.457 173.2 725.551 171.6C728.697 170 732.191 169.2 736.031 169.2C739.817 169.2 743.071 169.867 745.791 171.2C748.511 172.533 750.697 174.373 752.351 176.72C754.057 179.013 755.177 181.627 755.711 184.56L745.951 186.64C745.737 185.04 745.257 183.6 744.511 182.32C743.764 181.04 742.697 180.027 741.311 179.28C739.977 178.533 738.297 178.16 736.271 178.16C734.244 178.16 732.404 178.613 730.751 179.52C729.151 180.373 727.871 181.68 726.911 183.44C726.004 185.147 725.551 187.253 725.551 189.76V190.56C725.551 193.067 726.004 195.2 726.911 196.96C727.871 198.667 729.151 199.973 730.751 200.88C732.404 201.733 734.244 202.16 736.271 202.16C739.311 202.16 741.604 201.387 743.151 199.84C744.751 198.24 745.764 196.16 746.191 193.6L755.951 195.92C755.257 198.747 754.057 201.333 752.351 203.68C750.697 205.973 748.511 207.787 745.791 209.12C743.071 210.453 739.817 211.12 736.031 211.12ZM779.946 211.12C775.999 211.12 772.506 210.293 769.466 208.64C766.479 206.933 764.132 204.56 762.426 201.52C760.772 198.427 759.946 194.8 759.946 190.64V189.68C759.946 185.52 760.772 181.92 762.426 178.88C764.079 175.787 766.399 173.413 769.386 171.76C772.372 170.053 775.839 169.2 779.786 169.2C783.679 169.2 787.066 170.08 789.946 171.84C792.826 173.547 795.066 175.947 796.666 179.04C798.266 182.08 799.066 185.627 799.066 189.68V193.12H770.186C770.292 195.84 771.306 198.053 773.226 199.76C775.146 201.467 777.492 202.32 780.266 202.32C783.092 202.32 785.172 201.707 786.506 200.48C787.839 199.253 788.852 197.893 789.546 196.4L797.786 200.72C797.039 202.107 795.946 203.627 794.506 205.28C793.119 206.88 791.252 208.267 788.906 209.44C786.559 210.56 783.572 211.12 779.946 211.12ZM770.266 185.6H788.826C788.612 183.307 787.679 181.467 786.026 180.08C784.426 178.693 782.319 178 779.706 178C776.986 178 774.826 178.693 773.226 180.08C771.626 181.467 770.639 183.307 770.266 185.6Z" fill="white"/>
<path d="M229.735 23H235.015V45.96H247.735V51H229.735V23ZM272.307 41.32C272.307 42.9733 272.027 44.44 271.467 45.72C270.907 46.9733 270.147 48.04 269.187 48.92C268.227 49.7733 267.12 50.4267 265.867 50.88C264.64 51.3333 263.347 51.56 261.987 51.56C260.627 51.56 259.32 51.3333 258.067 50.88C256.84 50.4267 255.747 49.7733 254.787 48.92C253.827 48.04 253.067 46.9733 252.507 45.72C251.947 44.44 251.667 42.9733 251.667 41.32V40.84C251.667 39.2133 251.947 37.7733 252.507 36.52C253.067 35.24 253.827 34.16 254.787 33.28C255.747 32.4 256.84 31.7333 258.067 31.28C259.32 30.8267 260.627 30.6 261.987 30.6C263.347 30.6 264.64 30.8267 265.867 31.28C267.12 31.7333 268.227 32.4 269.187 33.28C270.147 34.16 270.907 35.24 271.467 36.52C272.027 37.7733 272.307 39.2133 272.307 40.84V41.32ZM261.987 46.76C262.707 46.76 263.387 46.64 264.027 46.4C264.667 46.16 265.227 45.8133 265.707 45.36C266.187 44.9067 266.56 44.36 266.827 43.72C267.12 43.0533 267.267 42.3067 267.267 41.48V40.68C267.267 39.8533 267.12 39.12 266.827 38.48C266.56 37.8133 266.187 37.2533 265.707 36.8C265.227 36.3467 264.667 36 264.027 35.76C263.387 35.52 262.707 35.4 261.987 35.4C261.267 35.4 260.587 35.52 259.947 35.76C259.307 36 258.747 36.3467 258.267 36.8C257.787 37.2533 257.4 37.8133 257.107 38.48C256.84 39.12 256.707 39.8533 256.707 40.68V41.48C256.707 42.3067 256.84 43.0533 257.107 43.72C257.4 44.36 257.787 44.9067 258.267 45.36C258.747 45.8133 259.307 46.16 259.947 46.4C260.587 46.64 261.267 46.76 261.987 46.76ZM289.599 31.16H294.639V55.88C294.639 56.7867 294.346 57.5333 293.759 58.12C293.199 58.7067 292.466 59 291.559 59H279.759V54.2H288.519C289.239 54.2 289.599 53.8 289.599 53V48.12H288.879C287.999 50.4133 286.106 51.56 283.199 51.56C282.212 51.56 281.292 51.4 280.439 51.08C279.586 50.76 278.839 50.2667 278.199 49.6C277.559 48.9333 277.052 48.1067 276.679 47.12C276.332 46.1067 276.159 44.92 276.159 43.56V31.16H281.199V42.52C281.199 43.9333 281.532 45.04 282.199 45.84C282.866 46.6133 283.866 47 285.199 47C286.719 47 287.826 46.52 288.519 45.56C289.239 44.5733 289.599 43.24 289.599 41.56V31.16ZM318.891 41.32C318.891 42.9733 318.611 44.44 318.051 45.72C317.491 46.9733 316.731 48.04 315.771 48.92C314.811 49.7733 313.705 50.4267 312.451 50.88C311.225 51.3333 309.931 51.56 308.571 51.56C307.211 51.56 305.905 51.3333 304.651 50.88C303.425 50.4267 302.331 49.7733 301.371 48.92C300.411 48.04 299.651 46.9733 299.091 45.72C298.531 44.44 298.251 42.9733 298.251 41.32V40.84C298.251 39.2133 298.531 37.7733 299.091 36.52C299.651 35.24 300.411 34.16 301.371 33.28C302.331 32.4 303.425 31.7333 304.651 31.28C305.905 30.8267 307.211 30.6 308.571 30.6C309.931 30.6 311.225 30.8267 312.451 31.28C313.705 31.7333 314.811 32.4 315.771 33.28C316.731 34.16 317.491 35.24 318.051 36.52C318.611 37.7733 318.891 39.2133 318.891 40.84V41.32ZM308.571 46.76C309.291 46.76 309.971 46.64 310.611 46.4C311.251 46.16 311.811 45.8133 312.291 45.36C312.771 44.9067 313.145 44.36 313.411 43.72C313.705 43.0533 313.851 42.3067 313.851 41.48V40.68C313.851 39.8533 313.705 39.12 313.411 38.48C313.145 37.8133 312.771 37.2533 312.291 36.8C311.811 36.3467 311.251 36 310.611 35.76C309.971 35.52 309.291 35.4 308.571 35.4C307.851 35.4 307.171 35.52 306.531 35.76C305.891 36 305.331 36.3467 304.851 36.8C304.371 37.2533 303.985 37.8133 303.691 38.48C303.425 39.12 303.291 39.8533 303.291 40.68V41.48C303.291 42.3067 303.425 43.0533 303.691 43.72C303.985 44.36 304.371 44.9067 304.851 45.36C305.331 45.8133 305.891 46.16 306.531 46.4C307.171 46.64 307.851 46.76 308.571 46.76ZM322.623 46.2H329.583V27.8H322.863V23H334.623V46.2H341.103V51H322.623V46.2ZM358.876 48.12C358.342 49.3733 357.596 50.2667 356.636 50.8C355.676 51.3067 354.556 51.56 353.276 51.56C352.076 51.56 350.942 51.3333 349.876 50.88C348.836 50.4267 347.916 49.76 347.116 48.88C346.316 48 345.676 46.9333 345.196 45.68C344.742 44.4267 344.516 43 344.516 41.4V40.76C344.516 39.1867 344.742 37.7733 345.196 36.52C345.649 35.2667 346.262 34.2 347.036 33.32C347.809 32.44 348.702 31.7733 349.716 31.32C350.756 30.84 351.862 30.6 353.036 30.6C354.449 30.6 355.582 30.84 356.436 31.32C357.316 31.8 358.009 32.5467 358.516 33.56H359.236V31.16H364.276V45C364.276 45.8 364.636 46.2 365.356 46.2H366.116V51H362.676C361.769 51 361.022 50.7333 360.436 50.2C359.876 49.6667 359.596 48.9733 359.596 48.12H358.876ZM354.396 46.76C355.862 46.76 357.036 46.28 357.916 45.32C358.796 44.3333 359.236 43 359.236 41.32V40.84C359.236 39.16 358.796 37.84 357.916 36.88C357.036 35.8933 355.862 35.4 354.396 35.4C352.929 35.4 351.756 35.8933 350.876 36.88C349.996 37.84 349.556 39.16 349.556 40.84V41.32C349.556 43 349.996 44.3333 350.876 45.32C351.756 46.28 352.929 46.76 354.396 46.76ZM401.82 46.76C402.833 46.76 403.66 46.6133 404.3 46.32C404.967 46 405.473 45.5867 405.82 45.08C406.193 44.5467 406.447 43.9467 406.58 43.28C406.713 42.5867 406.78 41.88 406.78 41.16V40.44H412.06V41.16C412.06 44.4933 411.18 47.0667 409.42 48.88C407.687 50.6667 405.153 51.56 401.82 51.56C398.62 51.56 396.087 50.5867 394.22 48.64C392.353 46.6933 391.42 43.8533 391.42 40.12V33.88C391.42 32.0933 391.66 30.4933 392.14 29.08C392.62 27.64 393.313 26.44 394.22 25.48C395.127 24.4933 396.22 23.7467 397.5 23.24C398.78 22.7067 400.22 22.44 401.82 22.44C403.473 22.44 404.94 22.68 406.22 23.16C407.5 23.64 408.567 24.3333 409.42 25.24C410.3 26.1467 410.953 27.24 411.38 28.52C411.833 29.8 412.06 31.24 412.06 32.84V33.56H406.78V32.84C406.78 32.1733 406.7 31.5067 406.54 30.84C406.38 30.1733 406.113 29.5733 405.74 29.04C405.367 28.5067 404.86 28.08 404.22 27.76C403.58 27.4133 402.78 27.24 401.82 27.24C400.94 27.24 400.18 27.4133 399.54 27.76C398.9 28.08 398.367 28.5333 397.94 29.12C397.513 29.68 397.193 30.3467 396.98 31.12C396.793 31.8667 396.7 32.6533 396.7 33.48V40.52C396.7 41.4267 396.793 42.2667 396.98 43.04C397.167 43.7867 397.46 44.44 397.86 45C398.26 45.56 398.78 46 399.42 46.32C400.087 46.6133 400.887 46.76 401.82 46.76ZM421.032 51H415.992V23H421.032V34.36H421.752C422.259 33.16 423.006 32.24 423.992 31.6C424.979 30.9333 426.192 30.6 427.632 30.6C428.619 30.6 429.526 30.76 430.352 31.08C431.179 31.4 431.899 31.88 432.512 32.52C433.126 33.16 433.606 33.9867 433.952 35C434.299 35.9867 434.472 37.16 434.472 38.52V51H429.432V39.72C429.432 38.3067 429.086 37.2 428.392 36.4C427.726 35.5733 426.752 35.16 425.472 35.16C423.979 35.16 422.859 35.6667 422.112 36.68C421.392 37.6667 421.032 39 421.032 40.68V51ZM439.564 46.2H446.284V35.96H440.044V31.16H451.324V46.2H457.084V51H439.564V46.2ZM452.564 25.28C452.564 25.8133 452.458 26.32 452.244 26.8C452.058 27.2533 451.791 27.6533 451.444 28C451.098 28.32 450.684 28.5867 450.204 28.8C449.751 28.9867 449.271 29.08 448.764 29.08C448.231 29.08 447.738 28.9867 447.284 28.8C446.831 28.5867 446.431 28.32 446.084 28C445.738 27.6533 445.458 27.2533 445.244 26.8C445.058 26.32 444.964 25.8133 444.964 25.28C444.964 24.7467 445.058 24.2533 445.244 23.8C445.458 23.32 445.738 22.92 446.084 22.6C446.431 22.2533 446.831 21.9867 447.284 21.8C447.738 21.5867 448.231 21.48 448.764 21.48C449.271 21.48 449.751 21.5867 450.204 21.8C450.684 21.9867 451.098 22.2533 451.444 22.6C451.791 22.92 452.058 23.32 452.244 23.8C452.458 24.2533 452.564 24.7467 452.564 25.28ZM481.857 43.72C481.403 46.0667 480.323 47.96 478.617 49.4C476.937 50.84 474.683 51.56 471.857 51.56C470.39 51.56 469.017 51.3333 467.737 50.88C466.483 50.4267 465.39 49.7733 464.457 48.92C463.523 48.0667 462.79 47.0133 462.257 45.76C461.723 44.5067 461.457 43.08 461.457 41.48V41C461.457 39.4 461.723 37.96 462.257 36.68C462.79 35.4 463.523 34.3067 464.457 33.4C465.417 32.4933 466.523 31.8 467.777 31.32C469.057 30.84 470.417 30.6 471.857 30.6C474.63 30.6 476.87 31.32 478.577 32.76C480.31 34.2 481.403 36.0933 481.857 38.44L476.897 39.72C476.737 38.5467 476.23 37.5333 475.377 36.68C474.523 35.8267 473.323 35.4 471.777 35.4C471.057 35.4 470.377 35.5333 469.737 35.8C469.097 36.0667 468.537 36.4533 468.057 36.96C467.577 37.44 467.19 38.04 466.897 38.76C466.63 39.4533 466.497 40.24 466.497 41.12V41.36C466.497 42.24 466.63 43.0267 466.897 43.72C467.19 44.3867 467.577 44.9467 468.057 45.4C468.537 45.8533 469.097 46.2 469.737 46.44C470.377 46.6533 471.057 46.76 471.777 46.76C473.323 46.76 474.497 46.3733 475.297 45.6C476.123 44.8267 476.657 43.7867 476.897 42.48L481.857 43.72ZM498.629 48.12C498.095 49.3733 497.349 50.2667 496.389 50.8C495.429 51.3067 494.309 51.56 493.029 51.56C491.829 51.56 490.695 51.3333 489.629 50.88C488.589 50.4267 487.669 49.76 486.869 48.88C486.069 48 485.429 46.9333 484.949 45.68C484.495 44.4267 484.269 43 484.269 41.4V40.76C484.269 39.1867 484.495 37.7733 484.949 36.52C485.402 35.2667 486.015 34.2 486.789 33.32C487.562 32.44 488.455 31.7733 489.469 31.32C490.509 30.84 491.615 30.6 492.789 30.6C494.202 30.6 495.335 30.84 496.189 31.32C497.069 31.8 497.762 32.5467 498.269 33.56H498.989V31.16H504.029V45C504.029 45.8 504.389 46.2 505.109 46.2H505.869V51H502.429C501.522 51 500.775 50.7333 500.189 50.2C499.629 49.6667 499.349 48.9733 499.349 48.12H498.629ZM494.149 46.76C495.615 46.76 496.789 46.28 497.669 45.32C498.549 44.3333 498.989 43 498.989 41.32V40.84C498.989 39.16 498.549 37.84 497.669 36.88C496.789 35.8933 495.615 35.4 494.149 35.4C492.682 35.4 491.509 35.8933 490.629 36.88C489.749 37.84 489.309 39.16 489.309 40.84V41.32C489.309 43 489.749 44.3333 490.629 45.32C491.509 46.28 492.682 46.76 494.149 46.76ZM523.241 48.12H522.521C522.308 48.5733 522.041 49.0133 521.721 49.44C521.428 49.84 521.028 50.2 520.521 50.52C520.041 50.84 519.454 51.0933 518.761 51.28C518.094 51.4667 517.281 51.56 516.321 51.56C515.094 51.56 513.948 51.3467 512.881 50.92C511.841 50.4667 510.921 49.8133 510.121 48.96C509.348 48.08 508.734 47.0133 508.281 45.76C507.854 44.5067 507.641 43.0667 507.641 41.44V40.72C507.641 39.12 507.868 37.6933 508.321 36.44C508.801 35.1867 509.441 34.1333 510.241 33.28C511.068 32.4 512.014 31.7333 513.081 31.28C514.174 30.8267 515.321 30.6 516.521 30.6C518.121 30.6 519.388 30.9067 520.321 31.52C521.254 32.1067 521.988 32.9467 522.521 34.04H523.241V31.16H528.281V55.88C528.281 56.7867 527.988 57.5333 527.401 58.12C526.841 58.7067 526.108 59 525.201 59H511.841V54.2H522.161C522.881 54.2 523.241 53.8 523.241 53V48.12ZM517.961 46.76C519.534 46.76 520.801 46.2667 521.761 45.28C522.748 44.2667 523.241 42.9467 523.241 41.32V40.84C523.241 39.2133 522.748 37.9067 521.761 36.92C520.801 35.9067 519.534 35.4 517.961 35.4C516.388 35.4 515.108 35.8933 514.121 36.88C513.161 37.84 512.681 39.16 512.681 40.84V41.32C512.681 43 513.161 44.3333 514.121 45.32C515.108 46.28 516.388 46.76 517.961 46.76ZM551.813 41.32C551.813 42.9733 551.533 44.44 550.973 45.72C550.413 46.9733 549.653 48.04 548.693 48.92C547.733 49.7733 546.626 50.4267 545.373 50.88C544.146 51.3333 542.853 51.56 541.493 51.56C540.133 51.56 538.826 51.3333 537.573 50.88C536.346 50.4267 535.253 49.7733 534.293 48.92C533.333 48.04 532.573 46.9733 532.013 45.72C531.453 44.44 531.173 42.9733 531.173 41.32V40.84C531.173 39.2133 531.453 37.7733 532.013 36.52C532.573 35.24 533.333 34.16 534.293 33.28C535.253 32.4 536.346 31.7333 537.573 31.28C538.826 30.8267 540.133 30.6 541.493 30.6C542.853 30.6 544.146 30.8267 545.373 31.28C546.626 31.7333 547.733 32.4 548.693 33.28C549.653 34.16 550.413 35.24 550.973 36.52C551.533 37.7733 551.813 39.2133 551.813 40.84V41.32ZM541.493 46.76C542.213 46.76 542.893 46.64 543.533 46.4C544.173 46.16 544.733 45.8133 545.213 45.36C545.693 44.9067 546.066 44.36 546.333 43.72C546.626 43.0533 546.773 42.3067 546.773 41.48V40.68C546.773 39.8533 546.626 39.12 546.333 38.48C546.066 37.8133 545.693 37.2533 545.213 36.8C544.733 36.3467 544.173 36 543.533 35.76C542.893 35.52 542.213 35.4 541.493 35.4C540.773 35.4 540.093 35.52 539.453 35.76C538.813 36 538.253 36.3467 537.773 36.8C537.293 37.2533 536.906 37.8133 536.613 38.48C536.346 39.12 536.213 39.8533 536.213 40.68V41.48C536.213 42.3067 536.346 43.0533 536.613 43.72C536.906 44.36 537.293 44.9067 537.773 45.36C538.253 45.8133 538.813 46.16 539.453 46.4C540.093 46.64 540.773 46.76 541.493 46.76Z" fill="white"/>
<line x1="205" y1="227.189" x2="205" y2="10.9997" stroke="white" stroke-width="6"/>
<g clip-path="url(#clip0_1324_552)">
<path d="M30.9432 69.9473C29.2765 69.9473 27.9375 71.4153 27.9375 73.2291C27.9375 75.0118 29.2765 76.4348 30.9432 76.4348C32.6056 76.4348 33.9394 75.0118 33.9394 73.2291C33.9394 71.4153 32.6056 69.9473 30.9432 69.9473Z" fill="white"/>
<path d="M30.9419 64.3299C32.4752 64.3299 33.7023 63.0026 33.7023 61.3652C33.7023 59.726 32.4752 58.3955 30.9419 58.3955C29.4119 58.3955 28.1719 59.726 28.1719 61.3652C28.1719 63.0026 29.4119 64.3299 30.9419 64.3299Z" fill="white"/>
<path d="M74.8763 59.8252C71.6073 59.8252 70.834 65.2505 70.834 67.7267C70.834 70.205 71.6073 75.6952 74.8763 75.6952C78.1503 75.6952 78.9317 70.205 78.9317 67.7267C78.9317 65.2505 78.1503 59.8252 74.8763 59.8252Z" fill="white"/>
<path d="M56.4668 98.6315H61.3651L60.3555 96.8613L56.4668 98.6315Z" fill="white"/>
<path d="M141.429 139.658C149.435 143.572 149.435 152.65 149.435 150.288C149.435 136.762 145.179 137.718 145.353 129.175C145.521 120.639 154.246 121.377 154.246 121.377C157.666 121.429 158.695 123.622 158.695 123.622C158.695 123.622 156.975 123.241 156.278 124.212C156.278 124.212 153.686 126.184 158.336 137.793C159.274 140.132 163.408 148.295 158.418 154.196C154.884 158.366 149.254 156.818 149.254 156.818C148.899 159.054 148.721 160.169 148.721 160.169H152.813C156.558 160.361 156.732 164.651 156.732 164.651V182.743L153.88 185.723H144.447C144.276 181.246 149.792 179.383 149.792 179.383V171.55H141.062C136.436 171.178 133.951 161.851 133.951 161.851L130.566 162.227C130.387 162.788 135.37 172.295 135.37 172.295L125.221 182.366V185.352H114.189C113.656 182.548 118.988 180.127 118.988 180.127L125.933 172.295C126.821 171.285 126.201 170.258 124.998 169.842C123.676 169.388 122.617 169.071 121.134 168.476C119.628 167.875 113.292 163.718 115.97 155.695C118.591 147.815 127.359 151.037 127.359 150.101C127.359 149.176 122.734 137.983 122.734 137.983L126.473 132.194L122.014 135.182L110.271 132.943C109.025 143.39 104.393 140.776 104.393 140.776V132.943C104.393 132.943 104.566 127.788 109.025 126.231C114.363 124.368 118.103 125.483 119.703 125.108C121.307 124.734 120.844 123.248 120.844 123.248L113.829 123.433L107.6 118.023L104.214 117.649C97.981 116.534 100.301 111.496 100.301 111.496H109.204C112.577 111.496 121.307 118.21 121.307 118.21C121.307 118.21 122.555 110.75 115.97 108.139C109.378 105.531 110.804 103.481 110.804 103.481L117.029 105.715C117.029 105.715 117.748 104.969 116.684 103.288C116.106 102.386 111.154 100.492 111.154 100.492C107.24 99.0011 108.484 95.6466 108.484 95.6466L115.437 96.3876C117.029 94.9007 116.85 94.7114 119.17 94.3395C121.481 93.9655 125.047 97.3252 124.68 96.2025C124.333 95.0857 123.974 91.726 123.621 88.3691C123.304 85.3551 132.699 99.3751 132.699 99.3751C144.802 123.433 141.429 139.658 141.429 139.658ZM107.89 152.964V166.989C107.89 166.989 108.113 174.296 102.227 180.464C96.111 186.869 89.2687 186.185 89.1643 186.176C89.0607 186.185 82.2227 186.869 76.0993 180.464C70.2083 174.296 70.432 166.989 70.432 166.989V152.964C70.432 152.964 68.7703 152.508 68.691 150.794C68.5793 148.625 70.7617 148.97 70.7617 148.97H75.1197C74.9037 153.77 77.743 153.196 77.743 153.196C80.7863 153.308 80.137 148.97 80.137 148.97H98.1927C98.1927 148.97 97.5277 153.308 100.585 153.196C100.585 153.196 103.418 153.77 103.207 148.97H107.567C107.567 148.97 109.743 148.625 109.631 150.794C109.551 152.508 107.89 152.964 107.89 152.964ZM55.5753 137.983C55.5753 137.983 50.9493 149.176 50.9493 150.101C50.9493 151.037 59.717 147.815 62.341 155.695C65.012 163.718 58.675 167.875 57.1827 168.476C55.6863 169.071 54.6273 169.388 53.313 169.842C52.115 170.258 51.4903 171.285 52.3753 172.295L59.315 180.127C59.315 180.127 64.6597 182.548 64.1197 185.352H53.0827V182.366L42.9337 172.295C42.9337 172.295 47.9187 162.788 47.745 162.227L44.3643 161.851C44.3643 161.851 41.8673 171.178 37.242 171.55H28.5164V179.383C28.5164 179.383 34.035 181.246 33.8493 185.723H24.4245L21.5721 182.743V164.651C21.5721 164.651 21.7531 160.361 25.4912 160.169H29.5778C29.5778 160.169 29.4045 159.054 29.0497 156.818C29.0497 156.818 23.4197 158.366 19.8859 154.196C14.8954 148.295 19.0302 140.132 19.9721 137.793C24.6178 126.184 22.0307 124.212 22.0307 124.212C21.3369 123.241 19.6131 123.622 19.6131 123.622C19.6131 123.622 20.6369 121.429 24.0597 121.377C24.0597 121.377 32.7826 120.639 32.9564 129.175C33.1297 137.718 28.8711 136.762 28.8711 150.288C28.8711 152.65 28.8712 143.572 36.8873 139.658C36.8873 139.658 33.5093 123.433 45.612 99.3751C45.612 99.3751 55.0043 85.3551 54.682 88.3691C54.3303 91.726 53.9703 95.0857 53.623 96.2025C53.2637 97.3252 56.8227 93.9655 59.134 94.3395C61.4483 94.7114 61.2743 94.9007 62.8787 96.3876L69.8187 95.6466C69.8187 95.6466 71.0637 99.0011 67.1527 100.492C67.1527 100.492 62.197 102.386 61.627 103.288C60.5677 104.969 61.2743 105.715 61.2743 105.715L67.505 103.481C67.505 103.481 68.926 105.531 62.341 108.139C55.7487 110.75 57.0017 118.21 57.0017 118.21C57.0017 118.21 65.7263 111.496 69.1043 111.496H78.0083C78.0083 111.496 80.322 116.534 74.097 117.649L70.7043 118.023L64.4787 123.433L57.4597 123.248C57.4597 123.248 57.0017 124.734 58.596 125.108C60.2007 125.483 63.9407 124.368 69.2783 126.231C73.7427 127.788 73.9107 132.943 73.9107 132.943V140.776C73.9107 140.776 69.2783 143.39 68.0377 132.943L56.2897 135.182L51.8303 132.194L55.5753 137.983ZM17.0407 81.2767H10.6916V60.6027H8.03065L9.08448 54.735H17.0407V81.2767ZM22.3854 61.1562C22.3854 56.1311 26.644 53.6496 30.9469 53.6496C35.2378 53.6496 39.5037 56.1311 39.5037 61.1562C39.5037 63.9491 37.842 66.3181 35.5431 67.1241V67.1943C38.5437 68.2416 40.5407 70.6444 40.5407 74.0981C40.5407 79.5436 35.275 82.0565 30.9469 82.0565C26.6073 82.0565 21.3435 79.5436 21.3435 74.0981C21.3435 70.6444 23.3454 68.2416 26.3464 67.1943V67.1241C24.0521 66.3181 22.3854 63.9491 22.3854 61.1562ZM43.8763 61.3297V54.9745H64.8383L50.8137 81.2767H42.9463L54.0693 61.3297H43.8763ZM74.8783 53.9583C82.133 53.9583 85.2327 61.1143 85.2327 67.7604C85.2327 74.4092 82.1627 81.562 74.8783 81.562C67.5987 81.562 64.5237 74.4092 64.5237 67.7604C64.5237 61.1143 67.6287 53.9583 74.8783 53.9583ZM89.052 93.0834C89.094 93.0834 89.1197 93.1274 89.164 93.133C89.206 93.1274 89.2307 93.0834 89.276 93.0834C90.2283 93.0834 91.0093 93.8991 91.0093 94.9017C91.0093 95.5753 90.657 96.1599 90.1487 96.4763L90.1437 96.5053L90.131 132.735L101.557 144.89V148.751H99.8407L99.8287 145.672L89.164 134.276L78.4993 145.672L78.4863 148.751H76.7677V144.89L88.1963 132.735L88.1843 96.5053L88.177 96.4763C87.6683 96.1599 87.3163 95.5753 87.3163 94.9017C87.3163 93.8991 88.0973 93.0834 89.052 93.0834ZM174.895 34.5016L126.228 81.3071H113.924L174.896 22.7204L174.898 11.0015L101.622 81.3117H89.3183L163.142 11.0015H150.841L89.317 69.5884V57.8673L138.536 11H126.229L89.322 46.155V34.4342L113.925 11H101.624L89.3197 22.7164V11H3.33398V154.17C3.33398 206.73 89.1243 228.78 89.1243 228.78C89.1243 228.78 174.901 206.734 174.901 154.17L174.898 81.3103H163.145L174.901 69.5937V57.8761L150.844 81.3103H138.539L174.901 46.155L174.898 34.5046" fill="white"/>
<path d="M121.838 98.6315H116.939L117.951 96.8613L121.838 98.6315Z" fill="white"/>
</g>
<defs>
<clipPath id="clip0_1324_552">
<rect width="180" height="220" fill="white" transform="translate(0 11)"/>
</clipPath>
</defs>
</svg>
