<svg width="161" height="55" viewBox="0 0 161 55" fill="none" xmlns="http://www.w3.org/2000/svg">
<path d="M50.7313 12.275C50.1813 12.275 49.6716 12.176 49.2023 11.978C48.7329 11.7727 48.3223 11.4904 47.9703 11.131C47.6256 10.7717 47.3579 10.3537 47.1673 9.87704C46.9766 9.40037 46.8813 8.89071 46.8813 8.34804C46.8813 7.79804 46.9766 7.28471 47.1673 6.80804C47.3579 6.33137 47.6256 5.91704 47.9703 5.56504C48.3223 5.20571 48.7293 4.92704 49.1913 4.72904C49.6606 4.52371 50.1703 4.42104 50.7203 4.42104C51.3216 4.42104 51.8496 4.52371 52.3043 4.72904C52.7589 4.93437 53.1623 5.21304 53.5143 5.56504L52.7993 6.28004C52.5573 6.00871 52.2603 5.79604 51.9083 5.64204C51.5636 5.48804 51.1676 5.41104 50.7203 5.41104C50.3169 5.41104 49.9466 5.48437 49.6093 5.63104C49.2719 5.77037 48.9786 5.97204 48.7293 6.23604C48.4799 6.50004 48.2856 6.81171 48.1463 7.17104C48.0143 7.53037 47.9483 7.92271 47.9483 8.34804C47.9483 8.77337 48.0143 9.16571 48.1463 9.52504C48.2856 9.88437 48.4799 10.196 48.7293 10.46C48.9786 10.724 49.2719 10.9294 49.6093 11.076C49.9466 11.2154 50.3169 11.285 50.7203 11.285C51.1969 11.285 51.6113 11.208 51.9633 11.054C52.3153 10.8927 52.6123 10.6764 52.8543 10.405L53.5693 11.109C53.2173 11.4757 52.8029 11.7617 52.3263 11.967C51.8569 12.1724 51.3253 12.275 50.7313 12.275ZM56.8679 12.275C56.3545 12.275 55.8925 12.154 55.4819 11.912C55.0712 11.67 54.7449 11.3437 54.5029 10.933C54.2609 10.515 54.1399 10.0494 54.1399 9.53604C54.1399 9.03004 54.2609 8.57537 54.5029 8.17204C54.7449 7.76137 55.0712 7.43504 55.4819 7.19304C55.8925 6.95104 56.3545 6.83004 56.8679 6.83004C57.3739 6.83004 57.8322 6.95104 58.2429 7.19304C58.6609 7.42771 58.9909 7.75037 59.2329 8.16104C59.4749 8.57171 59.5959 9.03004 59.5959 9.53604C59.5959 10.0494 59.4749 10.515 59.2329 10.933C58.9909 11.3437 58.6609 11.67 58.2429 11.912C57.8322 12.154 57.3739 12.275 56.8679 12.275ZM56.8679 11.318C57.1979 11.318 57.4912 11.241 57.7479 11.087C58.0045 10.933 58.2062 10.724 58.3529 10.46C58.4995 10.1887 58.5729 9.88071 58.5729 9.53604C58.5729 9.19871 58.4959 8.89804 58.3419 8.63404C58.1952 8.37004 57.9935 8.16471 57.7369 8.01804C57.4875 7.86404 57.1979 7.78704 56.8679 7.78704C56.5379 7.78704 56.2445 7.86404 55.9879 8.01804C55.7312 8.16471 55.5295 8.37004 55.3829 8.63404C55.2362 8.89804 55.1629 9.19871 55.1629 9.53604C55.1629 9.88071 55.2362 10.1887 55.3829 10.46C55.5295 10.724 55.7312 10.933 55.9879 11.087C56.2445 11.241 56.5379 11.318 56.8679 11.318ZM60.7114 12.165V4.31104H61.7014V12.165H60.7114ZM65.5368 12.275C65.0235 12.275 64.5615 12.154 64.1508 11.912C63.7402 11.67 63.4138 11.3437 63.1718 10.933C62.9298 10.515 62.8088 10.0494 62.8088 9.53604C62.8088 9.03004 62.9298 8.57537 63.1718 8.17204C63.4138 7.76137 63.7402 7.43504 64.1508 7.19304C64.5615 6.95104 65.0235 6.83004 65.5368 6.83004C66.0428 6.83004 66.5012 6.95104 66.9118 7.19304C67.3298 7.42771 67.6598 7.75037 67.9018 8.16104C68.1438 8.57171 68.2648 9.03004 68.2648 9.53604C68.2648 10.0494 68.1438 10.515 67.9018 10.933C67.6598 11.3437 67.3298 11.67 66.9118 11.912C66.5012 12.154 66.0428 12.275 65.5368 12.275ZM65.5368 11.318C65.8668 11.318 66.1602 11.241 66.4168 11.087C66.6735 10.933 66.8752 10.724 67.0218 10.46C67.1685 10.1887 67.2418 9.88071 67.2418 9.53604C67.2418 9.19871 67.1648 8.89804 67.0108 8.63404C66.8642 8.37004 66.6625 8.16471 66.4058 8.01804C66.1565 7.86404 65.8668 7.78704 65.5368 7.78704C65.2068 7.78704 64.9135 7.86404 64.6568 8.01804C64.4002 8.16471 64.1985 8.37004 64.0518 8.63404C63.9052 8.89804 63.8318 9.19871 63.8318 9.53604C63.8318 9.88071 63.9052 10.1887 64.0518 10.46C64.1985 10.724 64.4002 10.933 64.6568 11.087C64.9135 11.241 65.2068 11.318 65.5368 11.318ZM69.3803 12.165V6.94004H70.3703V12.165H69.3803ZM70.3703 9.18404L69.9963 9.01904C69.9963 8.35171 70.1503 7.82004 70.4583 7.42404C70.7663 7.02804 71.21 6.83004 71.7893 6.83004C72.0533 6.83004 72.2916 6.87771 72.5043 6.97304C72.717 7.06104 72.915 7.21137 73.0983 7.42404L72.4493 8.09504C72.3393 7.97771 72.2183 7.89337 72.0863 7.84204C71.9543 7.79071 71.8003 7.76504 71.6243 7.76504C71.2576 7.76504 70.957 7.88237 70.7223 8.11704C70.4876 8.35171 70.3703 8.70737 70.3703 9.18404ZM75.8455 12.275C75.3688 12.275 74.9361 12.1577 74.5475 11.923C74.1588 11.681 73.8508 11.3547 73.6235 10.944C73.4035 10.5334 73.2935 10.0714 73.2935 9.55804C73.2935 9.04471 73.4035 8.58271 73.6235 8.17204C73.8508 7.76137 74.1551 7.43504 74.5365 7.19304C74.9251 6.95104 75.3615 6.83004 75.8455 6.83004C76.2415 6.83004 76.5935 6.91437 76.9015 7.08304C77.2168 7.24437 77.4698 7.47171 77.6605 7.76504C77.8511 8.05104 77.9575 8.38471 77.9795 8.76604V10.339C77.9575 10.713 77.8511 11.0467 77.6605 11.34C77.4771 11.6334 77.2278 11.8644 76.9125 12.033C76.6045 12.1944 76.2488 12.275 75.8455 12.275ZM76.0105 11.34C76.5018 11.34 76.8978 11.175 77.1985 10.845C77.4991 10.5077 77.6495 10.0787 77.6495 9.55804C77.6495 9.19871 77.5798 8.88704 77.4405 8.62304C77.3085 8.35171 77.1178 8.14271 76.8685 7.99604C76.6191 7.84204 76.3295 7.76504 75.9995 7.76504C75.6695 7.76504 75.3761 7.84204 75.1195 7.99604C74.8701 8.15004 74.6721 8.36271 74.5255 8.63404C74.3861 8.89804 74.3165 9.20237 74.3165 9.54704C74.3165 9.89904 74.3861 10.2107 74.5255 10.482C74.6721 10.746 74.8738 10.955 75.1305 11.109C75.3871 11.263 75.6805 11.34 76.0105 11.34ZM77.5835 12.165V10.757L77.7705 9.48104L77.5835 8.21604V6.94004H78.5845V12.165H77.5835ZM82.2368 12.275C81.7528 12.275 81.3201 12.1577 80.9388 11.923C80.5575 11.681 80.2531 11.3547 80.0258 10.944C79.8058 10.5334 79.6958 10.0714 79.6958 9.55804C79.6958 9.04471 79.8058 8.58271 80.0258 8.17204C80.2531 7.76137 80.5575 7.43504 80.9388 7.19304C81.3201 6.95104 81.7528 6.83004 82.2368 6.83004C82.6255 6.83004 82.9775 6.91437 83.2928 7.08304C83.6081 7.24437 83.8611 7.47171 84.0518 7.76504C84.2498 8.05104 84.3598 8.38471 84.3818 8.76604V10.339C84.3598 10.713 84.2535 11.0467 84.0628 11.34C83.8721 11.6334 83.6191 11.8644 83.3038 12.033C82.9885 12.1944 82.6328 12.275 82.2368 12.275ZM82.4018 11.34C82.7318 11.34 83.0178 11.263 83.2598 11.109C83.5091 10.955 83.7035 10.746 83.8428 10.482C83.9821 10.2107 84.0518 9.90271 84.0518 9.55804C84.0518 9.19871 83.9785 8.88704 83.8318 8.62304C83.6925 8.35904 83.4981 8.15004 83.2488 7.99604C83.0068 7.84204 82.7208 7.76504 82.3908 7.76504C82.0608 7.76504 81.7711 7.84204 81.5218 7.99604C81.2725 8.15004 81.0745 8.36271 80.9278 8.63404C80.7885 8.89804 80.7188 9.20237 80.7188 9.54704C80.7188 9.89904 80.7885 10.2107 80.9278 10.482C81.0745 10.746 81.2725 10.955 81.5218 11.109C81.7785 11.263 82.0718 11.34 82.4018 11.34ZM84.9868 12.165H83.9858V10.757L84.1728 9.48104L83.9858 8.21604V4.31104H84.9868V12.165ZM88.8151 12.275C88.3018 12.275 87.8398 12.154 87.4291 11.912C87.0185 11.67 86.6921 11.3437 86.4501 10.933C86.2081 10.515 86.0871 10.0494 86.0871 9.53604C86.0871 9.03004 86.2081 8.57537 86.4501 8.17204C86.6921 7.76137 87.0185 7.43504 87.4291 7.19304C87.8398 6.95104 88.3018 6.83004 88.8151 6.83004C89.3211 6.83004 89.7795 6.95104 90.1901 7.19304C90.6081 7.42771 90.9381 7.75037 91.1801 8.16104C91.4221 8.57171 91.5431 9.03004 91.5431 9.53604C91.5431 10.0494 91.4221 10.515 91.1801 10.933C90.9381 11.3437 90.6081 11.67 90.1901 11.912C89.7795 12.154 89.3211 12.275 88.8151 12.275ZM88.8151 11.318C89.1451 11.318 89.4385 11.241 89.6951 11.087C89.9518 10.933 90.1535 10.724 90.3001 10.46C90.4468 10.1887 90.5201 9.88071 90.5201 9.53604C90.5201 9.19871 90.4431 8.89804 90.2891 8.63404C90.1425 8.37004 89.9408 8.16471 89.6841 8.01804C89.4348 7.86404 89.1451 7.78704 88.8151 7.78704C88.4851 7.78704 88.1918 7.86404 87.9351 8.01804C87.6785 8.16471 87.4768 8.37004 87.3301 8.63404C87.1835 8.89804 87.1101 9.19871 87.1101 9.53604C87.1101 9.88071 87.1835 10.1887 87.3301 10.46C87.4768 10.724 87.6785 10.933 87.9351 11.087C88.1918 11.241 88.4851 11.318 88.8151 11.318Z" fill="black"/>
<path d="M48.9743 24.305V22.829H52.3763C52.8443 22.829 53.2583 22.733 53.6183 22.541C53.9903 22.349 54.2783 22.079 54.4823 21.731C54.6983 21.383 54.8063 20.969 54.8063 20.489C54.8063 20.009 54.6983 19.595 54.4823 19.247C54.2783 18.899 53.9903 18.629 53.6183 18.437C53.2583 18.245 52.8443 18.149 52.3763 18.149H48.9743V16.673H52.4843C53.2523 16.673 53.9363 16.829 54.5363 17.141C55.1483 17.453 55.6283 17.897 55.9763 18.473C56.3363 19.037 56.5163 19.709 56.5163 20.489C56.5163 21.257 56.3363 21.929 55.9763 22.505C55.6283 23.069 55.1483 23.513 54.5363 23.837C53.9363 24.149 53.2523 24.305 52.4843 24.305H48.9743ZM47.8403 29.165V16.673H49.5323V29.165H47.8403ZM58.4683 29.165V20.615H60.0883V29.165H58.4683ZM60.0883 24.287L59.4763 24.017C59.4763 22.925 59.7283 22.055 60.2323 21.407C60.7363 20.759 61.4623 20.435 62.4103 20.435C62.8423 20.435 63.2323 20.513 63.5803 20.669C63.9283 20.813 64.2523 21.059 64.5523 21.407L63.4903 22.505C63.3103 22.313 63.1123 22.175 62.8963 22.091C62.6803 22.007 62.4283 21.965 62.1403 21.965C61.5403 21.965 61.0483 22.157 60.6643 22.541C60.2803 22.925 60.0883 23.507 60.0883 24.287ZM69.3176 29.345C68.4776 29.345 67.7216 29.147 67.0496 28.751C66.3776 28.355 65.8436 27.821 65.4476 27.149C65.0516 26.465 64.8536 25.703 64.8536 24.863C64.8536 24.035 65.0516 23.291 65.4476 22.631C65.8436 21.959 66.3776 21.425 67.0496 21.029C67.7216 20.633 68.4776 20.435 69.3176 20.435C70.1456 20.435 70.8956 20.633 71.5676 21.029C72.2516 21.413 72.7916 21.941 73.1876 22.613C73.5836 23.285 73.7816 24.035 73.7816 24.863C73.7816 25.703 73.5836 26.465 73.1876 27.149C72.7916 27.821 72.2516 28.355 71.5676 28.751C70.8956 29.147 70.1456 29.345 69.3176 29.345ZM69.3176 27.779C69.8576 27.779 70.3376 27.653 70.7576 27.401C71.1776 27.149 71.5076 26.807 71.7476 26.375C71.9876 25.931 72.1076 25.427 72.1076 24.863C72.1076 24.311 71.9816 23.819 71.7296 23.387C71.4896 22.955 71.1596 22.619 70.7396 22.379C70.3316 22.127 69.8576 22.001 69.3176 22.001C68.7776 22.001 68.2976 22.127 67.8776 22.379C67.4576 22.619 67.1276 22.955 66.8876 23.387C66.6476 23.819 66.5276 24.311 66.5276 24.863C66.5276 25.427 66.6476 25.931 66.8876 26.375C67.1276 26.807 67.4576 27.149 67.8776 27.401C68.2976 27.653 68.7776 27.779 69.3176 27.779ZM78.3249 29.345C77.8449 29.345 77.3889 29.285 76.9569 29.165C76.5369 29.033 76.1469 28.853 75.7869 28.625C75.4269 28.385 75.1149 28.103 74.8509 27.779L75.8949 26.735C76.2069 27.119 76.5669 27.407 76.9749 27.599C77.3829 27.779 77.8389 27.869 78.3429 27.869C78.8469 27.869 79.2369 27.785 79.5129 27.617C79.7889 27.437 79.9269 27.191 79.9269 26.879C79.9269 26.567 79.8129 26.327 79.5849 26.159C79.3689 25.979 79.0869 25.835 78.7389 25.727C78.3909 25.607 78.0189 25.493 77.6229 25.385C77.2389 25.265 76.8729 25.115 76.5249 24.935C76.1769 24.755 75.8889 24.509 75.6609 24.197C75.4449 23.885 75.3369 23.471 75.3369 22.955C75.3369 22.439 75.4629 21.995 75.7149 21.623C75.9669 21.239 76.3149 20.945 76.7589 20.741C77.2149 20.537 77.7609 20.435 78.3969 20.435C79.0689 20.435 79.6629 20.555 80.1789 20.795C80.7069 21.023 81.1389 21.371 81.4749 21.839L80.4309 22.883C80.1909 22.571 79.8909 22.331 79.5309 22.163C79.1829 21.995 78.7869 21.911 78.3429 21.911C77.8749 21.911 77.5149 21.995 77.2629 22.163C77.0229 22.319 76.9029 22.541 76.9029 22.829C76.9029 23.117 77.0109 23.339 77.2269 23.495C77.4429 23.651 77.7249 23.783 78.0729 23.891C78.4329 23.999 78.8049 24.113 79.1889 24.233C79.5729 24.341 79.9389 24.491 80.2869 24.683C80.6349 24.875 80.9169 25.133 81.1329 25.457C81.3609 25.781 81.4749 26.207 81.4749 26.735C81.4749 27.539 81.1869 28.175 80.6109 28.643C80.0469 29.111 79.2849 29.345 78.3249 29.345ZM87.2486 29.345C86.3966 29.345 85.6286 29.153 84.9446 28.769C84.2606 28.373 83.7206 27.839 83.3246 27.167C82.9286 26.495 82.7306 25.733 82.7306 24.881C82.7306 24.041 82.9226 23.285 83.3066 22.613C83.7026 21.941 84.2306 21.413 84.8906 21.029C85.5626 20.633 86.3126 20.435 87.1406 20.435C87.9326 20.435 88.6286 20.615 89.2286 20.975C89.8406 21.335 90.3146 21.833 90.6506 22.469C90.9986 23.105 91.1726 23.825 91.1726 24.629C91.1726 24.749 91.1666 24.881 91.1546 25.025C91.1426 25.157 91.1186 25.313 91.0826 25.493H83.8646V24.143H90.2186L89.6246 24.665C89.6246 24.089 89.5226 23.603 89.3186 23.207C89.1146 22.799 88.8266 22.487 88.4546 22.271C88.0826 22.043 87.6326 21.929 87.1046 21.929C86.5526 21.929 86.0666 22.049 85.6466 22.289C85.2266 22.529 84.9026 22.865 84.6746 23.297C84.4466 23.729 84.3326 24.239 84.3326 24.827C84.3326 25.427 84.4526 25.955 84.6926 26.411C84.9326 26.855 85.2746 27.203 85.7186 27.455C86.1626 27.695 86.6726 27.815 87.2486 27.815C87.7286 27.815 88.1666 27.731 88.5626 27.563C88.9706 27.395 89.3186 27.143 89.6066 26.807L90.6506 27.869C90.2426 28.349 89.7386 28.715 89.1386 28.967C88.5506 29.219 87.9206 29.345 87.2486 29.345ZM96.845 29.345C96.005 29.345 95.243 29.147 94.559 28.751C93.887 28.355 93.353 27.821 92.957 27.149C92.573 26.465 92.381 25.709 92.381 24.881C92.381 24.041 92.573 23.285 92.957 22.613C93.353 21.941 93.887 21.413 94.559 21.029C95.243 20.633 96.005 20.435 96.845 20.435C97.505 20.435 98.117 20.561 98.681 20.813C99.245 21.053 99.731 21.407 100.139 21.875L99.059 22.955C98.795 22.643 98.471 22.409 98.087 22.253C97.715 22.085 97.301 22.001 96.845 22.001C96.305 22.001 95.825 22.127 95.405 22.379C94.985 22.619 94.655 22.955 94.415 23.387C94.175 23.819 94.055 24.317 94.055 24.881C94.055 25.445 94.175 25.943 94.415 26.375C94.655 26.807 94.985 27.149 95.405 27.401C95.825 27.653 96.305 27.779 96.845 27.779C97.301 27.779 97.715 27.701 98.087 27.545C98.471 27.377 98.801 27.137 99.077 26.825L100.139 27.905C99.743 28.361 99.257 28.715 98.681 28.967C98.117 29.219 97.505 29.345 96.845 29.345ZM105.184 29.345C104.488 29.345 103.858 29.189 103.294 28.877C102.742 28.553 102.31 28.109 101.998 27.545C101.686 26.981 101.53 26.327 101.53 25.583V20.615H103.15V25.511C103.15 25.979 103.228 26.387 103.384 26.735C103.552 27.071 103.792 27.329 104.104 27.509C104.416 27.689 104.782 27.779 105.202 27.779C105.838 27.779 106.336 27.581 106.696 27.185C107.056 26.777 107.236 26.219 107.236 25.511V20.615H108.856V25.583C108.856 26.327 108.7 26.981 108.388 27.545C108.076 28.109 107.644 28.553 107.092 28.877C106.552 29.189 105.916 29.345 105.184 29.345ZM112.341 29.165V17.033H113.961V29.165H112.341ZM110.235 22.091V20.615H116.067V22.091H110.235ZM121.296 29.345C120.456 29.345 119.7 29.147 119.028 28.751C118.356 28.355 117.822 27.821 117.426 27.149C117.03 26.465 116.832 25.703 116.832 24.863C116.832 24.035 117.03 23.291 117.426 22.631C117.822 21.959 118.356 21.425 119.028 21.029C119.7 20.633 120.456 20.435 121.296 20.435C122.124 20.435 122.874 20.633 123.546 21.029C124.23 21.413 124.77 21.941 125.166 22.613C125.562 23.285 125.76 24.035 125.76 24.863C125.76 25.703 125.562 26.465 125.166 27.149C124.77 27.821 124.23 28.355 123.546 28.751C122.874 29.147 122.124 29.345 121.296 29.345ZM121.296 27.779C121.836 27.779 122.316 27.653 122.736 27.401C123.156 27.149 123.486 26.807 123.726 26.375C123.966 25.931 124.086 25.427 124.086 24.863C124.086 24.311 123.96 23.819 123.708 23.387C123.468 22.955 123.138 22.619 122.718 22.379C122.31 22.127 121.836 22.001 121.296 22.001C120.756 22.001 120.276 22.127 119.856 22.379C119.436 22.619 119.106 22.955 118.866 23.387C118.626 23.819 118.506 24.311 118.506 24.863C118.506 25.427 118.626 25.931 118.866 26.375C119.106 26.807 119.436 27.149 119.856 27.401C120.276 27.653 120.756 27.779 121.296 27.779ZM127.585 29.165V20.615H129.205V29.165H127.585ZM129.205 24.287L128.593 24.017C128.593 22.925 128.845 22.055 129.349 21.407C129.853 20.759 130.579 20.435 131.527 20.435C131.959 20.435 132.349 20.513 132.697 20.669C133.045 20.813 133.369 21.059 133.669 21.407L132.607 22.505C132.427 22.313 132.229 22.175 132.013 22.091C131.797 22.007 131.545 21.965 131.257 21.965C130.657 21.965 130.165 22.157 129.781 22.541C129.397 22.925 129.205 23.507 129.205 24.287ZM134.828 29.165V20.615H136.448V29.165H134.828ZM135.638 18.905C135.338 18.905 135.092 18.809 134.9 18.617C134.708 18.413 134.612 18.161 134.612 17.861C134.612 17.573 134.708 17.333 134.9 17.141C135.092 16.937 135.338 16.835 135.638 16.835C135.938 16.835 136.184 16.937 136.376 17.141C136.568 17.333 136.664 17.573 136.664 17.861C136.664 18.161 136.568 18.413 136.376 18.617C136.184 18.809 135.938 18.905 135.638 18.905ZM142.471 29.345C141.691 29.345 140.983 29.153 140.347 28.769C139.711 28.373 139.207 27.839 138.835 27.167C138.475 26.495 138.295 25.739 138.295 24.899C138.295 24.059 138.475 23.303 138.835 22.631C139.207 21.959 139.705 21.425 140.329 21.029C140.965 20.633 141.679 20.435 142.471 20.435C143.119 20.435 143.695 20.573 144.199 20.849C144.715 21.113 145.129 21.485 145.441 21.965C145.753 22.433 145.927 22.979 145.963 23.603V26.177C145.927 26.789 145.753 27.335 145.441 27.815C145.141 28.295 144.733 28.673 144.217 28.949C143.713 29.213 143.131 29.345 142.471 29.345ZM142.741 27.815C143.545 27.815 144.193 27.545 144.685 27.005C145.177 26.453 145.423 25.751 145.423 24.899C145.423 24.311 145.309 23.801 145.081 23.369C144.865 22.925 144.553 22.583 144.145 22.343C143.737 22.091 143.263 21.965 142.723 21.965C142.183 21.965 141.703 22.091 141.283 22.343C140.875 22.595 140.551 22.943 140.311 23.387C140.083 23.819 139.969 24.317 139.969 24.881C139.969 25.457 140.083 25.967 140.311 26.411C140.551 26.843 140.881 27.185 141.301 27.437C141.721 27.689 142.201 27.815 142.741 27.815ZM145.315 29.165V26.861L145.621 24.773L145.315 22.703V20.615H146.953V29.165H145.315ZM149.312 29.165V16.313H150.932V29.165H149.312Z" fill="black"/>
<path d="M48.9563 46.165V44.617H52.4303C53.3543 44.617 54.1643 44.419 54.8603 44.023C55.5563 43.615 56.0963 43.057 56.4803 42.349C56.8763 41.641 57.0743 40.825 57.0743 39.901C57.0743 38.989 56.8763 38.179 56.4803 37.471C56.0843 36.763 55.5383 36.211 54.8423 35.815C54.1463 35.419 53.3423 35.221 52.4303 35.221H48.9743V33.673H52.4663C53.3783 33.673 54.2183 33.829 54.9863 34.141C55.7663 34.453 56.4383 34.891 57.0023 35.455C57.5783 36.019 58.0223 36.679 58.3343 37.435C58.6583 38.191 58.8203 39.019 58.8203 39.919C58.8203 40.807 58.6583 41.635 58.3343 42.403C58.0223 43.159 57.5843 43.819 57.0203 44.383C56.4563 44.947 55.7843 45.385 55.0043 45.697C54.2363 46.009 53.4023 46.165 52.5023 46.165H48.9563ZM47.8403 46.165V33.673H49.5323V46.165H47.8403ZM64.5125 46.345C63.7325 46.345 63.0245 46.153 62.3885 45.769C61.7525 45.373 61.2485 44.839 60.8765 44.167C60.5165 43.495 60.3365 42.739 60.3365 41.899C60.3365 41.059 60.5165 40.303 60.8765 39.631C61.2485 38.959 61.7465 38.425 62.3705 38.029C63.0065 37.633 63.7205 37.435 64.5125 37.435C65.1605 37.435 65.7365 37.573 66.2405 37.849C66.7565 38.113 67.1705 38.485 67.4825 38.965C67.7945 39.433 67.9685 39.979 68.0045 40.603V43.177C67.9685 43.789 67.7945 44.335 67.4825 44.815C67.1825 45.295 66.7745 45.673 66.2585 45.949C65.7545 46.213 65.1725 46.345 64.5125 46.345ZM64.7825 44.815C65.5865 44.815 66.2345 44.545 66.7265 44.005C67.2185 43.453 67.4645 42.751 67.4645 41.899C67.4645 41.311 67.3505 40.801 67.1225 40.369C66.9065 39.925 66.5945 39.583 66.1865 39.343C65.7785 39.091 65.3045 38.965 64.7645 38.965C64.2245 38.965 63.7445 39.091 63.3245 39.343C62.9165 39.595 62.5925 39.943 62.3525 40.387C62.1245 40.819 62.0105 41.317 62.0105 41.881C62.0105 42.457 62.1245 42.967 62.3525 43.411C62.5925 43.843 62.9225 44.185 63.3425 44.437C63.7625 44.689 64.2425 44.815 64.7825 44.815ZM67.3565 46.165V43.861L67.6625 41.773L67.3565 39.703V37.615H68.9945V46.165H67.3565ZM74.071 46.345C73.591 46.345 73.135 46.285 72.703 46.165C72.283 46.033 71.893 45.853 71.533 45.625C71.173 45.385 70.861 45.103 70.597 44.779L71.641 43.735C71.953 44.119 72.313 44.407 72.721 44.599C73.129 44.779 73.585 44.869 74.089 44.869C74.593 44.869 74.983 44.785 75.259 44.617C75.535 44.437 75.673 44.191 75.673 43.879C75.673 43.567 75.559 43.327 75.331 43.159C75.115 42.979 74.833 42.835 74.485 42.727C74.137 42.607 73.765 42.493 73.369 42.385C72.985 42.265 72.619 42.115 72.271 41.935C71.923 41.755 71.635 41.509 71.407 41.197C71.191 40.885 71.083 40.471 71.083 39.955C71.083 39.439 71.209 38.995 71.461 38.623C71.713 38.239 72.061 37.945 72.505 37.741C72.961 37.537 73.507 37.435 74.143 37.435C74.815 37.435 75.409 37.555 75.925 37.795C76.453 38.023 76.885 38.371 77.221 38.839L76.177 39.883C75.937 39.571 75.637 39.331 75.277 39.163C74.929 38.995 74.533 38.911 74.089 38.911C73.621 38.911 73.261 38.995 73.009 39.163C72.769 39.319 72.649 39.541 72.649 39.829C72.649 40.117 72.757 40.339 72.973 40.495C73.189 40.651 73.471 40.783 73.819 40.891C74.179 40.999 74.551 41.113 74.935 41.233C75.319 41.341 75.685 41.491 76.033 41.683C76.381 41.875 76.663 42.133 76.879 42.457C77.107 42.781 77.221 43.207 77.221 43.735C77.221 44.539 76.933 45.175 76.357 45.643C75.793 46.111 75.031 46.345 74.071 46.345ZM85.0827 46.165V41.179C85.0827 40.531 84.8787 39.997 84.4707 39.577C84.0627 39.157 83.5347 38.947 82.8867 38.947C82.4547 38.947 82.0707 39.043 81.7347 39.235C81.3987 39.427 81.1347 39.691 80.9427 40.027C80.7507 40.363 80.6547 40.747 80.6547 41.179L79.9887 40.801C79.9887 40.153 80.1327 39.577 80.4207 39.073C80.7087 38.569 81.1107 38.173 81.6267 37.885C82.1427 37.585 82.7247 37.435 83.3727 37.435C84.0207 37.435 84.5907 37.579 85.0827 37.867C85.5867 38.155 85.9827 38.557 86.2707 39.073C86.5587 39.589 86.7027 40.183 86.7027 40.855V46.165H85.0827ZM79.0347 46.165V33.313H80.6547V46.165H79.0347ZM93.396 46.345C92.748 46.345 92.16 46.213 91.632 45.949C91.116 45.673 90.702 45.295 90.39 44.815C90.078 44.335 89.904 43.789 89.868 43.177V40.603C89.904 39.979 90.078 39.433 90.39 38.965C90.714 38.485 91.134 38.113 91.65 37.849C92.178 37.573 92.76 37.435 93.396 37.435C94.176 37.435 94.878 37.633 95.502 38.029C96.138 38.425 96.636 38.959 96.996 39.631C97.356 40.303 97.536 41.059 97.536 41.899C97.536 42.739 97.356 43.495 96.996 44.167C96.636 44.839 96.138 45.373 95.502 45.769C94.878 46.153 94.176 46.345 93.396 46.345ZM93.126 44.815C93.666 44.815 94.14 44.689 94.548 44.437C94.956 44.185 95.28 43.843 95.52 43.411C95.76 42.967 95.88 42.457 95.88 41.881C95.88 41.317 95.76 40.813 95.52 40.369C95.28 39.925 94.956 39.583 94.548 39.343C94.14 39.091 93.672 38.965 93.144 38.965C92.604 38.965 92.13 39.091 91.722 39.343C91.314 39.583 90.996 39.925 90.768 40.369C90.54 40.813 90.426 41.323 90.426 41.899C90.426 42.463 90.534 42.967 90.75 43.411C90.978 43.843 91.296 44.185 91.704 44.437C92.124 44.689 92.598 44.815 93.126 44.815ZM88.896 46.165V33.313H90.516V39.703L90.21 41.773L90.516 43.861V46.165H88.896ZM103.279 46.345C102.439 46.345 101.683 46.147 101.011 45.751C100.339 45.355 99.8046 44.821 99.4086 44.149C99.0126 43.465 98.8146 42.703 98.8146 41.863C98.8146 41.035 99.0126 40.291 99.4086 39.631C99.8046 38.959 100.339 38.425 101.011 38.029C101.683 37.633 102.439 37.435 103.279 37.435C104.107 37.435 104.857 37.633 105.529 38.029C106.213 38.413 106.753 38.941 107.149 39.613C107.545 40.285 107.743 41.035 107.743 41.863C107.743 42.703 107.545 43.465 107.149 44.149C106.753 44.821 106.213 45.355 105.529 45.751C104.857 46.147 104.107 46.345 103.279 46.345ZM103.279 44.779C103.819 44.779 104.299 44.653 104.719 44.401C105.139 44.149 105.469 43.807 105.709 43.375C105.949 42.931 106.069 42.427 106.069 41.863C106.069 41.311 105.943 40.819 105.691 40.387C105.451 39.955 105.121 39.619 104.701 39.379C104.293 39.127 103.819 39.001 103.279 39.001C102.739 39.001 102.259 39.127 101.839 39.379C101.419 39.619 101.089 39.955 100.849 40.387C100.609 40.819 100.489 41.311 100.489 41.863C100.489 42.427 100.609 42.931 100.849 43.375C101.089 43.807 101.419 44.149 101.839 44.401C102.259 44.653 102.739 44.779 103.279 44.779ZM113.204 46.345C112.424 46.345 111.716 46.153 111.08 45.769C110.444 45.373 109.94 44.839 109.568 44.167C109.208 43.495 109.028 42.739 109.028 41.899C109.028 41.059 109.208 40.303 109.568 39.631C109.94 38.959 110.438 38.425 111.062 38.029C111.698 37.633 112.412 37.435 113.204 37.435C113.852 37.435 114.428 37.573 114.932 37.849C115.448 38.113 115.862 38.485 116.174 38.965C116.486 39.433 116.66 39.979 116.696 40.603V43.177C116.66 43.789 116.486 44.335 116.174 44.815C115.874 45.295 115.466 45.673 114.95 45.949C114.446 46.213 113.864 46.345 113.204 46.345ZM113.474 44.815C114.278 44.815 114.926 44.545 115.418 44.005C115.91 43.453 116.156 42.751 116.156 41.899C116.156 41.311 116.042 40.801 115.814 40.369C115.598 39.925 115.286 39.583 114.878 39.343C114.47 39.091 113.996 38.965 113.456 38.965C112.916 38.965 112.436 39.091 112.016 39.343C111.608 39.595 111.284 39.943 111.044 40.387C110.816 40.819 110.702 41.317 110.702 41.881C110.702 42.457 110.816 42.967 111.044 43.411C111.284 43.843 111.614 44.185 112.034 44.437C112.454 44.689 112.934 44.815 113.474 44.815ZM116.048 46.165V43.861L116.354 41.773L116.048 39.703V37.615H117.686V46.165H116.048ZM120.044 46.165V37.615H121.664V46.165H120.044ZM121.664 41.287L121.052 41.017C121.052 39.925 121.304 39.055 121.808 38.407C122.312 37.759 123.038 37.435 123.986 37.435C124.418 37.435 124.808 37.513 125.156 37.669C125.504 37.813 125.828 38.059 126.128 38.407L125.066 39.505C124.886 39.313 124.688 39.175 124.472 39.091C124.256 39.007 124.004 38.965 123.716 38.965C123.116 38.965 122.624 39.157 122.24 39.541C121.856 39.925 121.664 40.507 121.664 41.287ZM130.606 46.345C129.814 46.345 129.106 46.153 128.482 45.769C127.858 45.373 127.36 44.839 126.988 44.167C126.628 43.495 126.448 42.739 126.448 41.899C126.448 41.059 126.628 40.303 126.988 39.631C127.36 38.959 127.858 38.425 128.482 38.029C129.106 37.633 129.814 37.435 130.606 37.435C131.242 37.435 131.818 37.573 132.334 37.849C132.85 38.113 133.264 38.485 133.576 38.965C133.9 39.433 134.08 39.979 134.116 40.603V43.177C134.08 43.789 133.906 44.335 133.594 44.815C133.282 45.295 132.868 45.673 132.352 45.949C131.836 46.213 131.254 46.345 130.606 46.345ZM130.876 44.815C131.416 44.815 131.884 44.689 132.28 44.437C132.688 44.185 133.006 43.843 133.234 43.411C133.462 42.967 133.576 42.463 133.576 41.899C133.576 41.311 133.456 40.801 133.216 40.369C132.988 39.937 132.67 39.595 132.262 39.343C131.866 39.091 131.398 38.965 130.858 38.965C130.318 38.965 129.844 39.091 129.436 39.343C129.028 39.595 128.704 39.943 128.464 40.387C128.236 40.819 128.122 41.317 128.122 41.881C128.122 42.457 128.236 42.967 128.464 43.411C128.704 43.843 129.028 44.185 129.436 44.437C129.856 44.689 130.336 44.815 130.876 44.815ZM135.106 46.165H133.468V43.861L133.774 41.773L133.468 39.703V33.313H135.106V46.165ZM140.182 46.345C139.702 46.345 139.246 46.285 138.814 46.165C138.394 46.033 138.004 45.853 137.644 45.625C137.284 45.385 136.972 45.103 136.708 44.779L137.752 43.735C138.064 44.119 138.424 44.407 138.832 44.599C139.24 44.779 139.696 44.869 140.2 44.869C140.704 44.869 141.094 44.785 141.37 44.617C141.646 44.437 141.784 44.191 141.784 43.879C141.784 43.567 141.67 43.327 141.442 43.159C141.226 42.979 140.944 42.835 140.596 42.727C140.248 42.607 139.876 42.493 139.48 42.385C139.096 42.265 138.73 42.115 138.382 41.935C138.034 41.755 137.746 41.509 137.518 41.197C137.302 40.885 137.194 40.471 137.194 39.955C137.194 39.439 137.32 38.995 137.572 38.623C137.824 38.239 138.172 37.945 138.616 37.741C139.072 37.537 139.618 37.435 140.254 37.435C140.926 37.435 141.52 37.555 142.036 37.795C142.564 38.023 142.996 38.371 143.332 38.839L142.288 39.883C142.048 39.571 141.748 39.331 141.388 39.163C141.04 38.995 140.644 38.911 140.2 38.911C139.732 38.911 139.372 38.995 139.12 39.163C138.88 39.319 138.76 39.541 138.76 39.829C138.76 40.117 138.868 40.339 139.084 40.495C139.3 40.651 139.582 40.783 139.93 40.891C140.29 40.999 140.662 41.113 141.046 41.233C141.43 41.341 141.796 41.491 142.144 41.683C142.492 41.875 142.774 42.133 142.99 42.457C143.218 42.781 143.332 43.207 143.332 43.735C143.332 44.539 143.044 45.175 142.468 45.643C141.904 46.111 141.142 46.345 140.182 46.345Z" fill="black"/>
<path d="M25.7299 21.0104L36.6499 11.1704C33.1599 7.90037 28.4799 5.88037 23.3199 5.88037C12.5499 5.88037 3.81995 14.6104 3.81995 25.3804C3.81995 36.1504 12.5499 44.8804 23.3199 44.8804C30.0499 44.8804 35.9899 41.4704 39.4899 36.2804L25.7299 21.0104Z" fill="black"/>
<path d="M23.3999 42.2104C32.3745 42.2104 39.6499 34.9351 39.6499 25.9604C39.6499 16.9858 32.3745 9.71045 23.3999 9.71045C14.4253 9.71045 7.1499 16.9858 7.1499 25.9604C7.1499 34.9351 14.4253 42.2104 23.3999 42.2104Z" fill="white"/>
<path d="M22.2199 25.9102L31.3299 15.5602C29.1599 13.9402 26.4799 12.9702 23.5699 12.9702C16.3899 12.9702 10.5699 18.7902 10.5699 25.9702C10.5699 33.1502 16.3899 38.9702 23.5699 38.9702C27.1499 38.9702 30.3999 37.5202 32.7499 35.1702L22.2199 25.9102Z" fill="black"/>
<path d="M28.2199 34.1505C26.8099 34.9805 25.1599 35.4604 23.3999 35.4604C18.1499 35.4604 13.8999 31.2104 13.8999 25.9604C13.8999 20.7104 18.1499 16.4604 23.3999 16.4604C25.6799 16.4604 27.7699 17.2605 29.3999 18.6005" fill="white"/>
<path d="M28.2199 34.1505C26.8099 34.9805 25.1599 35.4604 23.3999 35.4604C18.1499 35.4604 13.8999 31.2104 13.8999 25.9604C13.8999 20.7104 18.1499 16.4604 23.3999 16.4604C25.6799 16.4604 27.7699 17.2605 29.3999 18.6005" stroke="black" stroke-width="0.5" stroke-miterlimit="10"/>
<path d="M29.4 18.6006C31.54 20.3406 32.9 22.9906 32.9 25.9606C32.9 29.4506 31.02 32.5006 28.22 34.1506" fill="white"/>
<path d="M29.4 18.6006C31.54 20.3406 32.9 22.9906 32.9 25.9606C32.9 29.4506 31.02 32.5006 28.22 34.1506" stroke="black" stroke-width="0.5" stroke-miterlimit="10"/>
<path d="M23.3999 31.9604C26.7136 31.9604 29.3999 29.2742 29.3999 25.9604C29.3999 22.6467 26.7136 19.9604 23.3999 19.9604C20.0862 19.9604 17.3999 22.6467 17.3999 25.9604C17.3999 29.2742 20.0862 31.9604 23.3999 31.9604Z" fill="black"/>
<path d="M17.42 25.3804H14.45V52.4504H17.42V25.3804Z" fill="white"/>
<path d="M28.84 32.3503L32.73 35.6003L33.59 30.6104L28.84 32.3503Z" fill="black" stroke="black" stroke-miterlimit="10"/>
<path d="M36.4299 33.7804L40.5899 36.6704L41.0199 31.6304L36.4299 33.7804Z" fill="black" stroke="black" stroke-miterlimit="10"/>
</svg>
