<svg width="149" height="52" viewBox="0 0 149 52" fill="none" xmlns="http://www.w3.org/2000/svg">
<path d="M46.9112 11.11C46.3612 11.11 45.8515 11.011 45.3822 10.813C44.9129 10.6077 44.5022 10.3253 44.1502 9.966C43.8055 9.60667 43.5379 9.18867 43.3472 8.712C43.1565 8.23533 43.0612 7.72567 43.0612 7.183C43.0612 6.633 43.1565 6.11967 43.3472 5.643C43.5379 5.16633 43.8055 4.752 44.1502 4.4C44.5022 4.04067 44.9092 3.762 45.3712 3.564C45.8405 3.35867 46.3502 3.256 46.9002 3.256C47.5015 3.256 48.0295 3.35867 48.4842 3.564C48.9389 3.76933 49.3422 4.048 49.6942 4.4L48.9792 5.115C48.7372 4.84367 48.4402 4.631 48.0882 4.477C47.7435 4.323 47.3475 4.246 46.9002 4.246C46.4969 4.246 46.1265 4.31933 45.7892 4.466C45.4519 4.60533 45.1585 4.807 44.9092 5.071C44.6599 5.335 44.4655 5.64667 44.3262 6.006C44.1942 6.36533 44.1282 6.75767 44.1282 7.183C44.1282 7.60833 44.1942 8.00067 44.3262 8.36C44.4655 8.71933 44.6599 9.031 44.9092 9.295C45.1585 9.559 45.4519 9.76433 45.7892 9.911C46.1265 10.0503 46.4969 10.12 46.9002 10.12C47.3769 10.12 47.7912 10.043 48.1432 9.889C48.4952 9.72767 48.7922 9.51133 49.0342 9.24L49.7492 9.944C49.3972 10.3107 48.9829 10.5967 48.5062 10.802C48.0369 11.0073 47.5052 11.11 46.9112 11.11ZM53.0478 11.11C52.5345 11.11 52.0725 10.989 51.6618 10.747C51.2511 10.505 50.9248 10.1787 50.6828 9.768C50.4408 9.35 50.3198 8.88433 50.3198 8.371C50.3198 7.865 50.4408 7.41033 50.6828 7.007C50.9248 6.59633 51.2511 6.27 51.6618 6.028C52.0725 5.786 52.5345 5.665 53.0478 5.665C53.5538 5.665 54.0121 5.786 54.4228 6.028C54.8408 6.26267 55.1708 6.58533 55.4128 6.996C55.6548 7.40667 55.7758 7.865 55.7758 8.371C55.7758 8.88433 55.6548 9.35 55.4128 9.768C55.1708 10.1787 54.8408 10.505 54.4228 10.747C54.0121 10.989 53.5538 11.11 53.0478 11.11ZM53.0478 10.153C53.3778 10.153 53.6711 10.076 53.9278 9.922C54.1845 9.768 54.3861 9.559 54.5328 9.295C54.6795 9.02367 54.7528 8.71567 54.7528 8.371C54.7528 8.03367 54.6758 7.733 54.5218 7.469C54.3751 7.205 54.1735 6.99967 53.9168 6.853C53.6675 6.699 53.3778 6.622 53.0478 6.622C52.7178 6.622 52.4245 6.699 52.1678 6.853C51.9111 6.99967 51.7095 7.205 51.5628 7.469C51.4161 7.733 51.3428 8.03367 51.3428 8.371C51.3428 8.71567 51.4161 9.02367 51.5628 9.295C51.7095 9.559 51.9111 9.768 52.1678 9.922C52.4245 10.076 52.7178 10.153 53.0478 10.153ZM56.8913 11V3.146H57.8813V11H56.8913ZM61.7168 11.11C61.2034 11.11 60.7414 10.989 60.3308 10.747C59.9201 10.505 59.5938 10.1787 59.3518 9.768C59.1098 9.35 58.9888 8.88433 58.9888 8.371C58.9888 7.865 59.1098 7.41033 59.3518 7.007C59.5938 6.59633 59.9201 6.27 60.3308 6.028C60.7414 5.786 61.2034 5.665 61.7168 5.665C62.2228 5.665 62.6811 5.786 63.0918 6.028C63.5098 6.26267 63.8398 6.58533 64.0818 6.996C64.3238 7.40667 64.4448 7.865 64.4448 8.371C64.4448 8.88433 64.3238 9.35 64.0818 9.768C63.8398 10.1787 63.5098 10.505 63.0918 10.747C62.6811 10.989 62.2228 11.11 61.7168 11.11ZM61.7168 10.153C62.0468 10.153 62.3401 10.076 62.5968 9.922C62.8534 9.768 63.0551 9.559 63.2018 9.295C63.3484 9.02367 63.4218 8.71567 63.4218 8.371C63.4218 8.03367 63.3448 7.733 63.1908 7.469C63.0441 7.205 62.8424 6.99967 62.5858 6.853C62.3364 6.699 62.0468 6.622 61.7168 6.622C61.3868 6.622 61.0934 6.699 60.8368 6.853C60.5801 6.99967 60.3784 7.205 60.2318 7.469C60.0851 7.733 60.0118 8.03367 60.0118 8.371C60.0118 8.71567 60.0851 9.02367 60.2318 9.295C60.3784 9.559 60.5801 9.768 60.8368 9.922C61.0934 10.076 61.3868 10.153 61.7168 10.153ZM65.5602 11V5.775H66.5502V11H65.5602ZM66.5502 8.019L66.1762 7.854C66.1762 7.18667 66.3302 6.655 66.6382 6.259C66.9462 5.863 67.3899 5.665 67.9692 5.665C68.2332 5.665 68.4716 5.71267 68.6842 5.808C68.8969 5.896 69.0949 6.04633 69.2782 6.259L68.6292 6.93C68.5192 6.81267 68.3982 6.72833 68.2662 6.677C68.1342 6.62567 67.9802 6.6 67.8042 6.6C67.4376 6.6 67.1369 6.71733 66.9022 6.952C66.6676 7.18667 66.5502 7.54233 66.5502 8.019ZM72.0254 11.11C71.5487 11.11 71.1161 10.9927 70.7274 10.758C70.3387 10.516 70.0307 10.1897 69.8034 9.779C69.5834 9.36833 69.4734 8.90633 69.4734 8.393C69.4734 7.87967 69.5834 7.41767 69.8034 7.007C70.0307 6.59633 70.3351 6.27 70.7164 6.028C71.1051 5.786 71.5414 5.665 72.0254 5.665C72.4214 5.665 72.7734 5.74933 73.0814 5.918C73.3967 6.07933 73.6497 6.30667 73.8404 6.6C74.0311 6.886 74.1374 7.21967 74.1594 7.601V9.174C74.1374 9.548 74.0311 9.88167 73.8404 10.175C73.6571 10.4683 73.4077 10.6993 73.0924 10.868C72.7844 11.0293 72.4287 11.11 72.0254 11.11ZM72.1904 10.175C72.6817 10.175 73.0777 10.01 73.3784 9.68C73.6791 9.34267 73.8294 8.91367 73.8294 8.393C73.8294 8.03367 73.7597 7.722 73.6204 7.458C73.4884 7.18667 73.2977 6.97767 73.0484 6.831C72.7991 6.677 72.5094 6.6 72.1794 6.6C71.8494 6.6 71.5561 6.677 71.2994 6.831C71.0501 6.985 70.8521 7.19767 70.7054 7.469C70.5661 7.733 70.4964 8.03733 70.4964 8.382C70.4964 8.734 70.5661 9.04567 70.7054 9.317C70.8521 9.581 71.0537 9.79 71.3104 9.944C71.5671 10.098 71.8604 10.175 72.1904 10.175ZM73.7634 11V9.592L73.9504 8.316L73.7634 7.051V5.775H74.7644V11H73.7634ZM78.4167 11.11C77.9327 11.11 77.5001 10.9927 77.1187 10.758C76.7374 10.516 76.4331 10.1897 76.2057 9.779C75.9857 9.36833 75.8757 8.90633 75.8757 8.393C75.8757 7.87967 75.9857 7.41767 76.2057 7.007C76.4331 6.59633 76.7374 6.27 77.1187 6.028C77.5001 5.786 77.9327 5.665 78.4167 5.665C78.8054 5.665 79.1574 5.74933 79.4727 5.918C79.7881 6.07933 80.0411 6.30667 80.2317 6.6C80.4297 6.886 80.5397 7.21967 80.5617 7.601V9.174C80.5397 9.548 80.4334 9.88167 80.2427 10.175C80.0521 10.4683 79.7991 10.6993 79.4837 10.868C79.1684 11.0293 78.8127 11.11 78.4167 11.11ZM78.5817 10.175C78.9117 10.175 79.1977 10.098 79.4397 9.944C79.6891 9.79 79.8834 9.581 80.0227 9.317C80.1621 9.04567 80.2317 8.73767 80.2317 8.393C80.2317 8.03367 80.1584 7.722 80.0117 7.458C79.8724 7.194 79.6781 6.985 79.4287 6.831C79.1867 6.677 78.9007 6.6 78.5707 6.6C78.2407 6.6 77.9511 6.677 77.7017 6.831C77.4524 6.985 77.2544 7.19767 77.1077 7.469C76.9684 7.733 76.8987 8.03733 76.8987 8.382C76.8987 8.734 76.9684 9.04567 77.1077 9.317C77.2544 9.581 77.4524 9.79 77.7017 9.944C77.9584 10.098 78.2517 10.175 78.5817 10.175ZM81.1667 11H80.1657V9.592L80.3527 8.316L80.1657 7.051V3.146H81.1667V11ZM84.9951 11.11C84.4817 11.11 84.0197 10.989 83.6091 10.747C83.1984 10.505 82.8721 10.1787 82.6301 9.768C82.3881 9.35 82.2671 8.88433 82.2671 8.371C82.2671 7.865 82.3881 7.41033 82.6301 7.007C82.8721 6.59633 83.1984 6.27 83.6091 6.028C84.0197 5.786 84.4817 5.665 84.9951 5.665C85.5011 5.665 85.9594 5.786 86.3701 6.028C86.7881 6.26267 87.1181 6.58533 87.3601 6.996C87.6021 7.40667 87.7231 7.865 87.7231 8.371C87.7231 8.88433 87.6021 9.35 87.3601 9.768C87.1181 10.1787 86.7881 10.505 86.3701 10.747C85.9594 10.989 85.5011 11.11 84.9951 11.11ZM84.9951 10.153C85.3251 10.153 85.6184 10.076 85.8751 9.922C86.1317 9.768 86.3334 9.559 86.4801 9.295C86.6267 9.02367 86.7001 8.71567 86.7001 8.371C86.7001 8.03367 86.6231 7.733 86.4691 7.469C86.3224 7.205 86.1207 6.99967 85.8641 6.853C85.6147 6.699 85.3251 6.622 84.9951 6.622C84.6651 6.622 84.3717 6.699 84.1151 6.853C83.8584 6.99967 83.6567 7.205 83.5101 7.469C83.3634 7.733 83.2901 8.03367 83.2901 8.371C83.2901 8.71567 83.3634 9.02367 83.5101 9.295C83.6567 9.559 83.8584 9.768 84.1151 9.922C84.3717 10.076 84.6651 10.153 84.9951 10.153Z" fill="#FFFBF1"/>
<path d="M45.1542 23.14V21.664H48.5562C49.0242 21.664 49.4382 21.568 49.7982 21.376C50.1702 21.184 50.4582 20.914 50.6622 20.566C50.8782 20.218 50.9862 19.804 50.9862 19.324C50.9862 18.844 50.8782 18.43 50.6622 18.082C50.4582 17.734 50.1702 17.464 49.7982 17.272C49.4382 17.08 49.0242 16.984 48.5562 16.984H45.1542V15.508H48.6642C49.4322 15.508 50.1162 15.664 50.7162 15.976C51.3282 16.288 51.8082 16.732 52.1562 17.308C52.5162 17.872 52.6962 18.544 52.6962 19.324C52.6962 20.092 52.5162 20.764 52.1562 21.34C51.8082 21.904 51.3282 22.348 50.7162 22.672C50.1162 22.984 49.4322 23.14 48.6642 23.14H45.1542ZM44.0202 28V15.508H45.7122V28H44.0202ZM54.6482 28V19.45H56.2682V28H54.6482ZM56.2682 23.122L55.6562 22.852C55.6562 21.76 55.9082 20.89 56.4122 20.242C56.9162 19.594 57.6422 19.27 58.5902 19.27C59.0222 19.27 59.4122 19.348 59.7602 19.504C60.1082 19.648 60.4322 19.894 60.7322 20.242L59.6702 21.34C59.4902 21.148 59.2922 21.01 59.0762 20.926C58.8602 20.842 58.6082 20.8 58.3202 20.8C57.7202 20.8 57.2282 20.992 56.8442 21.376C56.4602 21.76 56.2682 22.342 56.2682 23.122ZM65.4976 28.18C64.6576 28.18 63.9016 27.982 63.2296 27.586C62.5576 27.19 62.0236 26.656 61.6276 25.984C61.2316 25.3 61.0336 24.538 61.0336 23.698C61.0336 22.87 61.2316 22.126 61.6276 21.466C62.0236 20.794 62.5576 20.26 63.2296 19.864C63.9016 19.468 64.6576 19.27 65.4976 19.27C66.3256 19.27 67.0756 19.468 67.7476 19.864C68.4316 20.248 68.9716 20.776 69.3676 21.448C69.7636 22.12 69.9616 22.87 69.9616 23.698C69.9616 24.538 69.7636 25.3 69.3676 25.984C68.9716 26.656 68.4316 27.19 67.7476 27.586C67.0756 27.982 66.3256 28.18 65.4976 28.18ZM65.4976 26.614C66.0376 26.614 66.5176 26.488 66.9376 26.236C67.3576 25.984 67.6876 25.642 67.9276 25.21C68.1676 24.766 68.2876 24.262 68.2876 23.698C68.2876 23.146 68.1616 22.654 67.9096 22.222C67.6696 21.79 67.3396 21.454 66.9196 21.214C66.5116 20.962 66.0376 20.836 65.4976 20.836C64.9576 20.836 64.4776 20.962 64.0576 21.214C63.6376 21.454 63.3076 21.79 63.0676 22.222C62.8276 22.654 62.7076 23.146 62.7076 23.698C62.7076 24.262 62.8276 24.766 63.0676 25.21C63.3076 25.642 63.6376 25.984 64.0576 26.236C64.4776 26.488 64.9576 26.614 65.4976 26.614ZM74.5049 28.18C74.0249 28.18 73.5689 28.12 73.1369 28C72.7169 27.868 72.3269 27.688 71.9669 27.46C71.6069 27.22 71.2949 26.938 71.0309 26.614L72.0749 25.57C72.3869 25.954 72.7469 26.242 73.1549 26.434C73.5629 26.614 74.0189 26.704 74.5229 26.704C75.0269 26.704 75.4169 26.62 75.6929 26.452C75.9689 26.272 76.1069 26.026 76.1069 25.714C76.1069 25.402 75.9929 25.162 75.7649 24.994C75.5489 24.814 75.2669 24.67 74.9189 24.562C74.5709 24.442 74.1989 24.328 73.8029 24.22C73.4189 24.1 73.0529 23.95 72.7049 23.77C72.3569 23.59 72.0689 23.344 71.8409 23.032C71.6249 22.72 71.5169 22.306 71.5169 21.79C71.5169 21.274 71.6429 20.83 71.8949 20.458C72.1469 20.074 72.4949 19.78 72.9389 19.576C73.3949 19.372 73.9409 19.27 74.5769 19.27C75.2489 19.27 75.8429 19.39 76.3589 19.63C76.8869 19.858 77.3189 20.206 77.6549 20.674L76.6109 21.718C76.3709 21.406 76.0709 21.166 75.7109 20.998C75.3629 20.83 74.9669 20.746 74.5229 20.746C74.0549 20.746 73.6949 20.83 73.4429 20.998C73.2029 21.154 73.0829 21.376 73.0829 21.664C73.0829 21.952 73.1909 22.174 73.4069 22.33C73.6229 22.486 73.9049 22.618 74.2529 22.726C74.6129 22.834 74.9849 22.948 75.3689 23.068C75.7529 23.176 76.1189 23.326 76.4669 23.518C76.8149 23.71 77.0969 23.968 77.3129 24.292C77.5409 24.616 77.6549 25.042 77.6549 25.57C77.6549 26.374 77.3669 27.01 76.7909 27.478C76.2269 27.946 75.4649 28.18 74.5049 28.18ZM83.4285 28.18C82.5765 28.18 81.8085 27.988 81.1245 27.604C80.4405 27.208 79.9005 26.674 79.5045 26.002C79.1085 25.33 78.9105 24.568 78.9105 23.716C78.9105 22.876 79.1025 22.12 79.4865 21.448C79.8825 20.776 80.4105 20.248 81.0705 19.864C81.7425 19.468 82.4925 19.27 83.3205 19.27C84.1125 19.27 84.8085 19.45 85.4085 19.81C86.0205 20.17 86.4945 20.668 86.8305 21.304C87.1785 21.94 87.3525 22.66 87.3525 23.464C87.3525 23.584 87.3465 23.716 87.3345 23.86C87.3225 23.992 87.2985 24.148 87.2625 24.328H80.0445V22.978H86.3985L85.8045 23.5C85.8045 22.924 85.7025 22.438 85.4985 22.042C85.2945 21.634 85.0065 21.322 84.6345 21.106C84.2625 20.878 83.8125 20.764 83.2845 20.764C82.7325 20.764 82.2465 20.884 81.8265 21.124C81.4065 21.364 81.0825 21.7 80.8545 22.132C80.6265 22.564 80.5125 23.074 80.5125 23.662C80.5125 24.262 80.6325 24.79 80.8725 25.246C81.1125 25.69 81.4545 26.038 81.8985 26.29C82.3425 26.53 82.8525 26.65 83.4285 26.65C83.9085 26.65 84.3465 26.566 84.7425 26.398C85.1505 26.23 85.4985 25.978 85.7865 25.642L86.8305 26.704C86.4225 27.184 85.9185 27.55 85.3185 27.802C84.7305 28.054 84.1005 28.18 83.4285 28.18ZM93.0249 28.18C92.1849 28.18 91.4229 27.982 90.7389 27.586C90.0669 27.19 89.5329 26.656 89.1369 25.984C88.7529 25.3 88.5609 24.544 88.5609 23.716C88.5609 22.876 88.7529 22.12 89.1369 21.448C89.5329 20.776 90.0669 20.248 90.7389 19.864C91.4229 19.468 92.1849 19.27 93.0249 19.27C93.6849 19.27 94.2969 19.396 94.8609 19.648C95.4249 19.888 95.9109 20.242 96.3189 20.71L95.2389 21.79C94.9749 21.478 94.6509 21.244 94.2669 21.088C93.8949 20.92 93.4809 20.836 93.0249 20.836C92.4849 20.836 92.0049 20.962 91.5849 21.214C91.1649 21.454 90.8349 21.79 90.5949 22.222C90.3549 22.654 90.2349 23.152 90.2349 23.716C90.2349 24.28 90.3549 24.778 90.5949 25.21C90.8349 25.642 91.1649 25.984 91.5849 26.236C92.0049 26.488 92.4849 26.614 93.0249 26.614C93.4809 26.614 93.8949 26.536 94.2669 26.38C94.6509 26.212 94.9809 25.972 95.2569 25.66L96.3189 26.74C95.9229 27.196 95.4369 27.55 94.8609 27.802C94.2969 28.054 93.6849 28.18 93.0249 28.18ZM101.364 28.18C100.668 28.18 100.038 28.024 99.4735 27.712C98.9215 27.388 98.4895 26.944 98.1775 26.38C97.8655 25.816 97.7095 25.162 97.7095 24.418V19.45H99.3295V24.346C99.3295 24.814 99.4075 25.222 99.5635 25.57C99.7315 25.906 99.9715 26.164 100.284 26.344C100.596 26.524 100.962 26.614 101.382 26.614C102.018 26.614 102.516 26.416 102.876 26.02C103.236 25.612 103.416 25.054 103.416 24.346V19.45H105.036V24.418C105.036 25.162 104.88 25.816 104.568 26.38C104.256 26.944 103.824 27.388 103.272 27.712C102.732 28.024 102.096 28.18 101.364 28.18ZM108.521 28V15.868H110.141V28H108.521ZM106.415 20.926V19.45H112.247V20.926H106.415ZM117.476 28.18C116.636 28.18 115.88 27.982 115.208 27.586C114.536 27.19 114.002 26.656 113.606 25.984C113.21 25.3 113.012 24.538 113.012 23.698C113.012 22.87 113.21 22.126 113.606 21.466C114.002 20.794 114.536 20.26 115.208 19.864C115.88 19.468 116.636 19.27 117.476 19.27C118.304 19.27 119.054 19.468 119.726 19.864C120.41 20.248 120.95 20.776 121.346 21.448C121.742 22.12 121.94 22.87 121.94 23.698C121.94 24.538 121.742 25.3 121.346 25.984C120.95 26.656 120.41 27.19 119.726 27.586C119.054 27.982 118.304 28.18 117.476 28.18ZM117.476 26.614C118.016 26.614 118.496 26.488 118.916 26.236C119.336 25.984 119.666 25.642 119.906 25.21C120.146 24.766 120.266 24.262 120.266 23.698C120.266 23.146 120.14 22.654 119.888 22.222C119.648 21.79 119.318 21.454 118.898 21.214C118.49 20.962 118.016 20.836 117.476 20.836C116.936 20.836 116.456 20.962 116.036 21.214C115.616 21.454 115.286 21.79 115.046 22.222C114.806 22.654 114.686 23.146 114.686 23.698C114.686 24.262 114.806 24.766 115.046 25.21C115.286 25.642 115.616 25.984 116.036 26.236C116.456 26.488 116.936 26.614 117.476 26.614ZM123.765 28V19.45H125.385V28H123.765ZM125.385 23.122L124.773 22.852C124.773 21.76 125.025 20.89 125.529 20.242C126.033 19.594 126.759 19.27 127.707 19.27C128.139 19.27 128.529 19.348 128.877 19.504C129.225 19.648 129.549 19.894 129.849 20.242L128.787 21.34C128.607 21.148 128.409 21.01 128.193 20.926C127.977 20.842 127.725 20.8 127.437 20.8C126.837 20.8 126.345 20.992 125.961 21.376C125.577 21.76 125.385 22.342 125.385 23.122ZM131.008 28V19.45H132.628V28H131.008ZM131.818 17.74C131.518 17.74 131.272 17.644 131.08 17.452C130.888 17.248 130.792 16.996 130.792 16.696C130.792 16.408 130.888 16.168 131.08 15.976C131.272 15.772 131.518 15.67 131.818 15.67C132.118 15.67 132.364 15.772 132.556 15.976C132.748 16.168 132.844 16.408 132.844 16.696C132.844 16.996 132.748 17.248 132.556 17.452C132.364 17.644 132.118 17.74 131.818 17.74ZM138.651 28.18C137.871 28.18 137.163 27.988 136.527 27.604C135.891 27.208 135.387 26.674 135.015 26.002C134.655 25.33 134.475 24.574 134.475 23.734C134.475 22.894 134.655 22.138 135.015 21.466C135.387 20.794 135.885 20.26 136.509 19.864C137.145 19.468 137.859 19.27 138.651 19.27C139.299 19.27 139.875 19.408 140.379 19.684C140.895 19.948 141.309 20.32 141.621 20.8C141.933 21.268 142.107 21.814 142.143 22.438V25.012C142.107 25.624 141.933 26.17 141.621 26.65C141.321 27.13 140.913 27.508 140.397 27.784C139.893 28.048 139.311 28.18 138.651 28.18ZM138.921 26.65C139.725 26.65 140.373 26.38 140.865 25.84C141.357 25.288 141.603 24.586 141.603 23.734C141.603 23.146 141.489 22.636 141.261 22.204C141.045 21.76 140.733 21.418 140.325 21.178C139.917 20.926 139.443 20.8 138.903 20.8C138.363 20.8 137.883 20.926 137.463 21.178C137.055 21.43 136.731 21.778 136.491 22.222C136.263 22.654 136.149 23.152 136.149 23.716C136.149 24.292 136.263 24.802 136.491 25.246C136.731 25.678 137.061 26.02 137.481 26.272C137.901 26.524 138.381 26.65 138.921 26.65ZM141.495 28V25.696L141.801 23.608L141.495 21.538V19.45H143.133V28H141.495ZM145.492 28V15.148H147.112V28H145.492Z" fill="#FFFBF1"/>
<path d="M45.1362 45V43.452H48.6102C49.5342 43.452 50.3442 43.254 51.0402 42.858C51.7362 42.45 52.2762 41.892 52.6602 41.184C53.0562 40.476 53.2542 39.66 53.2542 38.736C53.2542 37.824 53.0562 37.014 52.6602 36.306C52.2642 35.598 51.7182 35.046 51.0222 34.65C50.3262 34.254 49.5222 34.056 48.6102 34.056H45.1542V32.508H48.6462C49.5582 32.508 50.3982 32.664 51.1662 32.976C51.9462 33.288 52.6182 33.726 53.1822 34.29C53.7582 34.854 54.2022 35.514 54.5142 36.27C54.8382 37.026 55.0002 37.854 55.0002 38.754C55.0002 39.642 54.8382 40.47 54.5142 41.238C54.2022 41.994 53.7642 42.654 53.2002 43.218C52.6362 43.782 51.9642 44.22 51.1842 44.532C50.4162 44.844 49.5822 45 48.6822 45H45.1362ZM44.0202 45V32.508H45.7122V45H44.0202ZM60.6924 45.18C59.9124 45.18 59.2044 44.988 58.5684 44.604C57.9324 44.208 57.4284 43.674 57.0564 43.002C56.6964 42.33 56.5164 41.574 56.5164 40.734C56.5164 39.894 56.6964 39.138 57.0564 38.466C57.4284 37.794 57.9264 37.26 58.5504 36.864C59.1864 36.468 59.9004 36.27 60.6924 36.27C61.3404 36.27 61.9164 36.408 62.4204 36.684C62.9364 36.948 63.3504 37.32 63.6624 37.8C63.9744 38.268 64.1484 38.814 64.1844 39.438V42.012C64.1484 42.624 63.9744 43.17 63.6624 43.65C63.3624 44.13 62.9544 44.508 62.4384 44.784C61.9344 45.048 61.3524 45.18 60.6924 45.18ZM60.9624 43.65C61.7664 43.65 62.4144 43.38 62.9064 42.84C63.3984 42.288 63.6444 41.586 63.6444 40.734C63.6444 40.146 63.5304 39.636 63.3024 39.204C63.0864 38.76 62.7744 38.418 62.3664 38.178C61.9584 37.926 61.4844 37.8 60.9444 37.8C60.4044 37.8 59.9244 37.926 59.5044 38.178C59.0964 38.43 58.7724 38.778 58.5324 39.222C58.3044 39.654 58.1904 40.152 58.1904 40.716C58.1904 41.292 58.3044 41.802 58.5324 42.246C58.7724 42.678 59.1024 43.02 59.5224 43.272C59.9424 43.524 60.4224 43.65 60.9624 43.65ZM63.5364 45V42.696L63.8424 40.608L63.5364 38.538V36.45H65.1744V45H63.5364ZM70.251 45.18C69.771 45.18 69.315 45.12 68.883 45C68.463 44.868 68.073 44.688 67.713 44.46C67.353 44.22 67.041 43.938 66.777 43.614L67.821 42.57C68.133 42.954 68.493 43.242 68.901 43.434C69.309 43.614 69.765 43.704 70.269 43.704C70.773 43.704 71.163 43.62 71.439 43.452C71.715 43.272 71.853 43.026 71.853 42.714C71.853 42.402 71.739 42.162 71.511 41.994C71.295 41.814 71.013 41.67 70.665 41.562C70.317 41.442 69.945 41.328 69.549 41.22C69.165 41.1 68.799 40.95 68.451 40.77C68.103 40.59 67.815 40.344 67.587 40.032C67.371 39.72 67.263 39.306 67.263 38.79C67.263 38.274 67.389 37.83 67.641 37.458C67.893 37.074 68.241 36.78 68.685 36.576C69.141 36.372 69.687 36.27 70.323 36.27C70.995 36.27 71.589 36.39 72.105 36.63C72.633 36.858 73.065 37.206 73.401 37.674L72.357 38.718C72.117 38.406 71.817 38.166 71.457 37.998C71.109 37.83 70.713 37.746 70.269 37.746C69.801 37.746 69.441 37.83 69.189 37.998C68.949 38.154 68.829 38.376 68.829 38.664C68.829 38.952 68.937 39.174 69.153 39.33C69.369 39.486 69.651 39.618 69.999 39.726C70.359 39.834 70.731 39.948 71.115 40.068C71.499 40.176 71.865 40.326 72.213 40.518C72.561 40.71 72.843 40.968 73.059 41.292C73.287 41.616 73.401 42.042 73.401 42.57C73.401 43.374 73.113 44.01 72.537 44.478C71.973 44.946 71.211 45.18 70.251 45.18ZM81.2626 45V40.014C81.2626 39.366 81.0586 38.832 80.6506 38.412C80.2426 37.992 79.7146 37.782 79.0666 37.782C78.6346 37.782 78.2506 37.878 77.9146 38.07C77.5786 38.262 77.3146 38.526 77.1226 38.862C76.9306 39.198 76.8346 39.582 76.8346 40.014L76.1686 39.636C76.1686 38.988 76.3126 38.412 76.6006 37.908C76.8886 37.404 77.2906 37.008 77.8066 36.72C78.3226 36.42 78.9046 36.27 79.5526 36.27C80.2006 36.27 80.7706 36.414 81.2626 36.702C81.7666 36.99 82.1626 37.392 82.4506 37.908C82.7386 38.424 82.8826 39.018 82.8826 39.69V45H81.2626ZM75.2146 45V32.148H76.8346V45H75.2146ZM89.5759 45.18C88.9279 45.18 88.3399 45.048 87.8119 44.784C87.2959 44.508 86.8819 44.13 86.5699 43.65C86.2579 43.17 86.0839 42.624 86.0479 42.012V39.438C86.0839 38.814 86.2579 38.268 86.5699 37.8C86.8939 37.32 87.3139 36.948 87.8299 36.684C88.3579 36.408 88.9399 36.27 89.5759 36.27C90.3559 36.27 91.0579 36.468 91.6819 36.864C92.3179 37.26 92.8159 37.794 93.1759 38.466C93.5359 39.138 93.7159 39.894 93.7159 40.734C93.7159 41.574 93.5359 42.33 93.1759 43.002C92.8159 43.674 92.3179 44.208 91.6819 44.604C91.0579 44.988 90.3559 45.18 89.5759 45.18ZM89.3059 43.65C89.8459 43.65 90.3199 43.524 90.7279 43.272C91.1359 43.02 91.4599 42.678 91.6999 42.246C91.9399 41.802 92.0599 41.292 92.0599 40.716C92.0599 40.152 91.9399 39.648 91.6999 39.204C91.4599 38.76 91.1359 38.418 90.7279 38.178C90.3199 37.926 89.8519 37.8 89.3239 37.8C88.7839 37.8 88.3099 37.926 87.9019 38.178C87.4939 38.418 87.1759 38.76 86.9479 39.204C86.7199 39.648 86.6059 40.158 86.6059 40.734C86.6059 41.298 86.7139 41.802 86.9299 42.246C87.1579 42.678 87.4759 43.02 87.8839 43.272C88.3039 43.524 88.7779 43.65 89.3059 43.65ZM85.0759 45V32.148H86.6959V38.538L86.3899 40.608L86.6959 42.696V45H85.0759ZM99.4585 45.18C98.6185 45.18 97.8625 44.982 97.1905 44.586C96.5185 44.19 95.9845 43.656 95.5885 42.984C95.1925 42.3 94.9945 41.538 94.9945 40.698C94.9945 39.87 95.1925 39.126 95.5885 38.466C95.9845 37.794 96.5185 37.26 97.1905 36.864C97.8625 36.468 98.6185 36.27 99.4585 36.27C100.287 36.27 101.037 36.468 101.709 36.864C102.393 37.248 102.933 37.776 103.329 38.448C103.725 39.12 103.923 39.87 103.923 40.698C103.923 41.538 103.725 42.3 103.329 42.984C102.933 43.656 102.393 44.19 101.709 44.586C101.037 44.982 100.287 45.18 99.4585 45.18ZM99.4585 43.614C99.9985 43.614 100.479 43.488 100.899 43.236C101.319 42.984 101.649 42.642 101.889 42.21C102.129 41.766 102.249 41.262 102.249 40.698C102.249 40.146 102.123 39.654 101.871 39.222C101.631 38.79 101.301 38.454 100.881 38.214C100.473 37.962 99.9985 37.836 99.4585 37.836C98.9185 37.836 98.4385 37.962 98.0185 38.214C97.5985 38.454 97.2685 38.79 97.0285 39.222C96.7885 39.654 96.6685 40.146 96.6685 40.698C96.6685 41.262 96.7885 41.766 97.0285 42.21C97.2685 42.642 97.5985 42.984 98.0185 43.236C98.4385 43.488 98.9185 43.614 99.4585 43.614ZM109.384 45.18C108.604 45.18 107.896 44.988 107.26 44.604C106.624 44.208 106.12 43.674 105.748 43.002C105.388 42.33 105.208 41.574 105.208 40.734C105.208 39.894 105.388 39.138 105.748 38.466C106.12 37.794 106.618 37.26 107.242 36.864C107.878 36.468 108.592 36.27 109.384 36.27C110.032 36.27 110.608 36.408 111.112 36.684C111.628 36.948 112.042 37.32 112.354 37.8C112.666 38.268 112.84 38.814 112.876 39.438V42.012C112.84 42.624 112.666 43.17 112.354 43.65C112.054 44.13 111.646 44.508 111.13 44.784C110.626 45.048 110.044 45.18 109.384 45.18ZM109.654 43.65C110.458 43.65 111.106 43.38 111.598 42.84C112.09 42.288 112.336 41.586 112.336 40.734C112.336 40.146 112.222 39.636 111.994 39.204C111.778 38.76 111.466 38.418 111.058 38.178C110.65 37.926 110.176 37.8 109.636 37.8C109.096 37.8 108.616 37.926 108.196 38.178C107.788 38.43 107.464 38.778 107.224 39.222C106.996 39.654 106.882 40.152 106.882 40.716C106.882 41.292 106.996 41.802 107.224 42.246C107.464 42.678 107.794 43.02 108.214 43.272C108.634 43.524 109.114 43.65 109.654 43.65ZM112.228 45V42.696L112.534 40.608L112.228 38.538V36.45H113.866V45H112.228ZM116.224 45V36.45H117.844V45H116.224ZM117.844 40.122L117.232 39.852C117.232 38.76 117.484 37.89 117.988 37.242C118.492 36.594 119.218 36.27 120.166 36.27C120.598 36.27 120.988 36.348 121.336 36.504C121.684 36.648 122.008 36.894 122.308 37.242L121.246 38.34C121.066 38.148 120.868 38.01 120.652 37.926C120.436 37.842 120.184 37.8 119.896 37.8C119.296 37.8 118.804 37.992 118.42 38.376C118.036 38.76 117.844 39.342 117.844 40.122ZM126.786 45.18C125.994 45.18 125.286 44.988 124.662 44.604C124.038 44.208 123.54 43.674 123.168 43.002C122.808 42.33 122.628 41.574 122.628 40.734C122.628 39.894 122.808 39.138 123.168 38.466C123.54 37.794 124.038 37.26 124.662 36.864C125.286 36.468 125.994 36.27 126.786 36.27C127.422 36.27 127.998 36.408 128.514 36.684C129.03 36.948 129.444 37.32 129.756 37.8C130.08 38.268 130.26 38.814 130.296 39.438V42.012C130.26 42.624 130.086 43.17 129.774 43.65C129.462 44.13 129.048 44.508 128.532 44.784C128.016 45.048 127.434 45.18 126.786 45.18ZM127.056 43.65C127.596 43.65 128.064 43.524 128.46 43.272C128.868 43.02 129.186 42.678 129.414 42.246C129.642 41.802 129.756 41.298 129.756 40.734C129.756 40.146 129.636 39.636 129.396 39.204C129.168 38.772 128.85 38.43 128.442 38.178C128.046 37.926 127.578 37.8 127.038 37.8C126.498 37.8 126.024 37.926 125.616 38.178C125.208 38.43 124.884 38.778 124.644 39.222C124.416 39.654 124.302 40.152 124.302 40.716C124.302 41.292 124.416 41.802 124.644 42.246C124.884 42.678 125.208 43.02 125.616 43.272C126.036 43.524 126.516 43.65 127.056 43.65ZM131.286 45H129.648V42.696L129.954 40.608L129.648 38.538V32.148H131.286V45ZM136.362 45.18C135.882 45.18 135.426 45.12 134.994 45C134.574 44.868 134.184 44.688 133.824 44.46C133.464 44.22 133.152 43.938 132.888 43.614L133.932 42.57C134.244 42.954 134.604 43.242 135.012 43.434C135.42 43.614 135.876 43.704 136.38 43.704C136.884 43.704 137.274 43.62 137.55 43.452C137.826 43.272 137.964 43.026 137.964 42.714C137.964 42.402 137.85 42.162 137.622 41.994C137.406 41.814 137.124 41.67 136.776 41.562C136.428 41.442 136.056 41.328 135.66 41.22C135.276 41.1 134.91 40.95 134.562 40.77C134.214 40.59 133.926 40.344 133.698 40.032C133.482 39.72 133.374 39.306 133.374 38.79C133.374 38.274 133.5 37.83 133.752 37.458C134.004 37.074 134.352 36.78 134.796 36.576C135.252 36.372 135.798 36.27 136.434 36.27C137.106 36.27 137.7 36.39 138.216 36.63C138.744 36.858 139.176 37.206 139.512 37.674L138.468 38.718C138.228 38.406 137.928 38.166 137.568 37.998C137.22 37.83 136.824 37.746 136.38 37.746C135.912 37.746 135.552 37.83 135.3 37.998C135.06 38.154 134.94 38.376 134.94 38.664C134.94 38.952 135.048 39.174 135.264 39.33C135.48 39.486 135.762 39.618 136.11 39.726C136.47 39.834 136.842 39.948 137.226 40.068C137.61 40.176 137.976 40.326 138.324 40.518C138.672 40.71 138.954 40.968 139.17 41.292C139.398 41.616 139.512 42.042 139.512 42.57C139.512 43.374 139.224 44.01 138.648 44.478C138.084 44.946 137.322 45.18 136.362 45.18Z" fill="#FFFBF1"/>
<path d="M21.91 19.8453L32.83 10.0053C29.34 6.73533 24.66 4.71533 19.5 4.71533C8.73 4.71533 0 13.4453 0 24.2153C0 34.9853 8.73 43.7153 19.5 43.7153C26.23 43.7153 32.17 40.3053 35.67 35.1153L21.91 19.8453Z" fill="#FFFBF1"/>
<path d="M19.58 41.0454C28.5546 41.0454 35.83 33.77 35.83 24.7954C35.83 15.8208 28.5546 8.54541 19.58 8.54541C10.6053 8.54541 3.32996 15.8208 3.32996 24.7954C3.32996 33.77 10.6053 41.0454 19.58 41.0454Z" fill="#40128B"/>
<path d="M18.4 24.7452L27.51 14.3952C25.34 12.7752 22.66 11.8052 19.75 11.8052C12.57 11.8052 6.75 17.6252 6.75 24.8052C6.75 31.9852 12.57 37.8052 19.75 37.8052C23.33 37.8052 26.58 36.3552 28.93 34.0052L18.4 24.7452Z" fill="#FFFBF1"/>
<path d="M24.4 32.9854C22.99 33.8154 21.34 34.2954 19.58 34.2954C14.33 34.2954 10.08 30.0454 10.08 24.7954C10.08 19.5454 14.33 15.2954 19.58 15.2954C21.86 15.2954 23.95 16.0954 25.58 17.4354" fill="#40128B"/>
<path d="M24.4 32.9854C22.99 33.8154 21.34 34.2954 19.58 34.2954C14.33 34.2954 10.08 30.0454 10.08 24.7954C10.08 19.5454 14.33 15.2954 19.58 15.2954C21.86 15.2954 23.95 16.0954 25.58 17.4354" stroke="#FFFBF1" stroke-width="0.5" stroke-miterlimit="10"/>
<path d="M25.5799 17.4355C27.7199 19.1755 29.0799 21.8255 29.0799 24.7955C29.0799 28.2855 27.1999 31.3355 24.3999 32.9855" fill="#40128B"/>
<path d="M25.5799 17.4355C27.7199 19.1755 29.0799 21.8255 29.0799 24.7955C29.0799 28.2855 27.1999 31.3355 24.3999 32.9855" stroke="#FFFBF1" stroke-width="0.5" stroke-miterlimit="10"/>
<path d="M19.58 30.7954C22.8937 30.7954 25.58 28.1091 25.58 24.7954C25.58 21.4817 22.8937 18.7954 19.58 18.7954C16.2662 18.7954 13.58 21.4817 13.58 24.7954C13.58 28.1091 16.2662 30.7954 19.58 30.7954Z" fill="#FFFBF1"/>
<path d="M13.6 24.2153H10.63V51.2853H13.6V24.2153Z" fill="#40128B"/>
<path d="M25.02 31.1853L28.91 34.4353L29.77 29.4453L25.02 31.1853Z" fill="#FFFBF1" stroke="#FFFBF1" stroke-miterlimit="10"/>
<path d="M32.6101 32.6153L36.7701 35.5053L37.2001 30.4653L32.6101 32.6153Z" fill="#FFFBF1" stroke="#FFFBF1" stroke-miterlimit="10"/>
</svg>
