<?xml version="1.0" encoding="UTF-8"?><svg id="Layer_2" xmlns="http://www.w3.org/2000/svg" viewBox="0 0 209.34 25.83"><defs><style>.cls-1,.cls-2{fill:#fff;}.cls-3{fill:#836eaa;}.cls-2{fill-rule:evenodd;}</style></defs><g id="Layer_1-2"><g><g><g><path class="cls-1" d="M35.82,19.44c-2.16,0-3.92-1.73-3.92-3.85v-4.27c0-2.12,1.76-3.85,3.92-3.85h1.91c2.16,0,3.92,1.73,3.92,3.85h-2.44c0-.8-.67-1.46-1.48-1.46h-1.91c-.82,0-1.48,.65-1.48,1.46v4.27c0,.8,.67,1.46,1.48,1.46h1.91c.82,0,1.48-.65,1.48-1.46h2.44c0,2.12-1.76,3.85-3.92,3.85h-1.91Z"/><path class="cls-1" d="M52.6,13.93v1.42c0,2.25-1.86,4.08-4.15,4.08h-1.45c-2.29,0-4.15-1.83-4.15-4.08v-1.42c0-2.25,1.86-4.08,4.15-4.08h1.45c2.29,0,4.15,1.83,4.15,4.08Zm-2.44,0c0-.93-.77-1.68-1.72-1.68h-1.45c-.95,0-1.72,.76-1.72,1.68v1.42c0,.93,.77,1.69,1.72,1.69h1.45c.95,0,1.72-.76,1.72-1.69v-1.42Z"/><path class="cls-1" d="M60.01,9.85v2.4h-1.94c-.95,0-1.72,.76-1.72,1.68v5.5h-2.44v-5.5c0-2.25,1.86-4.08,4.15-4.08h1.94Z"/><path class="cls-1" d="M70.8,13.93v5.5h-2.44v-5.5c0-.93-.77-1.68-1.72-1.68h-1.45c-.95,0-1.72,.76-1.72,1.68v5.5h-2.44v-5.5c0-2.25,1.86-4.08,4.15-4.08h1.45c2.29,0,4.15,1.83,4.15,4.08Z"/><path class="cls-1" d="M81.94,13.94l-3.15,3.1h3.15v2.4h-6.23c-1.94,0-3.52-1.55-3.52-3.46v-2.67c0-1.91,1.57-3.46,3.52-3.46h4.76c.81,0,1.48,.65,1.48,1.45v2.64h0Zm-2.44-1.69h-3.8c-.6,0-1.08,.48-1.08,1.06v2.67c0,.48,.32,.88,.76,1.01l4.12-4.05v-.7h0Z"/><path class="cls-1" d="M89.49,9.85v2.4h-1.94c-.95,0-1.72,.76-1.72,1.68v5.5h-2.44v-5.5c0-2.25,1.86-4.08,4.15-4.08h1.94Z"/><path class="cls-1" d="M100.42,16.44c0,1.65-1.37,2.99-3.05,2.99h-3.66c-1.68,0-3.05-1.34-3.05-2.99h2.44c0,.33,.27,.6,.61,.6h3.66c.34,0,.61-.27,.61-.6s-.27-.6-.61-.6h-3.66c-1.68,0-3.05-1.34-3.05-2.99s1.37-2.99,3.05-2.99h3.66c1.68,0,3.05,1.34,3.05,2.99h-2.44c0-.33-.27-.6-.61-.6h-3.66c-.34,0-.61,.27-.61,.6s.27,.6,.61,.6h3.66c1.68,0,3.05,1.34,3.05,2.99h0Z"/></g><g><path class="cls-3" d="M24.88,11.29l-1.14-1.14-3.97,4.37,2.22,2.24s.06,.02,.09,0l2.7-2.96c.75-.75,.84-1.76,.09-2.51h0Z"/><path class="cls-3" d="M15.57,17.06l7.08-7.79-4.17-4.16s-.06-.02-.09,0l-6.91,7.55,4.08,4.39Z"/><path class="cls-3" d="M13.96,20.9l2.22,2.23s.06,.02,.09,0l4.77-5.24s.02-.06,0-.08l-2.24-2.24-4.84,5.34Z"/><g><path class="cls-3" d="M15.58,6.14l1.85-2s.02-.05,0-.07l-1.85-1.84s-.05-.02-.07,0l-1.81,1.81s-.02,.05,0,.07c.62,.7,1.16,1.32,1.8,2.04,.02,.02,.05,.02,.07,0Z"/><path class="cls-3" d="M14.09,17.48l-4.04-4.41s0,0,0,0l.43-.43s0,0,0,0l-.46-.45s.04-.01,.06-.03l3.82-4.16s.02-.06,0-.07c-3.45-2.27-8.76,.37-8.57,4.87,0,0,0,0,0,0-.12,4.56,5.37,7.22,8.78,4.69Z"/><path class="cls-3" d="M12.41,2.63c.1,.11,.27,.29,.37,.41,.02,.02,.05,.02,.07,0l1.68-1.81s.02-.05,0-.07c-.85-.99-1.98-1.71-3.13-.65,0,0-.58,.59-1.48,1.5-.04,.04,0,.1,.06,.08,.79-.39,1.81-.18,2.43,.53Z"/><path class="cls-3" d="M13.01,21.92l-.29,.33-1.21,1.34c-.28,.31-.65,.44-1,.32-.05-.02-.09,.04-.05,.08,.37,.37,.94,.95,.96,.98,0,0,0,0,0,0,1.81,1.81,2.8,.38,3.76-.66,.02-.02,.02-.06,0-.08l-2.14-2.28-.02-.02Z"/></g></g><path class="cls-1" d="M23.13,8.21c-.97,0-1.77,.82-1.71,1.8l-8.81,1.93c-.8-2.4-4.52-1.8-4.49,.77-.03,2.57,3.68,3.17,4.49,.78l5.12,1.19c.1,1.4,2.22,1.33,2.22-.08,.02-1.18-1.65-1.53-2.12-.47l-5.09-1.18c.02-.15,.02-.31,0-.46l8.8-1.93c.64,1.73,3.34,1.25,3.31-.63,0-.95-.77-1.72-1.72-1.72Z"/><path class="cls-1" d="M14.96,16.69c-3.25,3.58-9.77,1.01-9.63-3.9-.21-4.95,6.34-7.58,9.62-3.99,.75,.8,2.16,.65,2.67-.33-1.48-1.63-3.83-4.28-5.2-5.83-.76-.86-2.1-.99-2.92-.18C7.05,4.94,2.6,9.47,.57,11.52,.2,11.89,0,12.32,0,12.77c0,.39,.2,.8,.48,1.09,2.21,2.24,7.06,7.16,9.65,9.79,.41,.42,.98,.36,1.37-.08l5.96-6.53s.02-.06,0-.08c-.76-.7-1.76-.94-2.5-.28h0Z"/></g><g><path class="cls-1" d="M112.92,9.82c-.04,.42-.19,.76-.44,1.01-.36,.37-.8,.55-1.33,.55s-.97-.17-1.31-.52c-.23-.23-.38-.49-.46-.79s-.11-.66-.11-1.09,.04-.8,.11-1.09,.23-.56,.46-.79c.35-.35,.79-.52,1.31-.52s.98,.18,1.33,.54c.25,.26,.4,.59,.44,1.01h-.86c-.02-.18-.09-.34-.21-.49-.15-.19-.39-.29-.7-.29-.28,0-.52,.1-.71,.31-.1,.1-.18,.24-.23,.42-.05,.17-.08,.32-.08,.44s0,.28,0,.48,0,.36,0,.48c0,.12,.03,.26,.08,.44,.05,.17,.13,.31,.23,.42,.19,.2,.43,.31,.71,.31,.31,0,.54-.1,.7-.29,.12-.15,.19-.32,.21-.51h.86Z"/><path class="cls-1" d="M116.94,11.29h-3.3V6.66h3.3v.76h-2.46v1.08h2.16v.76h-2.16v1.27h2.46v.76Z"/><path class="cls-1" d="M121.45,11.29h-.87l-2.01-3.18v3.18h-.83V6.66h.9l1.98,3.14v-3.14h.83v4.63Z"/><path class="cls-1" d="M125.62,7.44h-1.37v3.85h-.84v-3.85h-1.37v-.78h3.59v.78Z"/><path class="cls-1" d="M129.51,11.29h-3.3V6.66h3.3v.76h-2.46v1.08h2.16v.76h-2.16v1.27h2.46v.76Z"/><path class="cls-1" d="M133.87,11.29h-.92l-.77-1.75h-1.03v1.75h-.85V6.66h1.95c.52,0,.92,.14,1.2,.42,.27,.28,.41,.62,.41,1.02,0,.31-.08,.57-.23,.81-.15,.23-.36,.4-.62,.49l.85,1.9Zm-.84-3.2c0-.2-.07-.36-.21-.5-.14-.14-.32-.2-.56-.2h-1.11v1.39h1.12c.24,0,.42-.06,.56-.18,.13-.12,.2-.29,.2-.51Z"/><path class="cls-1" d="M139.1,7.19h-2.42v1.51h2.16v.55h-2.16v2.04h-.58V6.66h3v.54Z"/><path class="cls-1" d="M143.12,7.87c.08,.31,.12,.68,.12,1.1s-.04,.8-.12,1.1c-.08,.31-.24,.58-.47,.8-.34,.33-.76,.5-1.25,.5s-.91-.17-1.25-.5c-.23-.23-.39-.49-.47-.8-.08-.31-.12-.68-.12-1.1s.04-.8,.12-1.1c.08-.31,.24-.58,.47-.8,.34-.33,.76-.5,1.25-.5s.91,.17,1.25,.5c.23,.23,.39,.49,.47,.8Zm-.49,1.63c.01-.14,.02-.32,.02-.53s0-.39-.02-.53-.05-.31-.11-.5c-.06-.19-.15-.35-.27-.47-.22-.23-.5-.35-.84-.35s-.62,.12-.84,.35c-.12,.12-.21,.28-.27,.47-.06,.19-.1,.36-.11,.5-.01,.14-.02,.32-.02,.53s0,.39,.02,.53c.01,.14,.05,.31,.11,.5,.06,.19,.15,.35,.27,.47,.22,.23,.5,.35,.84,.35s.62-.12,.84-.35c.12-.12,.21-.28,.27-.47,.06-.19,.1-.36,.11-.5Z"/><path class="cls-1" d="M147.63,11.29h-.64l-.88-1.93h-1.28v1.93h-.58V6.66h1.82c.52,0,.91,.14,1.18,.41,.24,.26,.37,.57,.37,.94s-.12,.67-.35,.92c-.14,.14-.32,.25-.56,.33l.93,2.04Zm-.62-3.28c0-.54-.31-.82-.94-.82h-1.24v1.63h1.24c.63,0,.94-.27,.94-.81Z"/><path class="cls-1" d="M153.67,11.29h-.87l-2.01-3.18v3.18h-.83V6.66h.9l1.98,3.14v-3.14h.83v4.63Z"/><path class="cls-1" d="M158.06,11.29h-3.3V6.66h3.3v.76h-2.46v1.08h2.16v.76h-2.16v1.27h2.46v.76Z"/><path class="cls-1" d="M159.72,11.29h-.86V6.66h.86v4.63Z"/><path class="cls-1" d="M164.32,11.29h-.54l-.1-.51c-.08,.15-.22,.28-.44,.41-.21,.12-.46,.19-.73,.19-.58,0-1.04-.16-1.38-.52-.23-.24-.38-.5-.47-.81-.09-.3-.13-.66-.13-1.08s.04-.78,.12-1.07c.08-.29,.24-.56,.48-.79,.17-.17,.38-.31,.63-.4,.25-.09,.5-.14,.75-.14,.57,0,1.03,.18,1.37,.53,.26,.27,.4,.58,.42,.93h-.86c0-.13-.08-.27-.2-.42-.16-.19-.41-.28-.74-.28-.31,0-.56,.1-.76,.31-.24,.25-.36,.69-.36,1.33s.12,1.1,.37,1.35c.18,.2,.43,.29,.75,.29,.29,0,.52-.09,.69-.27,.2-.21,.3-.51,.3-.9h-1.1v-.7h1.92v2.54Z"/><path class="cls-1" d="M168.86,11.29h-.84v-2.02h-1.9v2.02h-.84V6.66h.84v1.81h1.9v-1.81h.84v4.63Z"/><path class="cls-1" d="M173.5,9.95c0,.45-.16,.8-.47,1.04-.27,.21-.69,.31-1.24,.31h-1.84V6.66h1.84c.45,0,.81,.08,1.07,.25,.17,.11,.3,.25,.4,.43,.09,.18,.14,.37,.14,.57s-.05,.4-.14,.58-.24,.32-.42,.4c.21,.1,.38,.24,.49,.43,.12,.19,.17,.39,.17,.61Zm-.95-1.97c0-.21-.07-.36-.2-.45s-.31-.14-.52-.14h-1.04v1.16h1.06c.47,0,.7-.19,.7-.58Zm.1,1.95c0-.45-.26-.67-.79-.67h-1.07v1.29h1.04c.23,0,.42-.05,.58-.14,.16-.1,.24-.25,.24-.47Z"/><path class="cls-1" d="M177.86,8.98c0,.43-.04,.79-.12,1.09-.08,.3-.24,.56-.47,.79-.35,.35-.79,.52-1.33,.52s-.98-.17-1.33-.52c-.23-.23-.39-.49-.47-.79-.08-.3-.12-.66-.12-1.09s.04-.8,.12-1.09c.08-.3,.24-.56,.47-.79,.35-.35,.79-.52,1.33-.52s.98,.17,1.33,.52c.23,.23,.39,.49,.47,.79,.08,.3,.12,.66,.12,1.09Zm-.86,0c0-.66-.11-1.1-.33-1.33-.19-.2-.44-.31-.73-.31s-.54,.1-.73,.31c-.22,.23-.33,.68-.33,1.33,0,.19,0,.34,.01,.47,0,.13,.04,.27,.09,.44,.05,.17,.13,.31,.23,.41,.19,.2,.44,.31,.73,.31s.54-.1,.73-.31c.1-.1,.18-.24,.23-.41,.05-.17,.08-.32,.09-.44,0-.13,.01-.28,.01-.47Z"/><path class="cls-1" d="M182.24,11.29h-.92l-.77-1.75h-1.03v1.75h-.85V6.66h1.95c.52,0,.92,.14,1.2,.42,.27,.28,.41,.62,.41,1.02,0,.31-.08,.57-.23,.81-.15,.23-.36,.4-.62,.49l.85,1.9Zm-.84-3.2c0-.2-.07-.36-.21-.5-.14-.14-.32-.2-.56-.2h-1.11v1.39h1.12c.24,0,.42-.06,.56-.18,.13-.12,.2-.29,.2-.51Z"/><path class="cls-1" d="M186.58,11.29h-.84v-2.02h-1.9v2.02h-.84V6.66h.84v1.81h1.9v-1.81h.84v4.63Z"/><path class="cls-1" d="M191.24,8.98c0,.43-.04,.79-.12,1.09-.08,.3-.24,.56-.47,.79-.35,.35-.79,.52-1.33,.52s-.98-.17-1.33-.52c-.23-.23-.39-.49-.47-.79-.08-.3-.12-.66-.12-1.09s.04-.8,.12-1.09c.08-.3,.24-.56,.47-.79,.35-.35,.79-.52,1.33-.52s.98,.17,1.33,.52c.23,.23,.39,.49,.47,.79,.08,.3,.12,.66,.12,1.09Zm-.86,0c0-.66-.11-1.1-.33-1.33-.19-.2-.44-.31-.73-.31s-.54,.1-.73,.31c-.22,.23-.33,.68-.33,1.33,0,.19,0,.34,.01,.47,0,.13,.04,.27,.09,.44,.05,.17,.13,.31,.23,.41,.19,.2,.44,.31,.73,.31s.54-.1,.73-.31c.1-.1,.18-.24,.23-.41,.05-.17,.08-.32,.09-.44,0-.13,.01-.28,.01-.47Z"/><path class="cls-1" d="M195.63,8.98c0,.43-.04,.79-.12,1.09-.08,.3-.24,.56-.47,.79-.35,.35-.79,.52-1.33,.52s-.98-.17-1.33-.52c-.23-.23-.39-.49-.47-.79-.08-.3-.12-.66-.12-1.09s.04-.8,.12-1.09c.08-.3,.24-.56,.47-.79,.35-.35,.79-.52,1.33-.52s.98,.17,1.33,.52c.23,.23,.39,.49,.47,.79,.08,.3,.12,.66,.12,1.09Zm-.86,0c0-.66-.11-1.1-.33-1.33-.19-.2-.44-.31-.73-.31s-.54,.1-.73,.31c-.22,.23-.33,.68-.33,1.33,0,.19,0,.34,.01,.47,0,.13,.04,.27,.09,.44,.05,.17,.13,.31,.23,.41,.19,.2,.44,.31,.73,.31s.54-.1,.73-.31c.1-.1,.18-.24,.23-.41,.05-.17,.08-.32,.09-.44,0-.13,.01-.28,.01-.47Z"/><path class="cls-1" d="M200.09,8.97c0,.39-.04,.74-.11,1.04s-.22,.56-.43,.78c-.32,.33-.75,.5-1.3,.5h-1.8V6.66h1.8c.55,0,.98,.17,1.3,.5,.22,.22,.36,.48,.43,.78s.11,.64,.11,1.03Zm-.87,.47c0-.12,.01-.28,.01-.47s0-.35-.01-.47c0-.12-.04-.26-.09-.43-.05-.17-.13-.3-.23-.4-.17-.17-.39-.26-.65-.26h-.96v3.12h.96c.26,0,.48-.09,.65-.26,.1-.1,.18-.23,.23-.4,.05-.17,.08-.31,.09-.43Z"/><path class="cls-1" d="M112.84,19.14h-3.3v-4.63h3.3v.76h-2.46v1.08h2.16v.76h-2.16v1.27h2.46v.76Z"/><path class="cls-1" d="M117.35,19.14h-.87l-2.01-3.18v3.18h-.83v-4.63h.9l1.98,3.14v-3.14h.83v4.63Z"/><path class="cls-1" d="M121.95,19.14h-.54l-.1-.51c-.08,.15-.22,.28-.44,.41-.21,.12-.46,.19-.73,.19-.58,0-1.04-.16-1.38-.52-.23-.24-.38-.5-.47-.81-.09-.3-.13-.66-.13-1.08s.04-.78,.12-1.07c.08-.29,.24-.56,.48-.79,.17-.17,.38-.31,.63-.4,.25-.09,.5-.14,.75-.14,.57,0,1.03,.18,1.37,.53,.26,.27,.4,.58,.42,.93h-.86c0-.13-.08-.27-.2-.42-.16-.19-.41-.28-.74-.28-.31,0-.56,.1-.76,.31-.24,.25-.36,.69-.36,1.33s.12,1.1,.37,1.35c.18,.2,.43,.29,.75,.29,.29,0,.52-.09,.69-.27,.2-.21,.3-.51,.3-.9h-1.1v-.7h1.92v2.54Z"/><path class="cls-1" d="M126.54,19.14h-.88l-.3-.89h-1.84l-.3,.89h-.85l1.63-4.63h.92l1.63,4.63Zm-1.44-1.65l-.66-1.95-.66,1.95h1.32Z"/><path class="cls-1" d="M130.5,19.14h-.54l-.1-.51c-.08,.15-.22,.28-.44,.41-.21,.12-.46,.19-.73,.19-.58,0-1.04-.16-1.38-.52-.23-.24-.38-.5-.47-.81-.09-.3-.13-.66-.13-1.08s.04-.78,.12-1.07c.08-.29,.24-.56,.48-.79,.17-.17,.38-.31,.63-.4,.25-.09,.5-.14,.75-.14,.57,0,1.03,.18,1.37,.53,.26,.27,.4,.58,.42,.93h-.86c0-.13-.08-.27-.2-.42-.16-.19-.41-.28-.74-.28-.31,0-.56,.1-.76,.31-.24,.25-.36,.69-.36,1.33s.12,1.1,.37,1.35c.18,.2,.43,.29,.75,.29,.29,0,.52-.09,.69-.27,.2-.21,.3-.51,.3-.9h-1.1v-.7h1.92v2.54Z"/><path class="cls-1" d="M134.76,19.14h-3.3v-4.63h3.3v.76h-2.46v1.08h2.16v.76h-2.16v1.27h2.46v.76Z"/><path class="cls-1" d="M139.21,16.82c0,.39-.04,.74-.11,1.04s-.22,.56-.43,.78c-.32,.33-.75,.5-1.3,.5h-1.8v-4.63h1.8c.55,0,.98,.17,1.3,.5,.22,.22,.36,.48,.43,.78s.11,.64,.11,1.03Zm-.87,.47c0-.12,.01-.28,.01-.47s0-.35-.01-.47c0-.12-.04-.26-.09-.43-.05-.17-.13-.3-.23-.4-.17-.17-.39-.26-.65-.26h-.96v3.12h.96c.26,0,.48-.09,.65-.26,.1-.1,.18-.23,.23-.4,.05-.17,.08-.31,.09-.43Z"/><path class="cls-1" d="M144.96,19.14h-.92l-.77-1.75h-1.03v1.75h-.85v-4.63h1.95c.52,0,.92,.14,1.2,.42,.27,.28,.41,.62,.41,1.02,0,.31-.08,.57-.23,.81-.15,.23-.36,.4-.62,.49l.85,1.9Zm-.84-3.2c0-.2-.07-.36-.21-.5-.14-.14-.32-.2-.56-.2h-1.11v1.39h1.12c.24,0,.42-.06,.56-.18,.13-.12,.2-.29,.2-.51Z"/><path class="cls-1" d="M149.01,19.14h-3.3v-4.63h3.3v.76h-2.46v1.08h2.16v.76h-2.16v1.27h2.46v.76Z"/><path class="cls-1" d="M153.15,17.76c0,.39-.13,.71-.39,.97-.33,.33-.82,.5-1.46,.5-.58,0-1.04-.16-1.39-.48-.32-.29-.48-.65-.48-1.08h.86c0,.22,.08,.41,.24,.57,.17,.17,.42,.25,.78,.25,.37,0,.64-.08,.8-.25,.12-.13,.18-.28,.18-.44,0-.3-.18-.48-.55-.55-.11-.02-.28-.04-.52-.07-.24-.02-.41-.04-.5-.06-.34-.06-.63-.19-.85-.42-.22-.22-.33-.51-.33-.88,0-.34,.14-.64,.41-.92,.16-.15,.36-.27,.59-.36,.24-.09,.49-.13,.76-.13,.54,0,.97,.15,1.29,.45,.31,.29,.47,.62,.47,.99h-.86c0-.17-.08-.32-.2-.46-.07-.07-.18-.13-.31-.18-.13-.05-.26-.07-.4-.07-.34,0-.59,.08-.75,.25-.1,.11-.16,.24-.16,.39,0,.28,.16,.45,.47,.5,.11,.02,.29,.04,.53,.07,.24,.03,.4,.04,.48,.05,.37,.05,.68,.19,.92,.42,.24,.23,.36,.54,.36,.92Z"/><path class="cls-1" d="M157.21,19.14h-3.3v-4.63h3.3v.76h-2.46v1.08h2.16v.76h-2.16v1.27h2.46v.76Z"/><path class="cls-1" d="M161.65,19.14h-.88l-.3-.89h-1.84l-.3,.89h-.85l1.63-4.63h.92l1.63,4.63Zm-1.44-1.65l-.66-1.95-.66,1.95h1.32Z"/><path class="cls-1" d="M165.75,19.14h-.92l-.77-1.75h-1.03v1.75h-.85v-4.63h1.95c.52,0,.92,.14,1.2,.42,.27,.28,.41,.62,.41,1.02,0,.31-.08,.57-.23,.81-.15,.23-.36,.4-.62,.49l.85,1.9Zm-.84-3.2c0-.2-.07-.36-.21-.5-.14-.14-.32-.2-.56-.2h-1.11v1.39h1.12c.24,0,.42-.06,.56-.18,.13-.12,.2-.29,.2-.51Z"/><path class="cls-1" d="M169.88,17.66c-.04,.42-.19,.76-.44,1.01-.36,.37-.8,.55-1.33,.55s-.97-.17-1.31-.52c-.23-.23-.38-.49-.46-.79s-.11-.66-.11-1.09,.04-.8,.11-1.09,.23-.56,.46-.79c.35-.35,.79-.52,1.31-.52s.98,.18,1.33,.54c.25,.26,.4,.59,.44,1.01h-.86c-.02-.18-.09-.34-.21-.49-.15-.19-.39-.29-.7-.29-.28,0-.52,.1-.71,.31-.1,.1-.18,.24-.23,.42-.05,.17-.08,.32-.08,.44s0,.28,0,.48,0,.36,0,.48c0,.12,.03,.26,.08,.44,.05,.17,.13,.31,.23,.42,.19,.2,.43,.31,.71,.31,.31,0,.54-.1,.7-.29,.12-.15,.19-.32,.21-.51h.86Z"/><path class="cls-1" d="M174.19,19.14h-.84v-2.02h-1.9v2.02h-.84v-4.63h.84v1.81h1.9v-1.81h.84v4.63Z"/><path class="cls-1" d="M180.7,19.14h-.99l-.33-.37c-.37,.32-.8,.48-1.31,.48-.43,0-.79-.13-1.09-.39-.3-.26-.45-.6-.45-1.02,0-.51,.27-.94,.82-1.27-.17-.19-.3-.35-.38-.5-.08-.14-.12-.31-.12-.51,0-.36,.12-.64,.36-.85,.24-.21,.54-.32,.91-.32s.65,.1,.91,.31c.25,.21,.38,.48,.38,.83,0,.28-.08,.51-.23,.71-.15,.19-.37,.37-.65,.54l.8,.88c.06-.11,.1-.3,.12-.57,0-.14,.01-.33,.01-.57h1.2v.65h-.54c-.02,.44-.12,.78-.28,1.04,.1,.1,.24,.26,.43,.47,.19,.21,.33,.36,.42,.46Zm-1.81-.88c-.12-.13-.29-.33-.53-.59-.23-.26-.41-.45-.53-.59-.13,.07-.22,.14-.29,.19-.07,.05-.13,.12-.18,.22-.05,.1-.08,.2-.08,.33,0,.23,.08,.4,.24,.53,.16,.13,.36,.19,.59,.19,.34,0,.6-.1,.78-.29Zm-.25-2.68c0-.16-.05-.28-.14-.37-.1-.09-.22-.13-.37-.13-.14,0-.27,.04-.37,.13-.1,.08-.15,.2-.15,.36,0,.04,0,.08,.01,.12,0,.04,.02,.08,.04,.12,.02,.04,.04,.07,.05,.1,.02,.03,.04,.06,.08,.1,.04,.04,.06,.07,.08,.09,.02,.02,.05,.05,.09,.09s.07,.07,.08,.08c.11-.06,.18-.1,.23-.13,.04-.02,.1-.07,.17-.13,.07-.06,.13-.13,.15-.2,.03-.07,.04-.15,.04-.24Z"/><path class="cls-1" d="M186.23,17.76c0,.39-.13,.71-.39,.97-.33,.33-.82,.5-1.46,.5-.58,0-1.04-.16-1.39-.48-.32-.29-.48-.65-.48-1.08h.86c0,.22,.08,.41,.24,.57,.17,.17,.42,.25,.78,.25,.37,0,.64-.08,.8-.25,.12-.13,.18-.28,.18-.44,0-.3-.18-.48-.55-.55-.11-.02-.28-.04-.52-.07-.24-.02-.41-.04-.5-.06-.34-.06-.63-.19-.85-.42-.22-.22-.33-.51-.33-.88,0-.34,.14-.64,.41-.92,.16-.15,.36-.27,.59-.36,.24-.09,.49-.13,.76-.13,.54,0,.97,.15,1.29,.45,.31,.29,.47,.62,.47,.99h-.86c0-.17-.08-.32-.2-.46-.07-.07-.18-.13-.31-.18-.13-.05-.26-.07-.4-.07-.34,0-.59,.08-.75,.25-.1,.11-.16,.24-.16,.39,0,.28,.16,.45,.47,.5,.11,.02,.29,.04,.53,.07,.24,.03,.4,.04,.48,.05,.37,.05,.68,.19,.92,.42,.24,.23,.36,.54,.36,.92Z"/><path class="cls-1" d="M190.37,17.66c-.04,.42-.19,.76-.44,1.01-.36,.37-.8,.55-1.33,.55s-.97-.17-1.31-.52c-.23-.23-.38-.49-.46-.79s-.11-.66-.11-1.09,.04-.8,.11-1.09,.23-.56,.46-.79c.35-.35,.79-.52,1.31-.52s.98,.18,1.33,.54c.25,.26,.4,.59,.44,1.01h-.86c-.02-.18-.09-.34-.21-.49-.15-.19-.39-.29-.7-.29-.28,0-.52,.1-.71,.31-.1,.1-.18,.24-.23,.42-.05,.17-.08,.32-.08,.44s0,.28,0,.48,0,.36,0,.48c0,.12,.03,.26,.08,.44,.05,.17,.13,.31,.23,.42,.19,.2,.43,.31,.71,.31,.31,0,.54-.1,.7-.29,.12-.15,.19-.32,.21-.51h.86Z"/><path class="cls-1" d="M191.95,19.14h-.86v-4.63h.86v4.63Z"/><path class="cls-1" d="M196.34,19.14h-3.3v-4.63h3.3v.76h-2.46v1.08h2.16v.76h-2.16v1.27h2.46v.76Z"/><path class="cls-1" d="M200.85,19.14h-.87l-2.01-3.18v3.18h-.83v-4.63h.9l1.98,3.14v-3.14h.83v4.63Z"/><path class="cls-1" d="M205.31,17.66c-.04,.42-.19,.76-.44,1.01-.36,.37-.8,.55-1.33,.55s-.97-.17-1.31-.52c-.23-.23-.38-.49-.46-.79s-.11-.66-.11-1.09,.04-.8,.11-1.09,.23-.56,.46-.79c.35-.35,.79-.52,1.31-.52s.98,.18,1.33,.54c.25,.26,.4,.59,.44,1.01h-.86c-.02-.18-.09-.34-.21-.49-.15-.19-.39-.29-.7-.29-.28,0-.52,.1-.71,.31-.1,.1-.18,.24-.23,.42-.05,.17-.08,.32-.08,.44s0,.28,0,.48,0,.36,0,.48c0,.12,.03,.26,.08,.44,.05,.17,.13,.31,.23,.42,.19,.2,.43,.31,.71,.31,.31,0,.54-.1,.7-.29,.12-.15,.19-.32,.21-.51h.86Z"/><path class="cls-1" d="M209.34,19.14h-3.3v-4.63h3.3v.76h-2.46v1.08h2.16v.76h-2.16v1.27h2.46v.76Z"/></g><path class="cls-2" d="M104.59,25.48V.35h.5V25.48h-.5Z"/></g></g></svg>