<?xml version="1.0" encoding="UTF-8"?><svg id="Layer_2" xmlns="http://www.w3.org/2000/svg" viewBox="0 0 63.31 97.46"><defs><style>.cls-1,.cls-2{fill:#fff;}.cls-3{fill:#836eaa;}.cls-2{fill-rule:evenodd;}</style></defs><g id="Layer_1-2"><g><g><g><path class="cls-1" d="M3.66,81.85c-1.98,0-3.6-1.62-3.6-3.6,0-2.99-.67-7.44,3.6-7.6,2.64-.26,5.24,.53,5.35,3.6h-2.24c-.06-1.71-1.96-1.33-3.11-1.36-.75,0-1.36,.61-1.36,1.36v4c.06,1.71,1.96,1.33,3.11,1.36,.75,0,1.36-.61,1.36-1.36h2.24c-.12,3.08-2.71,3.86-5.35,3.6h0Z"/><path class="cls-1" d="M19.06,76.71c.31,2.59-.96,5.1-3.81,5.15-2.59,.31-5.09-.96-5.14-3.82-.31-2.59,.96-5.1,3.81-5.15,2.59-.31,5.09,.96,5.14,3.82Zm-2.24,0c-.09-1.7-1.62-1.62-2.9-1.58-1.7,.09-1.62,1.63-1.57,2.91,.09,1.7,1.62,1.62,2.9,1.58,1.7-.09,1.62-1.63,1.57-2.91Z"/><path class="cls-1" d="M25.85,72.89v2.24c-1.31,0-3.29-.31-3.36,1.58,0,0,0,5.15,0,5.15h-2.24c.06-4.73-1.11-9.52,5.59-8.97Z"/><path class="cls-1" d="M35.76,76.71v5.15h-2.24v-5.15c-.09-1.7-1.62-1.62-2.9-1.58-.87,0-1.57,.71-1.57,1.58v5.15h-2.24c.11-3.25-1.06-8.81,3.81-8.97,2.59-.31,5.1,.96,5.14,3.82Z"/><path class="cls-1" d="M45.98,76.71l-2.89,2.9h2.89v2.24c-2.84-.25-8.87,1.3-8.95-3.23-.12-2.59-.13-5.56,3.23-5.73,0,0,4.37,0,4.37,0,.75,0,1.36,.61,1.36,1.36v2.47h0Zm-2.24-1.58h-3.49c-.55,0-.99,.45-.99,.99v2.5c0,.45,.3,.82,.7,.95l3.78-3.78v-.66h0Z"/><path class="cls-1" d="M52.91,72.89v2.24c-1.31,0-3.29-.31-3.36,1.58,0,0,0,5.15,0,5.15h-2.24c.06-4.72-1.11-9.52,5.59-8.97Z"/><path class="cls-1" d="M62.94,79.05c0,1.54-1.26,2.8-2.8,2.8-2.35-.03-6.03,.62-6.15-2.8h2.24c0,.31,.25,.56,.56,.56h3.36c.31,0,.56-.25,.56-.56-.05-1.75-6.37,1.44-6.71-3.36,.12-3.42,3.8-2.78,6.15-2.8,1.54,0,2.8,1.26,2.8,2.8h-2.24c0-.31-.25-.56-.56-.56h-3.36c-.73,0-.73,1.12,0,1.12,2.35,.03,6.03-.62,6.15,2.8h0Z"/></g><g><path class="cls-3" d="M62.01,28.15l-2.83-2.85-9.89,10.9,5.54,5.58c.06,.06,.16,.06,.22,0l6.74-7.37c1.87-1.87,2.1-4.39,.22-6.26h0Z"/><path class="cls-3" d="M38.81,42.52l17.65-19.41-10.39-10.36c-.06-.06-.16-.06-.22,0L28.64,31.57l10.17,10.94Z"/><path class="cls-3" d="M34.8,52.09l5.54,5.55c.06,.06,.16,.06,.22,0l11.9-13.05c.05-.06,.05-.15,0-.21l-5.58-5.59-12.07,13.3Z"/><g><path class="cls-3" d="M38.84,15.31l4.62-5s.05-.12,0-.17l-4.6-4.59s-.12-.05-.17,0l-4.5,4.51s-.05,.12,0,.17c1.55,1.75,2.9,3.29,4.49,5.07,.05,.05,.13,.05,.18,0Z"/><path class="cls-3" d="M35.12,43.57l-10.06-11s0,0,0,0l1.06-1.06s0,0,0,0l-1.16-1.13s.1-.03,.15-.08l9.53-10.38c.05-.05,.04-.14-.02-.19-8.59-5.65-21.84,.93-21.37,12.15,0,0,0,0,0,0-.3,11.36,13.4,17.99,21.87,11.69Z"/><path class="cls-3" d="M30.92,6.57c.25,.28,.66,.73,.93,1.03,.05,.05,.13,.05,.18,0l4.19-4.51s.05-.12,0-.16c-2.12-2.47-4.95-4.26-7.81-1.61,0,0-1.45,1.48-3.69,3.74-.1,.1,.02,.25,.14,.19,1.98-.97,4.5-.44,6.05,1.32Z"/><path class="cls-3" d="M32.43,54.64l-.73,.81-3.03,3.34c-.71,.78-1.62,1.1-2.49,.8-.12-.04-.22,.11-.13,.2,.92,.93,2.34,2.37,2.4,2.43,0,0,0,0,0,0,4.52,4.52,6.98,.96,9.37-1.64,.05-.06,.05-.15,0-.2l-5.35-5.68-.06-.06Z"/></g></g><path class="cls-1" d="M57.66,20.45c-2.43,0-4.4,2.05-4.27,4.49l-21.95,4.8c-2-5.98-11.27-4.48-11.19,1.92-.08,6.39,9.17,7.91,11.18,1.94l12.75,2.96c.25,3.48,5.53,3.31,5.53-.2,.05-2.94-4.12-3.81-5.28-1.17l-12.7-2.95c.04-.38,.04-.78,0-1.15l21.93-4.8c1.6,4.32,8.32,3.12,8.26-1.56,0-2.37-1.92-4.29-4.28-4.29Z"/><path class="cls-1" d="M37.28,41.6c-8.09,8.93-24.34,2.52-24.01-9.72-.52-12.34,15.81-18.9,23.98-9.95,1.86,1.99,5.39,1.63,6.66-.83-3.68-4.07-9.55-10.67-12.97-14.53-1.9-2.14-5.25-2.46-7.27-.45C17.57,12.3,6.47,23.61,1.41,28.72,.5,29.64-.02,30.7,0,31.84c.01,.98,.5,2.01,1.2,2.72,5.5,5.59,17.6,17.84,24.06,24.41,1.02,1.04,2.44,.89,3.42-.2l14.85-16.28c.06-.06,.05-.15,0-.21-1.89-1.75-4.4-2.34-6.24-.69h0Z"/></g><g><path class="cls-1" d="M2.32,91.48c-.03,.26-.12,.48-.28,.64-.23,.23-.51,.35-.84,.35s-.61-.11-.83-.33c-.15-.15-.24-.31-.29-.5s-.07-.42-.07-.69,.02-.51,.07-.69,.15-.35,.29-.5c.22-.22,.5-.33,.83-.33s.62,.11,.84,.34c.16,.16,.25,.37,.28,.64h-.55c-.01-.11-.06-.22-.13-.31-.1-.12-.24-.18-.44-.18-.18,0-.33,.06-.45,.19-.06,.07-.11,.15-.14,.26-.03,.11-.05,.2-.05,.28s0,.18,0,.3,0,.23,0,.3c0,.07,.02,.17,.05,.28,.03,.11,.08,.2,.14,.26,.12,.13,.27,.19,.45,.19,.2,0,.34-.06,.44-.19,.08-.09,.12-.2,.13-.32h.55Z"/><path class="cls-1" d="M4.86,92.42H2.77v-2.93h2.09v.48h-1.55v.68h1.37v.48h-1.37v.8h1.55v.48Z"/><path class="cls-1" d="M7.72,92.42h-.55l-1.27-2.01v2.01h-.53v-2.93h.57l1.25,1.98v-1.98h.53v2.93Z"/><path class="cls-1" d="M10.35,89.98h-.87v2.44h-.53v-2.44h-.87v-.5h2.27v.5Z"/><path class="cls-1" d="M12.81,92.42h-2.09v-2.93h2.09v.48h-1.55v.68h1.37v.48h-1.37v.8h1.55v.48Z"/><path class="cls-1" d="M15.57,92.42h-.58l-.49-1.11h-.65v1.11h-.54v-2.93h1.24c.33,0,.58,.09,.76,.26,.17,.18,.26,.39,.26,.65,0,.19-.05,.36-.15,.51-.1,.15-.23,.25-.39,.31l.54,1.2Zm-.53-2.02c0-.12-.04-.23-.13-.31-.09-.09-.21-.13-.35-.13h-.7v.88h.71c.15,0,.27-.04,.35-.11,.08-.08,.12-.18,.12-.32Z"/><path class="cls-1" d="M18.88,89.82h-1.53v.96h1.36v.35h-1.36v1.29h-.37v-2.93h1.9v.34Z"/><path class="cls-1" d="M21.42,90.25c.05,.2,.08,.43,.08,.7s-.03,.5-.08,.7c-.05,.2-.15,.37-.3,.51-.22,.21-.48,.31-.79,.31s-.57-.1-.79-.31c-.15-.14-.25-.31-.3-.51-.05-.2-.08-.43-.08-.7s.03-.5,.08-.7c.05-.2,.15-.37,.3-.51,.22-.21,.48-.31,.79-.31s.57,.1,.79,.31c.15,.14,.25,.31,.3,.51Zm-.31,1.03c0-.09,.01-.2,.01-.33s0-.24-.01-.33-.03-.2-.07-.32c-.04-.12-.1-.22-.17-.3-.14-.15-.32-.22-.53-.22s-.39,.07-.53,.22c-.07,.08-.13,.18-.17,.3-.04,.12-.06,.23-.07,.32,0,.09-.01,.2-.01,.33s0,.24,.01,.33c0,.09,.03,.2,.07,.32,.04,.12,.1,.22,.17,.3,.14,.15,.32,.22,.53,.22s.39-.07,.53-.22c.07-.08,.13-.18,.17-.3,.04-.12,.06-.23,.07-.32Z"/><path class="cls-1" d="M24.27,92.42h-.41l-.55-1.22h-.81v1.22h-.37v-2.93h1.15c.33,0,.58,.09,.74,.26,.15,.16,.23,.36,.23,.6s-.07,.42-.22,.58c-.09,.09-.2,.16-.35,.21l.59,1.29Zm-.39-2.08c0-.34-.2-.52-.6-.52h-.78v1.03h.78c.4,0,.6-.17,.6-.51Z"/><path class="cls-1" d="M28.1,92.42h-.55l-1.27-2.01v2.01h-.53v-2.93h.57l1.25,1.98v-1.98h.53v2.93Z"/><path class="cls-1" d="M30.87,92.42h-2.09v-2.93h2.09v.48h-1.55v.68h1.37v.48h-1.37v.8h1.55v.48Z"/><path class="cls-1" d="M31.92,92.42h-.54v-2.93h.54v2.93Z"/><path class="cls-1" d="M34.83,92.42h-.34l-.06-.32c-.05,.09-.14,.18-.28,.26-.14,.08-.29,.12-.46,.12-.37,0-.66-.1-.87-.33-.14-.15-.24-.32-.3-.51-.06-.19-.08-.42-.08-.68s.03-.49,.08-.68c.05-.18,.15-.35,.3-.5,.11-.11,.24-.19,.4-.25,.16-.06,.31-.09,.47-.09,.36,0,.65,.11,.87,.33,.17,.17,.25,.37,.27,.59h-.55c0-.08-.05-.17-.13-.27-.1-.12-.26-.18-.47-.18-.2,0-.36,.07-.48,.2-.15,.16-.23,.44-.23,.84s.08,.7,.23,.86c.12,.12,.27,.19,.48,.19,.18,0,.33-.06,.44-.17,.13-.13,.19-.32,.19-.57h-.7v-.44h1.22v1.6Z"/><path class="cls-1" d="M37.71,92.42h-.53v-1.28h-1.2v1.28h-.53v-2.93h.53v1.15h1.2v-1.15h.53v2.93Z"/><path class="cls-1" d="M40.64,91.56c0,.29-.1,.51-.3,.66-.17,.13-.43,.2-.78,.2h-1.17v-2.94h1.17c.29,0,.51,.05,.68,.16,.11,.07,.19,.16,.25,.27,.06,.11,.09,.24,.09,.36s-.03,.25-.09,.37-.15,.2-.27,.25c.13,.06,.24,.15,.31,.27,.07,.12,.11,.25,.11,.39Zm-.6-1.25c0-.13-.04-.23-.13-.29s-.19-.09-.33-.09h-.66v.74h.67c.29,0,.44-.12,.44-.36Zm.06,1.24c0-.28-.17-.43-.5-.43h-.67v.81h.66c.14,0,.27-.03,.37-.09,.1-.06,.15-.16,.15-.3Z"/><path class="cls-1" d="M43.4,90.95c0,.27-.03,.5-.08,.69-.05,.19-.15,.35-.3,.5-.22,.22-.5,.33-.84,.33s-.62-.11-.84-.33c-.15-.15-.24-.31-.3-.5-.05-.19-.08-.42-.08-.69s.03-.5,.08-.69c.05-.19,.15-.35,.3-.5,.22-.22,.5-.33,.84-.33s.62,.11,.84,.33c.15,.15,.24,.31,.3,.5,.05,.19,.08,.42,.08,.69Zm-.54,0c0-.42-.07-.7-.21-.84-.12-.13-.28-.19-.46-.19s-.34,.06-.46,.19c-.14,.15-.21,.43-.21,.84,0,.12,0,.22,0,.3,0,.08,.02,.17,.06,.28,.03,.11,.08,.19,.14,.26,.12,.13,.28,.19,.46,.19s.34-.06,.46-.19c.06-.07,.11-.15,.14-.26,.03-.11,.05-.2,.06-.28,0-.08,0-.18,0-.3Z"/><path class="cls-1" d="M46.17,92.42h-.58l-.49-1.11h-.65v1.11h-.54v-2.93h1.24c.33,0,.58,.09,.76,.26,.17,.18,.26,.39,.26,.65,0,.19-.05,.36-.15,.51-.1,.15-.23,.25-.39,.31l.54,1.2Zm-.53-2.02c0-.12-.04-.23-.13-.31-.09-.09-.21-.13-.35-.13h-.7v.88h.71c.15,0,.27-.04,.35-.11,.08-.08,.12-.18,.12-.32Z"/><path class="cls-1" d="M48.91,92.42h-.53v-1.28h-1.2v1.28h-.53v-2.93h.53v1.15h1.2v-1.15h.53v2.93Z"/><path class="cls-1" d="M51.86,90.95c0,.27-.03,.5-.08,.69-.05,.19-.15,.35-.3,.5-.22,.22-.5,.33-.84,.33s-.62-.11-.84-.33c-.15-.15-.24-.31-.3-.5-.05-.19-.08-.42-.08-.69s.03-.5,.08-.69c.05-.19,.15-.35,.3-.5,.22-.22,.5-.33,.84-.33s.62,.11,.84,.33c.15,.15,.24,.31,.3,.5,.05,.19,.08,.42,.08,.69Zm-.54,0c0-.42-.07-.7-.21-.84-.12-.13-.28-.19-.46-.19s-.34,.06-.46,.19c-.14,.15-.21,.43-.21,.84,0,.12,0,.22,0,.3,0,.08,.02,.17,.06,.28,.03,.11,.08,.19,.14,.26,.12,.13,.28,.19,.46,.19s.34-.06,.46-.19c.06-.07,.11-.15,.14-.26,.03-.11,.05-.2,.06-.28,0-.08,0-.18,0-.3Z"/><path class="cls-1" d="M54.64,90.95c0,.27-.03,.5-.08,.69-.05,.19-.15,.35-.3,.5-.22,.22-.5,.33-.84,.33s-.62-.11-.84-.33c-.15-.15-.24-.31-.3-.5-.05-.19-.08-.42-.08-.69s.03-.5,.08-.69c.05-.19,.15-.35,.3-.5,.22-.22,.5-.33,.84-.33s.62,.11,.84,.33c.15,.15,.24,.31,.3,.5,.05,.19,.08,.42,.08,.69Zm-.54,0c0-.42-.07-.7-.21-.84-.12-.13-.28-.19-.46-.19s-.34,.06-.46,.19c-.14,.15-.21,.43-.21,.84,0,.12,0,.22,0,.3,0,.08,.02,.17,.06,.28,.03,.11,.08,.19,.14,.26,.12,.13,.28,.19,.46,.19s.34-.06,.46-.19c.06-.07,.11-.15,.14-.26,.03-.11,.05-.2,.06-.28,0-.08,0-.18,0-.3Z"/><path class="cls-1" d="M57.46,90.95c0,.25-.02,.47-.07,.66s-.14,.36-.27,.5c-.2,.21-.48,.31-.82,.31h-1.14v-2.93h1.14c.35,0,.62,.1,.82,.31,.14,.14,.23,.31,.27,.5s.07,.41,.07,.65Zm-.55,.3c0-.08,0-.17,0-.3s0-.22,0-.3c0-.08-.02-.17-.06-.27-.03-.1-.08-.19-.14-.25-.11-.11-.25-.17-.41-.17h-.61v1.97h.61c.17,0,.3-.06,.41-.17,.06-.06,.11-.15,.14-.25,.03-.11,.05-.2,.06-.27Z"/><path class="cls-1" d="M2.27,97.38H.18v-2.93H2.27v.48H.71v.68h1.37v.48H.71v.8h1.55v.48Z"/><path class="cls-1" d="M5.12,97.38h-.55l-1.27-2.01v2.01h-.53v-2.93h.57l1.25,1.98v-1.98h.53v2.93Z"/><path class="cls-1" d="M8.03,97.38h-.34l-.06-.32c-.05,.09-.14,.18-.28,.26-.14,.08-.29,.12-.46,.12-.37,0-.66-.1-.87-.33-.14-.15-.24-.32-.3-.51-.06-.19-.08-.42-.08-.68s.03-.49,.08-.68c.05-.18,.15-.35,.3-.5,.11-.11,.24-.19,.4-.25,.16-.06,.31-.09,.47-.09,.36,0,.65,.11,.87,.33,.17,.17,.25,.37,.27,.59h-.55c0-.08-.05-.17-.13-.27-.1-.12-.26-.18-.47-.18-.2,0-.36,.07-.48,.2-.15,.16-.23,.44-.23,.84s.08,.7,.23,.86c.12,.12,.27,.19,.48,.19,.18,0,.33-.06,.44-.17,.13-.13,.19-.32,.19-.57h-.7v-.44h1.22v1.6Z"/><path class="cls-1" d="M10.93,97.38h-.56l-.19-.56h-1.17l-.19,.56h-.54l1.03-2.93h.58l1.03,2.93Zm-.91-1.04l-.42-1.24-.42,1.24h.84Z"/><path class="cls-1" d="M13.44,97.38h-.34l-.06-.32c-.05,.09-.14,.18-.28,.26-.14,.08-.29,.12-.46,.12-.37,0-.66-.1-.87-.33-.14-.15-.24-.32-.3-.51-.06-.19-.08-.42-.08-.68s.03-.49,.08-.68c.05-.18,.15-.35,.3-.5,.11-.11,.24-.19,.4-.25,.16-.06,.31-.09,.47-.09,.36,0,.65,.11,.87,.33,.17,.17,.25,.37,.27,.59h-.55c0-.08-.05-.17-.13-.27-.1-.12-.26-.18-.47-.18-.2,0-.36,.07-.48,.2-.15,.16-.23,.44-.23,.84s.08,.7,.23,.86c.12,.12,.27,.19,.48,.19,.18,0,.33-.06,.44-.17,.13-.13,.19-.32,.19-.57h-.7v-.44h1.22v1.6Z"/><path class="cls-1" d="M16.13,97.38h-2.09v-2.93h2.09v.48h-1.55v.68h1.37v.48h-1.37v.8h1.55v.48Z"/><path class="cls-1" d="M18.95,95.91c0,.25-.02,.47-.07,.66s-.14,.36-.27,.5c-.2,.21-.48,.31-.82,.31h-1.14v-2.93h1.14c.35,0,.62,.1,.82,.31,.14,.14,.23,.31,.27,.5s.07,.41,.07,.65Zm-.55,.3c0-.08,0-.17,0-.3s0-.22,0-.3c0-.08-.02-.17-.06-.27-.03-.1-.08-.19-.14-.25-.11-.11-.25-.17-.41-.17h-.61v1.97h.61c.17,0,.3-.06,.41-.17,.06-.06,.11-.15,.14-.25,.03-.11,.05-.2,.06-.27Z"/><path class="cls-1" d="M22.58,97.38h-.58l-.49-1.11h-.65v1.11h-.54v-2.93h1.24c.33,0,.58,.09,.76,.26,.17,.18,.26,.39,.26,.65,0,.19-.05,.36-.15,.51-.1,.15-.23,.25-.39,.31l.54,1.2Zm-.53-2.02c0-.12-.04-.23-.13-.31-.09-.09-.21-.13-.35-.13h-.7v.88h.71c.15,0,.27-.04,.35-.11,.08-.08,.12-.18,.12-.32Z"/><path class="cls-1" d="M25.14,97.38h-2.09v-2.93h2.09v.48h-1.55v.68h1.37v.48h-1.37v.8h1.55v.48Z"/><path class="cls-1" d="M27.77,96.51c0,.25-.08,.45-.24,.61-.21,.21-.52,.31-.93,.31-.36,0-.66-.1-.88-.3-.2-.18-.31-.41-.31-.68h.55c0,.14,.05,.26,.15,.36,.1,.1,.27,.16,.49,.16,.24,0,.41-.05,.51-.16,.08-.08,.12-.18,.12-.28,0-.19-.12-.31-.35-.35-.07-.01-.18-.03-.33-.04-.15-.01-.26-.03-.32-.04-.22-.04-.4-.12-.54-.26-.14-.14-.21-.32-.21-.56,0-.22,.09-.41,.26-.58,.1-.1,.22-.17,.38-.23,.15-.06,.31-.08,.48-.08,.34,0,.61,.1,.82,.29,.2,.18,.29,.39,.3,.62h-.55c0-.11-.05-.2-.13-.29-.05-.05-.11-.08-.2-.11-.08-.03-.17-.04-.25-.04-.21,0-.37,.05-.48,.16-.07,.07-.1,.15-.1,.25,0,.18,.1,.29,.3,.32,.07,.01,.18,.02,.33,.04,.15,.02,.25,.03,.3,.03,.23,.03,.43,.12,.58,.27,.15,.15,.23,.34,.23,.58Z"/><path class="cls-1" d="M30.33,97.38h-2.09v-2.93h2.09v.48h-1.55v.68h1.37v.48h-1.37v.8h1.55v.48Z"/><path class="cls-1" d="M33.14,97.38h-.56l-.19-.56h-1.17l-.19,.56h-.54l1.03-2.93h.58l1.03,2.93Zm-.91-1.04l-.42-1.24-.42,1.24h.84Z"/><path class="cls-1" d="M35.74,97.38h-.58l-.49-1.11h-.65v1.11h-.54v-2.93h1.24c.33,0,.58,.09,.76,.26,.17,.18,.26,.39,.26,.65,0,.19-.05,.36-.15,.51-.1,.15-.23,.25-.39,.31l.54,1.2Zm-.53-2.02c0-.12-.04-.23-.13-.31-.09-.09-.21-.13-.35-.13h-.7v.88h.71c.15,0,.27-.04,.35-.11,.08-.08,.12-.18,.12-.32Z"/><path class="cls-1" d="M38.35,96.44c-.03,.26-.12,.48-.28,.64-.23,.23-.51,.35-.84,.35s-.61-.11-.83-.33c-.15-.15-.24-.31-.29-.5s-.07-.42-.07-.69,.02-.51,.07-.69,.15-.35,.29-.5c.22-.22,.5-.33,.83-.33s.62,.11,.84,.34c.16,.16,.25,.37,.28,.64h-.55c-.01-.11-.06-.22-.13-.31-.1-.12-.24-.18-.44-.18-.18,0-.33,.06-.45,.19-.06,.07-.11,.15-.14,.26-.03,.11-.05,.2-.05,.28s0,.18,0,.3,0,.23,0,.3c0,.07,.02,.17,.05,.28,.03,.11,.08,.2,.14,.26,.12,.13,.27,.19,.45,.19,.2,0,.34-.06,.44-.19,.08-.09,.12-.2,.13-.32h.55Z"/><path class="cls-1" d="M41.08,97.38h-.53v-1.28h-1.2v1.28h-.53v-2.93h.53v1.15h1.2v-1.15h.53v2.93Z"/><path class="cls-1" d="M45.19,97.38h-.63l-.21-.23c-.23,.2-.51,.31-.83,.31-.27,0-.5-.08-.69-.24-.19-.16-.28-.38-.28-.65,0-.33,.17-.59,.52-.81-.11-.12-.19-.22-.24-.31-.05-.09-.07-.2-.07-.32,0-.23,.08-.41,.23-.54,.15-.13,.34-.2,.57-.2s.41,.07,.57,.2c.16,.13,.24,.31,.24,.53,0,.18-.05,.33-.14,.45-.1,.12-.23,.23-.41,.34l.51,.55c.04-.07,.06-.19,.07-.36,0-.09,0-.21,0-.36h.76v.41h-.34c-.01,.28-.07,.49-.18,.66,.06,.07,.15,.16,.27,.3,.12,.13,.21,.23,.27,.29Zm-1.15-.56c-.07-.08-.19-.21-.33-.37-.15-.16-.26-.29-.34-.37-.08,.05-.14,.09-.18,.12-.04,.03-.08,.08-.11,.14-.03,.06-.05,.13-.05,.21,0,.14,.05,.26,.15,.34,.1,.08,.23,.12,.37,.12,.22,0,.38-.06,.49-.18Zm-.16-1.7c0-.1-.03-.18-.09-.23-.06-.06-.14-.08-.24-.08-.09,0-.17,.03-.23,.08-.06,.05-.1,.13-.1,.23,0,.03,0,.05,0,.08,0,.02,.01,.05,.03,.07,.01,.02,.02,.05,.03,.06,0,.02,.03,.04,.05,.07,.02,.03,.04,.04,.05,.06,0,.01,.03,.03,.06,.06s.05,.05,.05,.05c.07-.04,.12-.07,.14-.08,.03-.02,.06-.04,.11-.08,.05-.04,.08-.08,.1-.12,.02-.04,.03-.1,.03-.15Z"/><path class="cls-1" d="M48.69,96.51c0,.25-.08,.45-.24,.61-.21,.21-.52,.31-.93,.31-.36,0-.66-.1-.88-.3-.2-.18-.31-.41-.31-.68h.55c0,.14,.05,.26,.15,.36,.1,.1,.27,.16,.49,.16,.24,0,.41-.05,.51-.16,.08-.08,.12-.18,.12-.28,0-.19-.12-.31-.35-.35-.07-.01-.18-.03-.33-.04-.15-.01-.26-.03-.32-.04-.22-.04-.4-.12-.54-.26-.14-.14-.21-.32-.21-.56,0-.22,.09-.41,.26-.58,.1-.1,.22-.17,.38-.23,.15-.06,.31-.08,.48-.08,.34,0,.61,.1,.82,.29,.2,.18,.29,.39,.3,.62h-.55c0-.11-.05-.2-.13-.29-.05-.05-.11-.08-.2-.11-.08-.03-.17-.04-.25-.04-.21,0-.37,.05-.48,.16-.07,.07-.1,.15-.1,.25,0,.18,.1,.29,.3,.32,.07,.01,.18,.02,.33,.04,.15,.02,.25,.03,.3,.03,.23,.03,.43,.12,.58,.27,.15,.15,.23,.34,.23,.58Z"/><path class="cls-1" d="M51.31,96.44c-.03,.26-.12,.48-.28,.64-.23,.23-.51,.35-.84,.35s-.61-.11-.83-.33c-.15-.15-.24-.31-.29-.5s-.07-.42-.07-.69,.02-.51,.07-.69,.15-.35,.29-.5c.22-.22,.5-.33,.83-.33s.62,.11,.84,.34c.16,.16,.25,.37,.28,.64h-.55c-.01-.11-.06-.22-.13-.31-.1-.12-.24-.18-.44-.18-.18,0-.33,.06-.45,.19-.06,.07-.11,.15-.14,.26-.03,.11-.05,.2-.05,.28s0,.18,0,.3,0,.23,0,.3c0,.07,.02,.17,.05,.28,.03,.11,.08,.2,.14,.26,.12,.13,.27,.19,.45,.19,.2,0,.34-.06,.44-.19,.08-.09,.12-.2,.13-.32h.55Z"/><path class="cls-1" d="M52.31,97.38h-.54v-2.93h.54v2.93Z"/><path class="cls-1" d="M55.09,97.38h-2.09v-2.93h2.09v.48h-1.55v.68h1.37v.48h-1.37v.8h1.55v.48Z"/><path class="cls-1" d="M57.94,97.38h-.55l-1.27-2.01v2.01h-.53v-2.93h.57l1.25,1.98v-1.98h.53v2.93Z"/><path class="cls-1" d="M60.76,96.44c-.03,.26-.12,.48-.28,.64-.23,.23-.51,.35-.84,.35s-.61-.11-.83-.33c-.15-.15-.24-.31-.29-.5s-.07-.42-.07-.69,.02-.51,.07-.69,.15-.35,.29-.5c.22-.22,.5-.33,.83-.33s.62,.11,.84,.34c.16,.16,.25,.37,.28,.64h-.55c-.01-.11-.06-.22-.13-.31-.1-.12-.24-.18-.44-.18-.18,0-.33,.06-.45,.19-.06,.07-.11,.15-.14,.26-.03,.11-.05,.2-.05,.28s0,.18,0,.3,0,.23,0,.3c0,.07,.02,.17,.05,.28,.03,.11,.08,.2,.14,.26,.12,.13,.27,.19,.45,.19,.2,0,.34-.06,.44-.19,.08-.09,.12-.2,.13-.32h.55Z"/><path class="cls-1" d="M63.31,97.38h-2.09v-2.93h2.09v.48h-1.55v.68h1.37v.48h-1.37v.8h1.55v.48Z"/></g><path class="cls-2" d="M63.07,85.96H.19v-.58H63.07v.58Z"/></g></g></svg>