<svg width="223" height="109" viewBox="0 0 223 109" fill="none" xmlns="http://www.w3.org/2000/svg">
<rect width="223" height="109" fill="#40128B"/>
<path d="M70.9113 35.964C70.3613 35.964 69.8516 35.865 69.3823 35.667C68.913 35.4617 68.5023 35.1793 68.1503 34.82C67.8056 34.4607 67.538 34.0427 67.3473 33.566C67.1566 33.0893 67.0613 32.5797 67.0613 32.037C67.0613 31.487 67.1566 30.9737 67.3473 30.497C67.538 30.0203 67.8056 29.606 68.1503 29.254C68.5023 28.8947 68.9093 28.616 69.3713 28.418C69.8406 28.2127 70.3503 28.11 70.9003 28.11C71.5016 28.11 72.0296 28.2127 72.4843 28.418C72.939 28.6233 73.3423 28.902 73.6943 29.254L72.9793 29.969C72.7373 29.6977 72.4403 29.485 72.0883 29.331C71.7436 29.177 71.3476 29.1 70.9003 29.1C70.497 29.1 70.1266 29.1733 69.7893 29.32C69.452 29.4593 69.1586 29.661 68.9093 29.925C68.66 30.189 68.4656 30.5007 68.3263 30.86C68.1943 31.2193 68.1283 31.6117 68.1283 32.037C68.1283 32.4623 68.1943 32.8547 68.3263 33.214C68.4656 33.5733 68.66 33.885 68.9093 34.149C69.1586 34.413 69.452 34.6183 69.7893 34.765C70.1266 34.9043 70.497 34.974 70.9003 34.974C71.377 34.974 71.7913 34.897 72.1433 34.743C72.4953 34.5817 72.7923 34.3653 73.0343 34.094L73.7493 34.798C73.3973 35.1647 72.983 35.4507 72.5063 35.656C72.037 35.8613 71.5053 35.964 70.9113 35.964ZM77.0479 35.964C76.5346 35.964 76.0726 35.843 75.6619 35.601C75.2512 35.359 74.9249 35.0327 74.6829 34.622C74.4409 34.204 74.3199 33.7383 74.3199 33.225C74.3199 32.719 74.4409 32.2643 74.6829 31.861C74.9249 31.4503 75.2512 31.124 75.6619 30.882C76.0726 30.64 76.5346 30.519 77.0479 30.519C77.5539 30.519 78.0122 30.64 78.4229 30.882C78.8409 31.1167 79.1709 31.4393 79.4129 31.85C79.6549 32.2607 79.7759 32.719 79.7759 33.225C79.7759 33.7383 79.6549 34.204 79.4129 34.622C79.1709 35.0327 78.8409 35.359 78.4229 35.601C78.0122 35.843 77.5539 35.964 77.0479 35.964ZM77.0479 35.007C77.3779 35.007 77.6712 34.93 77.9279 34.776C78.1846 34.622 78.3862 34.413 78.5329 34.149C78.6796 33.8777 78.7529 33.5697 78.7529 33.225C78.7529 32.8877 78.6759 32.587 78.5219 32.323C78.3752 32.059 78.1736 31.8537 77.9169 31.707C77.6676 31.553 77.3779 31.476 77.0479 31.476C76.7179 31.476 76.4246 31.553 76.1679 31.707C75.9112 31.8537 75.7096 32.059 75.5629 32.323C75.4162 32.587 75.3429 32.8877 75.3429 33.225C75.3429 33.5697 75.4162 33.8777 75.5629 34.149C75.7096 34.413 75.9112 34.622 76.1679 34.776C76.4246 34.93 76.7179 35.007 77.0479 35.007ZM80.8914 35.854V28H81.8814V35.854H80.8914ZM85.7169 35.964C85.2035 35.964 84.7415 35.843 84.3309 35.601C83.9202 35.359 83.5939 35.0327 83.3519 34.622C83.1099 34.204 82.9889 33.7383 82.9889 33.225C82.9889 32.719 83.1099 32.2643 83.3519 31.861C83.5939 31.4503 83.9202 31.124 84.3309 30.882C84.7415 30.64 85.2035 30.519 85.7169 30.519C86.2229 30.519 86.6812 30.64 87.0919 30.882C87.5099 31.1167 87.8399 31.4393 88.0819 31.85C88.3239 32.2607 88.4449 32.719 88.4449 33.225C88.4449 33.7383 88.3239 34.204 88.0819 34.622C87.8399 35.0327 87.5099 35.359 87.0919 35.601C86.6812 35.843 86.2229 35.964 85.7169 35.964ZM85.7169 35.007C86.0469 35.007 86.3402 34.93 86.5969 34.776C86.8535 34.622 87.0552 34.413 87.2019 34.149C87.3485 33.8777 87.4219 33.5697 87.4219 33.225C87.4219 32.8877 87.3449 32.587 87.1909 32.323C87.0442 32.059 86.8425 31.8537 86.5859 31.707C86.3365 31.553 86.0469 31.476 85.7169 31.476C85.3869 31.476 85.0935 31.553 84.8369 31.707C84.5802 31.8537 84.3785 32.059 84.2319 32.323C84.0852 32.587 84.0119 32.8877 84.0119 33.225C84.0119 33.5697 84.0852 33.8777 84.2319 34.149C84.3785 34.413 84.5802 34.622 84.8369 34.776C85.0935 34.93 85.3869 35.007 85.7169 35.007ZM89.5603 35.854V30.629H90.5503V35.854H89.5603ZM90.5503 32.873L90.1763 32.708C90.1763 32.0407 90.3303 31.509 90.6383 31.113C90.9463 30.717 91.39 30.519 91.9693 30.519C92.2333 30.519 92.4717 30.5667 92.6843 30.662C92.897 30.75 93.095 30.9003 93.2783 31.113L92.6293 31.784C92.5193 31.6667 92.3983 31.5823 92.2663 31.531C92.1343 31.4797 91.9803 31.454 91.8043 31.454C91.4377 31.454 91.137 31.5713 90.9023 31.806C90.6677 32.0407 90.5503 32.3963 90.5503 32.873ZM96.0255 35.964C95.5488 35.964 95.1162 35.8467 94.7275 35.612C94.3388 35.37 94.0308 35.0437 93.8035 34.633C93.5835 34.2223 93.4735 33.7603 93.4735 33.247C93.4735 32.7337 93.5835 32.2717 93.8035 31.861C94.0308 31.4503 94.3352 31.124 94.7165 30.882C95.1052 30.64 95.5415 30.519 96.0255 30.519C96.4215 30.519 96.7735 30.6033 97.0815 30.772C97.3968 30.9333 97.6498 31.1607 97.8405 31.454C98.0312 31.74 98.1375 32.0737 98.1595 32.455V34.028C98.1375 34.402 98.0312 34.7357 97.8405 35.029C97.6572 35.3223 97.4078 35.5533 97.0925 35.722C96.7845 35.8833 96.4288 35.964 96.0255 35.964ZM96.1905 35.029C96.6818 35.029 97.0778 34.864 97.3785 34.534C97.6792 34.1967 97.8295 33.7677 97.8295 33.247C97.8295 32.8877 97.7598 32.576 97.6205 32.312C97.4885 32.0407 97.2978 31.8317 97.0485 31.685C96.7992 31.531 96.5095 31.454 96.1795 31.454C95.8495 31.454 95.5562 31.531 95.2995 31.685C95.0502 31.839 94.8522 32.0517 94.7055 32.323C94.5662 32.587 94.4965 32.8913 94.4965 33.236C94.4965 33.588 94.5662 33.8997 94.7055 34.171C94.8522 34.435 95.0538 34.644 95.3105 34.798C95.5672 34.952 95.8605 35.029 96.1905 35.029ZM97.7635 35.854V34.446L97.9505 33.17L97.7635 31.905V30.629H98.7645V35.854H97.7635ZM102.417 35.964C101.933 35.964 101.5 35.8467 101.119 35.612C100.737 35.37 100.433 35.0437 100.206 34.633C99.9858 34.2223 99.8758 33.7603 99.8758 33.247C99.8758 32.7337 99.9858 32.2717 100.206 31.861C100.433 31.4503 100.737 31.124 101.119 30.882C101.5 30.64 101.933 30.519 102.417 30.519C102.805 30.519 103.157 30.6033 103.473 30.772C103.788 30.9333 104.041 31.1607 104.232 31.454C104.43 31.74 104.54 32.0737 104.562 32.455V34.028C104.54 34.402 104.433 34.7357 104.243 35.029C104.052 35.3223 103.799 35.5533 103.484 35.722C103.168 35.8833 102.813 35.964 102.417 35.964ZM102.582 35.029C102.912 35.029 103.198 34.952 103.44 34.798C103.689 34.644 103.883 34.435 104.023 34.171C104.162 33.8997 104.232 33.5917 104.232 33.247C104.232 32.8877 104.158 32.576 104.012 32.312C103.872 32.048 103.678 31.839 103.429 31.685C103.187 31.531 102.901 31.454 102.571 31.454C102.241 31.454 101.951 31.531 101.702 31.685C101.452 31.839 101.254 32.0517 101.108 32.323C100.968 32.587 100.899 32.8913 100.899 33.236C100.899 33.588 100.968 33.8997 101.108 34.171C101.254 34.435 101.452 34.644 101.702 34.798C101.958 34.952 102.252 35.029 102.582 35.029ZM105.167 35.854H104.166V34.446L104.353 33.17L104.166 31.905V28H105.167V35.854ZM108.995 35.964C108.482 35.964 108.02 35.843 107.609 35.601C107.198 35.359 106.872 35.0327 106.63 34.622C106.388 34.204 106.267 33.7383 106.267 33.225C106.267 32.719 106.388 32.2643 106.63 31.861C106.872 31.4503 107.198 31.124 107.609 30.882C108.02 30.64 108.482 30.519 108.995 30.519C109.501 30.519 109.959 30.64 110.37 30.882C110.788 31.1167 111.118 31.4393 111.36 31.85C111.602 32.2607 111.723 32.719 111.723 33.225C111.723 33.7383 111.602 34.204 111.36 34.622C111.118 35.0327 110.788 35.359 110.37 35.601C109.959 35.843 109.501 35.964 108.995 35.964ZM108.995 35.007C109.325 35.007 109.618 34.93 109.875 34.776C110.132 34.622 110.333 34.413 110.48 34.149C110.627 33.8777 110.7 33.5697 110.7 33.225C110.7 32.8877 110.623 32.587 110.469 32.323C110.322 32.059 110.121 31.8537 109.864 31.707C109.615 31.553 109.325 31.476 108.995 31.476C108.665 31.476 108.372 31.553 108.115 31.707C107.858 31.8537 107.657 32.059 107.51 32.323C107.363 32.587 107.29 32.8877 107.29 33.225C107.29 33.5697 107.363 33.8777 107.51 34.149C107.657 34.413 107.858 34.622 108.115 34.776C108.372 34.93 108.665 35.007 108.995 35.007Z" fill="#FFFBF1"/>
<path d="M69.1543 47.994V46.518H72.5563C73.0243 46.518 73.4383 46.422 73.7983 46.23C74.1703 46.038 74.4583 45.768 74.6623 45.42C74.8783 45.072 74.9863 44.658 74.9863 44.178C74.9863 43.698 74.8783 43.284 74.6623 42.936C74.4583 42.588 74.1703 42.318 73.7983 42.126C73.4383 41.934 73.0243 41.838 72.5563 41.838H69.1543V40.362H72.6643C73.4323 40.362 74.1163 40.518 74.7163 40.83C75.3283 41.142 75.8083 41.586 76.1563 42.162C76.5163 42.726 76.6963 43.398 76.6963 44.178C76.6963 44.946 76.5163 45.618 76.1563 46.194C75.8083 46.758 75.3283 47.202 74.7163 47.526C74.1163 47.838 73.4323 47.994 72.6643 47.994H69.1543ZM68.0203 52.854V40.362H69.7123V52.854H68.0203ZM78.6483 52.854V44.304H80.2683V52.854H78.6483ZM80.2683 47.976L79.6563 47.706C79.6563 46.614 79.9083 45.744 80.4123 45.096C80.9163 44.448 81.6423 44.124 82.5903 44.124C83.0223 44.124 83.4123 44.202 83.7603 44.358C84.1083 44.502 84.4323 44.748 84.7323 45.096L83.6703 46.194C83.4903 46.002 83.2923 45.864 83.0763 45.78C82.8603 45.696 82.6083 45.654 82.3203 45.654C81.7203 45.654 81.2283 45.846 80.8443 46.23C80.4603 46.614 80.2683 47.196 80.2683 47.976ZM89.4977 53.034C88.6577 53.034 87.9017 52.836 87.2297 52.44C86.5577 52.044 86.0237 51.51 85.6277 50.838C85.2317 50.154 85.0337 49.392 85.0337 48.552C85.0337 47.724 85.2317 46.98 85.6277 46.32C86.0237 45.648 86.5577 45.114 87.2297 44.718C87.9017 44.322 88.6577 44.124 89.4977 44.124C90.3257 44.124 91.0757 44.322 91.7477 44.718C92.4317 45.102 92.9717 45.63 93.3677 46.302C93.7637 46.974 93.9617 47.724 93.9617 48.552C93.9617 49.392 93.7637 50.154 93.3677 50.838C92.9717 51.51 92.4317 52.044 91.7477 52.44C91.0757 52.836 90.3257 53.034 89.4977 53.034ZM89.4977 51.468C90.0377 51.468 90.5177 51.342 90.9377 51.09C91.3577 50.838 91.6877 50.496 91.9277 50.064C92.1677 49.62 92.2877 49.116 92.2877 48.552C92.2877 48 92.1617 47.508 91.9097 47.076C91.6697 46.644 91.3397 46.308 90.9197 46.068C90.5117 45.816 90.0377 45.69 89.4977 45.69C88.9577 45.69 88.4777 45.816 88.0577 46.068C87.6377 46.308 87.3077 46.644 87.0677 47.076C86.8277 47.508 86.7077 48 86.7077 48.552C86.7077 49.116 86.8277 49.62 87.0677 50.064C87.3077 50.496 87.6377 50.838 88.0577 51.09C88.4777 51.342 88.9577 51.468 89.4977 51.468ZM98.505 53.034C98.025 53.034 97.569 52.974 97.137 52.854C96.717 52.722 96.327 52.542 95.967 52.314C95.607 52.074 95.295 51.792 95.031 51.468L96.075 50.424C96.387 50.808 96.747 51.096 97.155 51.288C97.563 51.468 98.019 51.558 98.523 51.558C99.027 51.558 99.417 51.474 99.693 51.306C99.969 51.126 100.107 50.88 100.107 50.568C100.107 50.256 99.993 50.016 99.765 49.848C99.549 49.668 99.267 49.524 98.919 49.416C98.571 49.296 98.199 49.182 97.803 49.074C97.419 48.954 97.053 48.804 96.705 48.624C96.357 48.444 96.069 48.198 95.841 47.886C95.625 47.574 95.517 47.16 95.517 46.644C95.517 46.128 95.643 45.684 95.895 45.312C96.147 44.928 96.495 44.634 96.939 44.43C97.395 44.226 97.941 44.124 98.577 44.124C99.249 44.124 99.843 44.244 100.359 44.484C100.887 44.712 101.319 45.06 101.655 45.528L100.611 46.572C100.371 46.26 100.071 46.02 99.711 45.852C99.363 45.684 98.967 45.6 98.523 45.6C98.055 45.6 97.695 45.684 97.443 45.852C97.203 46.008 97.083 46.23 97.083 46.518C97.083 46.806 97.191 47.028 97.407 47.184C97.623 47.34 97.905 47.472 98.253 47.58C98.613 47.688 98.985 47.802 99.369 47.922C99.753 48.03 100.119 48.18 100.467 48.372C100.815 48.564 101.097 48.822 101.313 49.146C101.541 49.47 101.655 49.896 101.655 50.424C101.655 51.228 101.367 51.864 100.791 52.332C100.227 52.8 99.465 53.034 98.505 53.034ZM107.429 53.034C106.577 53.034 105.809 52.842 105.125 52.458C104.441 52.062 103.901 51.528 103.505 50.856C103.109 50.184 102.911 49.422 102.911 48.57C102.911 47.73 103.103 46.974 103.487 46.302C103.883 45.63 104.411 45.102 105.071 44.718C105.743 44.322 106.493 44.124 107.321 44.124C108.113 44.124 108.809 44.304 109.409 44.664C110.021 45.024 110.495 45.522 110.831 46.158C111.179 46.794 111.353 47.514 111.353 48.318C111.353 48.438 111.347 48.57 111.335 48.714C111.323 48.846 111.299 49.002 111.263 49.182H104.045V47.832H110.399L109.805 48.354C109.805 47.778 109.703 47.292 109.499 46.896C109.295 46.488 109.007 46.176 108.635 45.96C108.263 45.732 107.813 45.618 107.285 45.618C106.733 45.618 106.247 45.738 105.827 45.978C105.407 46.218 105.083 46.554 104.855 46.986C104.627 47.418 104.513 47.928 104.513 48.516C104.513 49.116 104.633 49.644 104.873 50.1C105.113 50.544 105.455 50.892 105.899 51.144C106.343 51.384 106.853 51.504 107.429 51.504C107.909 51.504 108.347 51.42 108.743 51.252C109.151 51.084 109.499 50.832 109.787 50.496L110.831 51.558C110.423 52.038 109.919 52.404 109.319 52.656C108.731 52.908 108.101 53.034 107.429 53.034ZM117.025 53.034C116.185 53.034 115.423 52.836 114.739 52.44C114.067 52.044 113.533 51.51 113.137 50.838C112.753 50.154 112.561 49.398 112.561 48.57C112.561 47.73 112.753 46.974 113.137 46.302C113.533 45.63 114.067 45.102 114.739 44.718C115.423 44.322 116.185 44.124 117.025 44.124C117.685 44.124 118.297 44.25 118.861 44.502C119.425 44.742 119.911 45.096 120.319 45.564L119.239 46.644C118.975 46.332 118.651 46.098 118.267 45.942C117.895 45.774 117.481 45.69 117.025 45.69C116.485 45.69 116.005 45.816 115.585 46.068C115.165 46.308 114.835 46.644 114.595 47.076C114.355 47.508 114.235 48.006 114.235 48.57C114.235 49.134 114.355 49.632 114.595 50.064C114.835 50.496 115.165 50.838 115.585 51.09C116.005 51.342 116.485 51.468 117.025 51.468C117.481 51.468 117.895 51.39 118.267 51.234C118.651 51.066 118.981 50.826 119.257 50.514L120.319 51.594C119.923 52.05 119.437 52.404 118.861 52.656C118.297 52.908 117.685 53.034 117.025 53.034ZM125.364 53.034C124.668 53.034 124.038 52.878 123.474 52.566C122.922 52.242 122.49 51.798 122.178 51.234C121.866 50.67 121.71 50.016 121.71 49.272V44.304H123.33V49.2C123.33 49.668 123.408 50.076 123.564 50.424C123.732 50.76 123.972 51.018 124.284 51.198C124.596 51.378 124.962 51.468 125.382 51.468C126.018 51.468 126.516 51.27 126.876 50.874C127.236 50.466 127.416 49.908 127.416 49.2V44.304H129.036V49.272C129.036 50.016 128.88 50.67 128.568 51.234C128.256 51.798 127.824 52.242 127.272 52.566C126.732 52.878 126.096 53.034 125.364 53.034ZM132.521 52.854V40.722H134.141V52.854H132.521ZM130.415 45.78V44.304H136.247V45.78H130.415ZM141.476 53.034C140.636 53.034 139.88 52.836 139.208 52.44C138.536 52.044 138.002 51.51 137.606 50.838C137.21 50.154 137.012 49.392 137.012 48.552C137.012 47.724 137.21 46.98 137.606 46.32C138.002 45.648 138.536 45.114 139.208 44.718C139.88 44.322 140.636 44.124 141.476 44.124C142.304 44.124 143.054 44.322 143.726 44.718C144.41 45.102 144.95 45.63 145.346 46.302C145.742 46.974 145.94 47.724 145.94 48.552C145.94 49.392 145.742 50.154 145.346 50.838C144.95 51.51 144.41 52.044 143.726 52.44C143.054 52.836 142.304 53.034 141.476 53.034ZM141.476 51.468C142.016 51.468 142.496 51.342 142.916 51.09C143.336 50.838 143.666 50.496 143.906 50.064C144.146 49.62 144.266 49.116 144.266 48.552C144.266 48 144.14 47.508 143.888 47.076C143.648 46.644 143.318 46.308 142.898 46.068C142.49 45.816 142.016 45.69 141.476 45.69C140.936 45.69 140.456 45.816 140.036 46.068C139.616 46.308 139.286 46.644 139.046 47.076C138.806 47.508 138.686 48 138.686 48.552C138.686 49.116 138.806 49.62 139.046 50.064C139.286 50.496 139.616 50.838 140.036 51.09C140.456 51.342 140.936 51.468 141.476 51.468ZM147.765 52.854V44.304H149.385V52.854H147.765ZM149.385 47.976L148.773 47.706C148.773 46.614 149.025 45.744 149.529 45.096C150.033 44.448 150.759 44.124 151.707 44.124C152.139 44.124 152.529 44.202 152.877 44.358C153.225 44.502 153.549 44.748 153.849 45.096L152.787 46.194C152.607 46.002 152.409 45.864 152.193 45.78C151.977 45.696 151.725 45.654 151.437 45.654C150.837 45.654 150.345 45.846 149.961 46.23C149.577 46.614 149.385 47.196 149.385 47.976ZM155.008 52.854V44.304H156.628V52.854H155.008ZM155.818 42.594C155.518 42.594 155.272 42.498 155.08 42.306C154.888 42.102 154.792 41.85 154.792 41.55C154.792 41.262 154.888 41.022 155.08 40.83C155.272 40.626 155.518 40.524 155.818 40.524C156.118 40.524 156.364 40.626 156.556 40.83C156.748 41.022 156.844 41.262 156.844 41.55C156.844 41.85 156.748 42.102 156.556 42.306C156.364 42.498 156.118 42.594 155.818 42.594ZM162.651 53.034C161.871 53.034 161.163 52.842 160.527 52.458C159.891 52.062 159.387 51.528 159.015 50.856C158.655 50.184 158.475 49.428 158.475 48.588C158.475 47.748 158.655 46.992 159.015 46.32C159.387 45.648 159.885 45.114 160.509 44.718C161.145 44.322 161.859 44.124 162.651 44.124C163.299 44.124 163.875 44.262 164.379 44.538C164.895 44.802 165.309 45.174 165.621 45.654C165.933 46.122 166.107 46.668 166.143 47.292V49.866C166.107 50.478 165.933 51.024 165.621 51.504C165.321 51.984 164.913 52.362 164.397 52.638C163.893 52.902 163.311 53.034 162.651 53.034ZM162.921 51.504C163.725 51.504 164.373 51.234 164.865 50.694C165.357 50.142 165.603 49.44 165.603 48.588C165.603 48 165.489 47.49 165.261 47.058C165.045 46.614 164.733 46.272 164.325 46.032C163.917 45.78 163.443 45.654 162.903 45.654C162.363 45.654 161.883 45.78 161.463 46.032C161.055 46.284 160.731 46.632 160.491 47.076C160.263 47.508 160.149 48.006 160.149 48.57C160.149 49.146 160.263 49.656 160.491 50.1C160.731 50.532 161.061 50.874 161.481 51.126C161.901 51.378 162.381 51.504 162.921 51.504ZM165.495 52.854V50.55L165.801 48.462L165.495 46.392V44.304H167.133V52.854H165.495ZM169.492 52.854V40.002H171.112V52.854H169.492Z" fill="#FFFBF1"/>
<path d="M69.1363 69.854V68.306H72.6103C73.5343 68.306 74.3443 68.108 75.0403 67.712C75.7363 67.304 76.2763 66.746 76.6603 66.038C77.0563 65.33 77.2543 64.514 77.2543 63.59C77.2543 62.678 77.0563 61.868 76.6603 61.16C76.2643 60.452 75.7183 59.9 75.0223 59.504C74.3263 59.108 73.5223 58.91 72.6103 58.91H69.1543V57.362H72.6463C73.5583 57.362 74.3983 57.518 75.1663 57.83C75.9463 58.142 76.6183 58.58 77.1823 59.144C77.7583 59.708 78.2023 60.368 78.5143 61.124C78.8383 61.88 79.0003 62.708 79.0003 63.608C79.0003 64.496 78.8383 65.324 78.5143 66.092C78.2023 66.848 77.7643 67.508 77.2003 68.072C76.6363 68.636 75.9643 69.074 75.1843 69.386C74.4163 69.698 73.5823 69.854 72.6823 69.854H69.1363ZM68.0203 69.854V57.362H69.7123V69.854H68.0203ZM84.6925 70.034C83.9125 70.034 83.2045 69.842 82.5685 69.458C81.9325 69.062 81.4285 68.528 81.0565 67.856C80.6965 67.184 80.5165 66.428 80.5165 65.588C80.5165 64.748 80.6965 63.992 81.0565 63.32C81.4285 62.648 81.9265 62.114 82.5505 61.718C83.1865 61.322 83.9005 61.124 84.6925 61.124C85.3405 61.124 85.9165 61.262 86.4205 61.538C86.9365 61.802 87.3505 62.174 87.6625 62.654C87.9745 63.122 88.1485 63.668 88.1845 64.292V66.866C88.1485 67.478 87.9745 68.024 87.6625 68.504C87.3625 68.984 86.9545 69.362 86.4385 69.638C85.9345 69.902 85.3525 70.034 84.6925 70.034ZM84.9625 68.504C85.7665 68.504 86.4145 68.234 86.9065 67.694C87.3985 67.142 87.6445 66.44 87.6445 65.588C87.6445 65 87.5305 64.49 87.3025 64.058C87.0865 63.614 86.7745 63.272 86.3665 63.032C85.9585 62.78 85.4845 62.654 84.9445 62.654C84.4045 62.654 83.9245 62.78 83.5045 63.032C83.0965 63.284 82.7725 63.632 82.5325 64.076C82.3045 64.508 82.1905 65.006 82.1905 65.57C82.1905 66.146 82.3045 66.656 82.5325 67.1C82.7725 67.532 83.1025 67.874 83.5225 68.126C83.9425 68.378 84.4225 68.504 84.9625 68.504ZM87.5365 69.854V67.55L87.8425 65.462L87.5365 63.392V61.304H89.1745V69.854H87.5365ZM94.2511 70.034C93.7711 70.034 93.3151 69.974 92.8831 69.854C92.4631 69.722 92.0731 69.542 91.7131 69.314C91.3531 69.074 91.0411 68.792 90.7771 68.468L91.8211 67.424C92.1331 67.808 92.4931 68.096 92.9011 68.288C93.3091 68.468 93.7651 68.558 94.2691 68.558C94.7731 68.558 95.1631 68.474 95.4391 68.306C95.7151 68.126 95.8531 67.88 95.8531 67.568C95.8531 67.256 95.7391 67.016 95.5111 66.848C95.2951 66.668 95.0131 66.524 94.6651 66.416C94.3171 66.296 93.9451 66.182 93.5491 66.074C93.1651 65.954 92.7991 65.804 92.4511 65.624C92.1031 65.444 91.8151 65.198 91.5871 64.886C91.3711 64.574 91.2631 64.16 91.2631 63.644C91.2631 63.128 91.3891 62.684 91.6411 62.312C91.8931 61.928 92.2411 61.634 92.6851 61.43C93.1411 61.226 93.6871 61.124 94.3231 61.124C94.9951 61.124 95.5891 61.244 96.1051 61.484C96.6331 61.712 97.0651 62.06 97.4011 62.528L96.3571 63.572C96.1171 63.26 95.8171 63.02 95.4571 62.852C95.1091 62.684 94.7131 62.6 94.2691 62.6C93.8011 62.6 93.4411 62.684 93.1891 62.852C92.9491 63.008 92.8291 63.23 92.8291 63.518C92.8291 63.806 92.9371 64.028 93.1531 64.184C93.3691 64.34 93.6511 64.472 93.9991 64.58C94.3591 64.688 94.7311 64.802 95.1151 64.922C95.4991 65.03 95.8651 65.18 96.2131 65.372C96.5611 65.564 96.8431 65.822 97.0591 66.146C97.2871 66.47 97.4011 66.896 97.4011 67.424C97.4011 68.228 97.1131 68.864 96.5371 69.332C95.9731 69.8 95.2111 70.034 94.2511 70.034ZM105.263 69.854V64.868C105.263 64.22 105.059 63.686 104.651 63.266C104.243 62.846 103.715 62.636 103.067 62.636C102.635 62.636 102.251 62.732 101.915 62.924C101.579 63.116 101.315 63.38 101.123 63.716C100.931 64.052 100.835 64.436 100.835 64.868L100.169 64.49C100.169 63.842 100.313 63.266 100.601 62.762C100.889 62.258 101.291 61.862 101.807 61.574C102.323 61.274 102.905 61.124 103.553 61.124C104.201 61.124 104.771 61.268 105.263 61.556C105.767 61.844 106.163 62.246 106.451 62.762C106.739 63.278 106.883 63.872 106.883 64.544V69.854H105.263ZM99.2147 69.854V57.002H100.835V69.854H99.2147ZM113.576 70.034C112.928 70.034 112.34 69.902 111.812 69.638C111.296 69.362 110.882 68.984 110.57 68.504C110.258 68.024 110.084 67.478 110.048 66.866V64.292C110.084 63.668 110.258 63.122 110.57 62.654C110.894 62.174 111.314 61.802 111.83 61.538C112.358 61.262 112.94 61.124 113.576 61.124C114.356 61.124 115.058 61.322 115.682 61.718C116.318 62.114 116.816 62.648 117.176 63.32C117.536 63.992 117.716 64.748 117.716 65.588C117.716 66.428 117.536 67.184 117.176 67.856C116.816 68.528 116.318 69.062 115.682 69.458C115.058 69.842 114.356 70.034 113.576 70.034ZM113.306 68.504C113.846 68.504 114.32 68.378 114.728 68.126C115.136 67.874 115.46 67.532 115.7 67.1C115.94 66.656 116.06 66.146 116.06 65.57C116.06 65.006 115.94 64.502 115.7 64.058C115.46 63.614 115.136 63.272 114.728 63.032C114.32 62.78 113.852 62.654 113.324 62.654C112.784 62.654 112.31 62.78 111.902 63.032C111.494 63.272 111.176 63.614 110.948 64.058C110.72 64.502 110.606 65.012 110.606 65.588C110.606 66.152 110.714 66.656 110.93 67.1C111.158 67.532 111.476 67.874 111.884 68.126C112.304 68.378 112.778 68.504 113.306 68.504ZM109.076 69.854V57.002H110.696V63.392L110.39 65.462L110.696 67.55V69.854H109.076ZM123.459 70.034C122.619 70.034 121.863 69.836 121.191 69.44C120.519 69.044 119.985 68.51 119.589 67.838C119.193 67.154 118.995 66.392 118.995 65.552C118.995 64.724 119.193 63.98 119.589 63.32C119.985 62.648 120.519 62.114 121.191 61.718C121.863 61.322 122.619 61.124 123.459 61.124C124.287 61.124 125.037 61.322 125.709 61.718C126.393 62.102 126.933 62.63 127.329 63.302C127.725 63.974 127.923 64.724 127.923 65.552C127.923 66.392 127.725 67.154 127.329 67.838C126.933 68.51 126.393 69.044 125.709 69.44C125.037 69.836 124.287 70.034 123.459 70.034ZM123.459 68.468C123.999 68.468 124.479 68.342 124.899 68.09C125.319 67.838 125.649 67.496 125.889 67.064C126.129 66.62 126.249 66.116 126.249 65.552C126.249 65 126.123 64.508 125.871 64.076C125.631 63.644 125.301 63.308 124.881 63.068C124.473 62.816 123.999 62.69 123.459 62.69C122.919 62.69 122.439 62.816 122.019 63.068C121.599 63.308 121.269 63.644 121.029 64.076C120.789 64.508 120.669 65 120.669 65.552C120.669 66.116 120.789 66.62 121.029 67.064C121.269 67.496 121.599 67.838 122.019 68.09C122.439 68.342 122.919 68.468 123.459 68.468ZM133.384 70.034C132.604 70.034 131.896 69.842 131.26 69.458C130.624 69.062 130.12 68.528 129.748 67.856C129.388 67.184 129.208 66.428 129.208 65.588C129.208 64.748 129.388 63.992 129.748 63.32C130.12 62.648 130.618 62.114 131.242 61.718C131.878 61.322 132.592 61.124 133.384 61.124C134.032 61.124 134.608 61.262 135.112 61.538C135.628 61.802 136.042 62.174 136.354 62.654C136.666 63.122 136.84 63.668 136.876 64.292V66.866C136.84 67.478 136.666 68.024 136.354 68.504C136.054 68.984 135.646 69.362 135.13 69.638C134.626 69.902 134.044 70.034 133.384 70.034ZM133.654 68.504C134.458 68.504 135.106 68.234 135.598 67.694C136.09 67.142 136.336 66.44 136.336 65.588C136.336 65 136.222 64.49 135.994 64.058C135.778 63.614 135.466 63.272 135.058 63.032C134.65 62.78 134.176 62.654 133.636 62.654C133.096 62.654 132.616 62.78 132.196 63.032C131.788 63.284 131.464 63.632 131.224 64.076C130.996 64.508 130.882 65.006 130.882 65.57C130.882 66.146 130.996 66.656 131.224 67.1C131.464 67.532 131.794 67.874 132.214 68.126C132.634 68.378 133.114 68.504 133.654 68.504ZM136.228 69.854V67.55L136.534 65.462L136.228 63.392V61.304H137.866V69.854H136.228ZM140.224 69.854V61.304H141.844V69.854H140.224ZM141.844 64.976L141.232 64.706C141.232 63.614 141.484 62.744 141.988 62.096C142.492 61.448 143.218 61.124 144.166 61.124C144.598 61.124 144.988 61.202 145.336 61.358C145.684 61.502 146.008 61.748 146.308 62.096L145.246 63.194C145.066 63.002 144.868 62.864 144.652 62.78C144.436 62.696 144.184 62.654 143.896 62.654C143.296 62.654 142.804 62.846 142.42 63.23C142.036 63.614 141.844 64.196 141.844 64.976ZM150.786 70.034C149.994 70.034 149.286 69.842 148.662 69.458C148.038 69.062 147.54 68.528 147.168 67.856C146.808 67.184 146.628 66.428 146.628 65.588C146.628 64.748 146.808 63.992 147.168 63.32C147.54 62.648 148.038 62.114 148.662 61.718C149.286 61.322 149.994 61.124 150.786 61.124C151.422 61.124 151.998 61.262 152.514 61.538C153.03 61.802 153.444 62.174 153.756 62.654C154.08 63.122 154.26 63.668 154.296 64.292V66.866C154.26 67.478 154.086 68.024 153.774 68.504C153.462 68.984 153.048 69.362 152.532 69.638C152.016 69.902 151.434 70.034 150.786 70.034ZM151.056 68.504C151.596 68.504 152.064 68.378 152.46 68.126C152.868 67.874 153.186 67.532 153.414 67.1C153.642 66.656 153.756 66.152 153.756 65.588C153.756 65 153.636 64.49 153.396 64.058C153.168 63.626 152.85 63.284 152.442 63.032C152.046 62.78 151.578 62.654 151.038 62.654C150.498 62.654 150.024 62.78 149.616 63.032C149.208 63.284 148.884 63.632 148.644 64.076C148.416 64.508 148.302 65.006 148.302 65.57C148.302 66.146 148.416 66.656 148.644 67.1C148.884 67.532 149.208 67.874 149.616 68.126C150.036 68.378 150.516 68.504 151.056 68.504ZM155.286 69.854H153.648V67.55L153.954 65.462L153.648 63.392V57.002H155.286V69.854ZM160.362 70.034C159.882 70.034 159.426 69.974 158.994 69.854C158.574 69.722 158.184 69.542 157.824 69.314C157.464 69.074 157.152 68.792 156.888 68.468L157.932 67.424C158.244 67.808 158.604 68.096 159.012 68.288C159.42 68.468 159.876 68.558 160.38 68.558C160.884 68.558 161.274 68.474 161.55 68.306C161.826 68.126 161.964 67.88 161.964 67.568C161.964 67.256 161.85 67.016 161.622 66.848C161.406 66.668 161.124 66.524 160.776 66.416C160.428 66.296 160.056 66.182 159.66 66.074C159.276 65.954 158.91 65.804 158.562 65.624C158.214 65.444 157.926 65.198 157.698 64.886C157.482 64.574 157.374 64.16 157.374 63.644C157.374 63.128 157.5 62.684 157.752 62.312C158.004 61.928 158.352 61.634 158.796 61.43C159.252 61.226 159.798 61.124 160.434 61.124C161.106 61.124 161.7 61.244 162.216 61.484C162.744 61.712 163.176 62.06 163.512 62.528L162.468 63.572C162.228 63.26 161.928 63.02 161.568 62.852C161.22 62.684 160.824 62.6 160.38 62.6C159.912 62.6 159.552 62.684 159.3 62.852C159.06 63.008 158.94 63.23 158.94 63.518C158.94 63.806 159.048 64.028 159.264 64.184C159.48 64.34 159.762 64.472 160.11 64.58C160.47 64.688 160.842 64.802 161.226 64.922C161.61 65.03 161.976 65.18 162.324 65.372C162.672 65.564 162.954 65.822 163.17 66.146C163.398 66.47 163.512 66.896 163.512 67.424C163.512 68.228 163.224 68.864 162.648 69.332C162.084 69.8 161.322 70.034 160.362 70.034Z" fill="#FFFBF1"/>
<path d="M45.91 44.6993L56.83 34.8593C53.34 31.5893 48.66 29.5693 43.5 29.5693C32.73 29.5693 24 38.2993 24 49.0693C24 59.8393 32.73 68.5693 43.5 68.5693C50.23 68.5693 56.17 65.1593 59.67 59.9693L45.91 44.6993Z" fill="#FFFBF1"/>
<path d="M43.5801 65.8994C52.5547 65.8994 59.8301 58.624 59.8301 49.6494C59.8301 40.6748 52.5547 33.3994 43.5801 33.3994C34.6054 33.3994 27.3301 40.6748 27.3301 49.6494C27.3301 58.624 34.6054 65.8994 43.5801 65.8994Z" fill="#40128B"/>
<path d="M42.4 49.5992L51.51 39.2492C49.34 37.6292 46.66 36.6592 43.75 36.6592C36.57 36.6592 30.75 42.4792 30.75 49.6592C30.75 56.8392 36.57 62.6592 43.75 62.6592C47.33 62.6592 50.58 61.2092 52.93 58.8592L42.4 49.5992Z" fill="#FFFBF1"/>
<path d="M48.4001 57.8394C46.9901 58.6694 45.3401 59.1494 43.5801 59.1494C38.3301 59.1494 34.0801 54.8994 34.0801 49.6494C34.0801 44.3994 38.3301 40.1494 43.5801 40.1494C45.8601 40.1494 47.9501 40.9494 49.5801 42.2894" fill="#40128B"/>
<path d="M48.4001 57.8394C46.9901 58.6694 45.3401 59.1494 43.5801 59.1494C38.3301 59.1494 34.0801 54.8994 34.0801 49.6494C34.0801 44.3994 38.3301 40.1494 43.5801 40.1494C45.8601 40.1494 47.9501 40.9494 49.5801 42.2894" stroke="#FFFBF1" stroke-width="0.5" stroke-miterlimit="10"/>
<path d="M49.5799 42.2896C51.7199 44.0296 53.0799 46.6796 53.0799 49.6496C53.0799 53.1396 51.1999 56.1896 48.3999 57.8396" fill="#40128B"/>
<path d="M49.5799 42.2896C51.7199 44.0296 53.0799 46.6796 53.0799 49.6496C53.0799 53.1396 51.1999 56.1896 48.3999 57.8396" stroke="#FFFBF1" stroke-width="0.5" stroke-miterlimit="10"/>
<path d="M43.5801 55.6494C46.8938 55.6494 49.5801 52.9631 49.5801 49.6494C49.5801 46.3357 46.8938 43.6494 43.5801 43.6494C40.2663 43.6494 37.5801 46.3357 37.5801 49.6494C37.5801 52.9631 40.2663 55.6494 43.5801 55.6494Z" fill="#FFFBF1"/>
<path d="M37.5999 49.0693H34.6299V76.1393H37.5999V49.0693Z" fill="#40128B"/>
<path d="M49.02 56.0393L52.91 59.2893L53.77 54.2993L49.02 56.0393Z" fill="#FFFBF1" stroke="#FFFBF1" stroke-miterlimit="10"/>
<path d="M56.6101 57.4693L60.7701 60.3593L61.2001 55.3193L56.6101 57.4693Z" fill="#FFFBF1" stroke="#FFFBF1" stroke-miterlimit="10"/>
</svg>
