<?xml version="1.0" encoding="utf-8"?>
<!-- Generator: Adobe Illustrator 19.0.0, SVG Export Plug-In . SVG Version: 6.00 Build 0)  -->
<svg version="1.1" id="layer" xmlns="http://www.w3.org/2000/svg" xmlns:xlink="http://www.w3.org/1999/xlink" x="0px" y="0px"
	 viewBox="-153 -46 652 652" width="500px" style="enable-background:new -153 -46 652 652;" xml:space="preserve">
<style type="text/css">
	.st0{fill:#EF4F23;}
	.st1{fill:#113A60;}
</style>
<path class="st0" d="M245.4,227.5h-12.6c0,0-0.3-0.3-0.3-1.1c0-0.8,0.3-1.2,0.3-1.2h12.6v-11.5c0,0,0.3-0.2,1.3-0.2
	c0.9,0,1.3,0.2,1.3,0.2v11.5h12.6c0,0,0.3,0.3,0.3,1.2c0,0.8-0.3,1.1-0.3,1.1h-12.6V239c0,0-0.3,0.2-1.3,0.2c-0.9,0-1.3-0.2-1.3-0.2
	V227.5z M-22.2,194.5h-85.5v45.3h54.9v4.8l-35.8,0c-0.3,0.5-0.7,2.5-0.7,6c0,3.5,0.5,5.5,0.7,5.9h48.9v-28.6h-54.9v-21.4h72.4
	c0.3-0.5,0.7-2.5,0.7-6C-21.4,197-21.9,195-22.2,194.5 M-9.7,206.4c3.8,0,6-0.4,6.5-0.7v-27.9H-126v111.9H-3.1v-27.9
	c-0.5-0.3-2.7-0.7-6.5-0.7c-3.8,0-6,0.4-6.5,0.7v16h-96.7v-88.1h96.7v16C-15.7,206-13.5,206.4-9.7,206.4 M-101.2,244.5
	c-3.8,0-6,0.4-6.5,0.7v27.9h86.3v-61.9h-67.2c-0.3,0.5-0.7,2.5-0.7,6c0,3.5,0.5,5.5,0.7,6h54.1v38.1h-60.1v-16
	C-95.1,245-97.4,244.5-101.2,244.5"/>
<path class="st1" d="M42.9,223.4c5.3,1.8,10.6,4.3,10.6,11.2c0,7.5-5.1,11.5-15.2,11.5c-8.1,0-13.1-2.4-13.1-2.4
	c-0.1-1.8,0.6-3.9,1.8-5.5c0,0,5.7,1.7,11.1,1.7c5.5,0,7.8-1.8,7.8-5.2c0-2.9-2.6-4.2-6.1-5.4c-6.1-2-14.5-3.3-14.5-11.6
	c0-6.8,4.8-11.3,14.8-11.3c7.3,0,11.8,1.6,11.8,1.6c0,1.9-0.6,4-2,5.4c0,0-3.8-1.2-8.8-1.2c-5.7,0-8.4,1.7-8.4,5.2
	C32.6,220.8,37.7,221.7,42.9,223.4 M74.8,207c2.9,0,4.6,0.5,4.6,0.5l14.1,37.7c0,0-1.4,0.5-4.1,0.5c-2.5,0-3.7-0.5-3.7-0.5l-3.2-8.6
	H66.4l-3.2,8.6c0,0-1.3,0.5-3.7,0.5c-2.2,0-3.5-0.5-3.5-0.5l14.1-37.7C70.2,207.5,72.1,207,74.8,207 M80.5,231l-4-10.9
	c-1.2-3.3-1.8-6-1.8-6h-0.2c0,0-0.6,2.7-1.8,6L68.5,231H80.5z M98.6,207v38.1c0,0,1.2,0.5,3.7,0.5c2.5,0,3.8-0.5,3.8-0.5v-15.5h14.4
	c0.4-0.9,0.6-1.9,0.6-2.9c0-1-0.2-1.9-0.6-2.6h-14.4v-11.6h16.2c0.4-0.9,0.6-1.8,0.6-2.8s-0.2-1.9-0.6-2.7H98.6z M136.2,240.1v-11.2
	H150c0.4-0.9,0.6-1.9,0.6-2.8c0-0.9-0.2-1.8-0.6-2.7h-13.8v-10.8H153c0.4-0.9,0.6-1.9,0.6-3c0-0.9-0.2-1.8-0.6-2.6h-24.3v38.6h24.9
	c0.4-0.9,0.6-1.9,0.6-2.8c0-0.9-0.2-1.8-0.6-2.7H136.2z M158.6,207c0,0-0.6,1.3-0.6,3c0,1.8,0.6,2.9,0.6,2.9h10.7v32.2
	c0,0,1.1,0.5,3.8,0.5c2.4,0,3.8-0.5,3.8-0.5v-32.2h10.4c0,0,0.6-1.3,0.6-3c0-1.6-0.6-2.9-0.6-2.9H158.6z M223.4,207
	c-2.5,0-3.9,0.5-3.9,0.5l-9.7,15.2l-9.6-15.2c0,0-1.5-0.5-4.2-0.5c-3,0-4.6,0.5-4.6,0.5l14.1,22.2v15.4c0,0,1.2,0.5,3.9,0.5
	c2.4,0,3.7-0.5,3.7-0.5v-15.6l14.5-22C227.6,207.5,225.8,207,223.4,207 M279.2,207.5v27.4c0,4-2.9,5.4-6.5,5.4
	c-2.7,0-5.1-0.8-5.1-0.8c-1.4,1.3-2.1,3.1-2,5.1c0,0,4.1,1.6,8.9,1.6c7,0,12.3-3.8,12.3-11.5v-27.1c0,0-1.2-0.5-3.8-0.5
	C280.2,207,279.2,207.5,279.2,207.5 M318.1,207.5v25.7c0,4.5-2.8,7.2-7.8,7.2c-5.1,0-7.9-2.7-7.9-7.2v-25.7c0,0-1.3-0.5-3.8-0.5
	c-2.5,0-3.7,0.5-3.7,0.5v24.6c0,8.9,6,14.1,15.3,14.1c9.3,0,15.4-5,15.4-14.1v-24.6c0,0-1.3-0.5-3.8-0.5
	C319.3,207,318.1,207.5,318.1,207.5 M349.4,223.4c-5.1-1.7-10.2-2.6-10.2-6c0-3.5,2.7-5.2,8.4-5.2c4.9,0,8.8,1.2,8.8,1.2
	c1.4-1.3,2-3.5,2-5.4c0,0-4.5-1.6-11.8-1.6c-10,0-14.8,4.6-14.8,11.3c0,8.4,8.4,9.7,14.5,11.6c3.5,1.1,6.1,2.5,6.1,5.4
	c0,3.4-2.3,5.2-7.8,5.2c-5.4,0-11.1-1.7-11.1-1.7c-1.1,1.6-1.8,3.6-1.8,5.5c0,0,5.1,2.4,13.1,2.4c10.1,0,15.2-4.1,15.2-11.5
	C360,227.7,354.7,225.2,349.4,223.4 M364,207c0,0-0.6,1.3-0.6,3c0,1.8,0.6,2.9,0.6,2.9h10.7v32.2c0,0,1.1,0.5,3.8,0.5
	c2.4,0,3.8-0.5,3.8-0.5v-32.2h10.4c0,0,0.6-1.3,0.6-3c0-1.6-0.6-2.9-0.6-2.9H364z M398.6,207.5v37.7c0,0,1.1,0.5,3.8,0.5
	c2.4,0,3.8-0.5,3.8-0.5v-37.7c0,0-1.3-0.5-3.8-0.5C399.8,207,398.6,207.5,398.6,207.5 M431.7,240.2c-6.2,0-10.8-2.7-10.8-13.8
	c0-11.1,4.5-14.1,10.8-14.1c3.8,0,7.1,1.1,7.1,1.1c1.4-1.3,2.4-2.9,2.2-5.1c0,0-3.7-1.9-10.2-1.9c-11.7,0-17.8,6.9-17.8,19.8
	c0,12.9,6.2,19.8,17.8,19.8c6.8,0,10.8-1.9,10.8-1.9c0-2-0.8-4-2.2-5.2C439.4,239,435.9,240.2,431.7,240.2 M472,240.1h-17.4v-11.2
	h13.8c0.4-0.9,0.6-1.9,0.6-2.8c0-0.9-0.2-1.8-0.6-2.7h-13.8v-10.8h16.8c0.4-0.9,0.6-1.9,0.6-3c0-0.9-0.2-1.8-0.6-2.6h-24.3v38.6H472
	c0.4-0.9,0.6-1.9,0.6-2.8C472.6,241.8,472.4,240.9,472,240.1 M37.3,288c-6.9,0-11.5-3.3-11.5-15.1c0-11.8,4.6-15.3,11.5-15.3
	c4.4,0,7.4,1.3,7.4,1.3c0.5-0.5,0.8-1.1,0.9-1.9c0,0-3-1.6-8.6-1.6c-9.3,0-13.9,5.9-13.9,17.4c0,11.7,4.6,17.4,13.9,17.4
	c6.1,0,9.2-1.6,9.2-1.6c-0.1-0.7-0.4-1.5-0.9-1.9C45.3,286.8,42.1,288,37.3,288 M74.4,256.1v15.2h-19v-15.2c0,0-0.5-0.2-1.3-0.2
	c-0.9,0-1.3,0.2-1.3,0.2v33.5c0,0,0.4,0.2,1.3,0.2c0.9,0,1.3-0.2,1.3-0.2v-16h19v16c0,0,0.3,0.2,1.3,0.2c0.9,0,1.3-0.2,1.3-0.2
	v-33.5c0,0-0.5-0.2-1.3-0.2C74.9,255.9,74.4,256.1,74.4,256.1 M98.8,255.9c0.9,0,1.3,0.2,1.3,0.2l14.2,33.5c0,0-0.5,0.2-1.4,0.2
	c-0.9,0-1.4-0.2-1.4-0.2l-4.1-9.6H90l-4.1,9.6c0,0-0.4,0.2-1.4,0.2c-0.9,0-1.2-0.2-1.2-0.2l14.2-33.5
	C97.4,256.1,97.9,255.9,98.8,255.9 M106.5,277.8l-6.9-16.3c-0.6-1.5-0.8-2.4-0.8-2.4h-0.1c0,0-0.3,1-0.8,2.4l-7,16.3H106.5z
	 M123.1,287.6v-31.5c0,0-0.4-0.2-1.3-0.2c-0.9,0-1.3,0.2-1.3,0.2v33.7h19.4c0.1-0.2,0.2-0.6,0.2-1.1c0-0.5-0.2-0.9-0.2-1.1H123.1z
	 M148.9,287.6v-31.5c0,0-0.4-0.2-1.3-0.2c-0.9,0-1.3,0.2-1.3,0.2v33.7h19.4c0.1-0.2,0.2-0.6,0.2-1.1c0-0.5-0.2-0.9-0.2-1.1H148.9z
	 M174.8,287.6v-14h14.9c0.2-0.3,0.2-0.7,0.2-1.1c0-0.4-0.1-0.7-0.2-1h-14.9v-13.4h17.5c0.2-0.3,0.2-0.7,0.2-1.1c0-0.4-0.1-0.8-0.2-1
	h-20.2v33.9h20.7c0.2-0.3,0.2-0.7,0.2-1.1c0-0.4-0.1-0.7-0.2-1H174.8z M222.6,256.1v24.2c0,3.7,0.2,6.3,0.2,6.3h-0.1
	c0,0-1.1-2.3-2.7-4.8l-17-25.6c0,0-0.5-0.2-1.5-0.2c-1,0-1.6,0.2-1.6,0.2v33.5c0,0,0.4,0.2,1.2,0.2c0.9,0,1.3-0.2,1.3-0.2v-23.9
	c0-4.5-0.2-6.6-0.2-6.6h0.1c0,0,0.8,1.9,2.6,4.5l17.1,26c0,0,0.5,0.2,1.6,0.2s1.5-0.2,1.5-0.2v-33.5c0,0-0.4-0.2-1.2-0.2
	C222.9,255.9,222.6,256.1,222.6,256.1 M245.5,273c0,0.7,0.2,1.1,0.2,1.1h9.3v13.3c-1.2,0.2-3.9,0.8-7,0.8c-6.9,0-12.1-3.3-12.1-15.1
	c0-11.8,5.2-15.3,12.1-15.3c4.5,0,8.2,1.2,8.2,1.2c0.5-0.5,0.8-1.2,0.9-1.8c0,0-3.5-1.6-9.4-1.6c-9.3,0-14.6,5.9-14.6,17.4
	c0,11.7,5.3,17.4,14.6,17.4c6.2,0,10-1.6,10-1.6v-16.8h-11.9C245.7,271.9,245.5,272.2,245.5,273 M286.6,287.6h-18v-14h14.9
	c0.2-0.3,0.2-0.7,0.2-1.1c0-0.4-0.1-0.7-0.2-1h-14.9v-13.4h17.5c0.2-0.3,0.2-0.7,0.2-1.1c0-0.4-0.1-0.8-0.2-1h-20.2v33.9h20.7
	c0.2-0.3,0.2-0.7,0.2-1.1C286.8,288.3,286.7,288,286.6,287.6 M-115.9,317.8c-5.3,0-8.1,2.5-8.1,6.2c0,4.5,4.2,5.3,7.8,6.3
	c2.7,0.7,5,1.5,5,4.2c0,2.7-2,4.1-5.9,4.1c-3.2,0-6.3-1-6.3-1c-0.4,0.5-0.6,1.2-0.6,1.8c0,0,2.8,1.2,7.1,1.2c5.4,0,8.3-2.3,8.3-6.3
	c0-4.2-3.3-5.4-6.7-6.3c-3.4-0.9-6.3-1.5-6.3-4.3c0-2.5,1.9-4.1,5.9-4.1c3,0,5.4,0.7,5.4,0.7c0.4-0.5,0.7-1.1,0.7-1.8
	C-109.4,318.6-112,317.8-115.9,317.8 M-104.8,336.1c0,2.8,1.9,4.7,5.3,4.7c2.4,0,4.3-0.9,5.7-2.4v2c0,0,0.4,0.2,1.2,0.2
	c0.9,0,1.2-0.2,1.2-0.2v-16c0,0-0.4-0.2-1.2-0.2c-0.8,0-1.2,0.2-1.2,0.2v11.8c-1.1,1.8-2.9,2.8-4.7,2.8c-2.5,0-3.7-1.1-3.7-3.2
	v-11.4c0,0-0.4-0.2-1.2-0.2c-0.8,0-1.2,0.2-1.2,0.2V336.1z M-78.9,323.8c-2.6,0-4.3,0.9-5.3,2.4v-2c0,0-0.4-0.2-1.2-0.2
	c-0.9,0-1.2,0.2-1.2,0.2v23.5c0,0,0.4,0.2,1.2,0.2c0.9,0,1.2-0.2,1.2-0.2v-9.4c1,1.5,2.6,2.4,5.3,2.4c4,0,6.5-2.1,6.5-8.5
	C-72.4,325.9-75,323.8-78.9,323.8 M-79.8,325.7c3.3,0,4.8,1.7,4.8,6.6c0,4.9-1.5,6.6-4.8,6.6c-2.9,0-4.4-2.3-4.4-4.6v-4
	C-84.2,327.9-82.6,325.7-79.8,325.7 M-60.5,323.8c-2.6,0-4.3,0.9-5.3,2.4v-2c0,0-0.4-0.2-1.2-0.2c-0.9,0-1.2,0.2-1.2,0.2v23.5
	c0,0,0.4,0.2,1.2,0.2c0.9,0,1.2-0.2,1.2-0.2v-9.4c1,1.5,2.6,2.4,5.3,2.4c4,0,6.5-2.1,6.5-8.5C-54,325.9-56.5,323.8-60.5,323.8
	 M-61.3,325.7c3.3,0,4.8,1.7,4.8,6.6c0,4.9-1.5,6.6-4.8,6.6c-2.9,0-4.4-2.3-4.4-4.6v-4C-65.7,327.9-64.2,325.7-61.3,325.7
	 M-43.2,323.8c-4.6,0-7.3,2.3-7.3,8.5c0,6.2,2.7,8.5,7.3,8.5c4.6,0,7.3-2.3,7.3-8.5C-35.9,326.1-38.6,323.8-43.2,323.8 M-43.2,325.6
	c2.9,0,4.8,1.5,4.8,6.7c0,5.2-1.8,6.7-4.8,6.7c-2.9,0-4.8-1.5-4.8-6.7C-48,327.1-46.2,325.6-43.2,325.6 M-24.8,323.8
	c-1.4,0-3.2,0.6-4.6,3v-2.5c0,0-0.4-0.2-1.2-0.2c-0.9,0-1.2,0.2-1.2,0.2v16c0,0,0.4,0.2,1.2,0.2c0.9,0,1.2-0.2,1.2-0.2v-11.3
	c1-1.9,2.5-3.1,4.1-3.1c0.9,0,1.6,0.2,2.3,0.6c0.7-0.5,1-1.1,1.1-1.9C-22.3,324.3-23.3,323.8-24.8,323.8 M-14.3,325.9h4.9
	c0,0,0.2-0.3,0.2-0.9c0-0.6-0.2-0.9-0.2-0.9h-4.9v-3.5c-0.9-0.1-1.8,0.1-2.5,0.5v3h-2.7c0,0-0.2,0.3-0.2,0.9c0,0.6,0.2,0.9,0.2,0.9
	h2.7v9c0,3.8,1.4,5.9,5.4,5.9c1.1,0,2-0.2,2.4-0.2c0,0,0.1-0.3,0.1-0.8c0-0.6-0.2-0.9-0.2-0.9s-0.8,0.2-1.7,0.2
	c-2.7,0-3.6-1.1-3.6-4.1V325.9z M6.5,333c0,0,0.4-1.3,0.4-3.2c0-3.8-2.3-6-6.4-6c-4.4,0-7.3,2.5-7.3,8.4c0,5.6,2.5,8.6,7.4,8.6
	c3.7,0,5.5-1.4,5.5-1.4c0-0.7-0.4-1.3-0.9-1.6c0,0-1.6,1-4.2,1c-3.3,0-5-1.5-5.3-5.8H6.5z M0.4,325.6c2.9,0,4,1.8,4,3.9
	c0,1-0.1,1.6-0.1,1.8h-8.7C-4.1,327.3-2.3,325.6,0.4,325.6 M23.2,317.1c-0.9,0-1.2,0.2-1.2,0.2v8.9c-1-1.5-2.7-2.4-5.3-2.4
	c-4,0-6.5,2.1-6.5,8.5c0,6.3,2.6,8.5,6.5,8.5c2.7,0,4.4-1,5.4-2.5l0.2,2.1c0,0,0.4,0.2,1.1,0.2c0.6,0,1-0.2,1-0.2v-23
	C24.4,317.3,24,317.1,23.2,317.1 M17.5,325.7c2.9,0,4.4,2.3,4.4,4.6v4c0,2.3-1.5,4.6-4.4,4.6c-3.3,0-4.8-1.7-4.8-6.6
	C12.7,327.4,14.2,325.7,17.5,325.7 M39.7,317.3c0,0-0.4-0.2-1.2-0.2c-0.9,0-1.2,0.2-1.2,0.2v23c0,0,0.4,0.2,1.2,0.2
	c0.9,0,1.2-0.2,1.2-0.2v-2c1,1.5,2.6,2.4,5.3,2.4c4,0,6.5-2.1,6.5-8.5c0-6.3-2.6-8.5-6.5-8.5c-2.6,0-4.3,0.9-5.3,2.4V317.3z
	 M44.1,325.7c3.3,0,4.8,1.7,4.8,6.6c0,4.9-1.5,6.6-4.8,6.6c-2.9,0-4.4-2.3-4.4-4.6v-4C39.7,327.9,41.3,325.7,44.1,325.7 M69.5,324.2
	c0,0-0.4-0.2-1.2-0.2c-0.9,0-1.2,0.2-1.2,0.2l-4,10.7c-0.7,2-1.1,3.3-1.1,3.3h-0.1c0,0-0.4-1.4-1.2-3.3L56,324.2
	c0,0-0.4-0.2-1.3-0.2c-0.9,0-1.3,0.2-1.3,0.2l6.8,16c0.3,0.1,0.5,0.2,0.8,0.2l-1,2.6c-1,2.7-1.8,3.3-3.3,3.3c-0.8,0-1.5-0.2-1.5-0.2
	c-0.1,0.1-0.2,0.5-0.2,0.9c0,0.4,0.2,0.8,0.2,0.9c0,0,0.7,0.2,1.7,0.2c3.1,0,4.2-1.8,5.3-4.8L69.5,324.2z M84.1,325.9h4.9
	c0,0,0.2-0.3,0.2-0.9c0-0.6-0.2-0.9-0.2-0.9h-4.9v-3.5c-0.9-0.1-1.8,0.1-2.5,0.5v3h-2.7c0,0-0.2,0.3-0.2,0.9c0,0.6,0.2,0.9,0.2,0.9
	h2.7v9c0,3.8,1.4,5.9,5.4,5.9c1.1,0,2-0.2,2.4-0.2c0,0,0.1-0.3,0.1-0.8c0-0.6-0.2-0.9-0.2-0.9s-0.8,0.2-1.7,0.2
	c-2.7,0-3.6-1.1-3.6-4.1V325.9z M106.1,328.4c0-2.8-1.9-4.7-5.3-4.7c-2.4,0-4.3,0.9-5.7,2.4v-8.9c0,0-0.4-0.2-1.2-0.2
	c-0.9,0-1.2,0.2-1.2,0.2v23c0,0,0.4,0.2,1.2,0.2c0.8,0,1.2-0.2,1.2-0.2v-11.8c1-1.8,2.9-2.8,4.8-2.8c2.5,0,3.7,1.1,3.7,3.2v11.4
	c0,0,0.4,0.2,1.2,0.2c0.8,0,1.2-0.2,1.2-0.2V328.4z M123.4,333c0,0,0.4-1.3,0.4-3.2c0-3.8-2.3-6-6.4-6c-4.4,0-7.3,2.5-7.3,8.4
	c0,5.6,2.5,8.6,7.4,8.6c3.7,0,5.5-1.4,5.5-1.4c0-0.7-0.4-1.3-0.9-1.6c0,0-1.6,1-4.2,1c-3.3,0-5-1.5-5.3-5.8H123.4z M117.4,325.6
	c2.9,0,4,1.8,4,3.9c0,1-0.1,1.6-0.1,1.8h-8.7C112.8,327.3,114.7,325.6,117.4,325.6 M142.1,335c0,2.8-1.6,3.7-3.9,3.7
	c-1.9,0-3.7-0.7-3.7-0.7c-0.5,0.4-0.7,1.1-0.7,1.8c0,0,2.1,0.9,4.8,0.9c3.8,0,6-1.8,6-5.8v-16.7c0,0-0.4-0.2-1.3-0.2
	c-0.9,0-1.3,0.2-1.3,0.2V335z M156.4,323.8c-4.6,0-7.3,2.3-7.3,8.5c0,6.2,2.7,8.5,7.3,8.5c4.6,0,7.3-2.3,7.3-8.5
	C163.7,326.1,160.9,323.8,156.4,323.8 M156.4,325.6c2.9,0,4.8,1.5,4.8,6.7c0,5.2-1.8,6.7-4.8,6.7c-2.9,0-4.8-1.5-4.8-6.7
	C151.6,327.1,153.4,325.6,156.4,325.6 M181.1,328.4c0-2.8-1.9-4.7-5.3-4.7c-2.4,0-4.3,0.9-5.7,2.4v-8.9c0,0-0.4-0.2-1.2-0.2
	c-0.9,0-1.2,0.2-1.2,0.2v23c0,0,0.4,0.2,1.2,0.2c0.8,0,1.2-0.2,1.2-0.2v-11.8c1-1.8,2.9-2.8,4.8-2.8c2.5,0,3.7,1.1,3.7,3.2v11.4
	c0,0,0.4,0.2,1.2,0.2c0.8,0,1.2-0.2,1.2-0.2V328.4z M199.2,328.4c0-2.8-1.9-4.7-5.3-4.7c-2.4,0-4.3,0.9-5.7,2.4v-2
	c0,0-0.4-0.2-1.2-0.2c-0.9,0-1.2,0.2-1.2,0.2v16c0,0,0.4,0.2,1.2,0.2c0.8,0,1.2-0.2,1.2-0.2v-11.8c1-1.8,2.9-2.8,4.8-2.8
	c2.5,0,3.7,1.1,3.7,3.2v11.4c0,0,0.4,0.2,1.2,0.2c0.8,0,1.2-0.2,1.2-0.2V328.4z M212.5,318.1v22.4h7.1c6.4,0,9.9-2.8,9.9-11.2
	c0-8.4-3.5-11.2-9.9-11.2H212.5z M215.1,338.5V320h4.4c4.7,0,7.4,1.7,7.4,9.2c0,7.5-2.8,9.2-7.4,9.2H215.1z M235.9,338
	c0,0-0.5-0.2-1.4-0.2c-1,0-1.4,0.2-1.4,0.2v2.3c0,0,0.4,0.2,1.4,0.2c0.9,0,1.4-0.2,1.4-0.2V338z M254.5,323.8
	c-3.2,0-5.8,1.1-5.8,1.1c0,0.1,0,0.5,0.2,1c0.2,0.4,0.5,0.7,0.6,0.7c0,0,2.2-0.8,4.8-0.8c2.8,0,4,1.1,4,3.8v1.7
	c-0.9-0.1-2.6-0.2-4.5-0.2c-4.3,0-6.4,1.6-6.4,4.8c0,3.3,2.1,5,5.3,5c2.7,0,4.8-1,5.7-2.8l0.4,2.3c0,0,0.4,0.2,1,0.2
	c0.7,0,1-0.2,1-0.2v-10.2C260.7,325.9,259.4,323.8,254.5,323.8 M254.1,332.5c1.6,0,3.3,0.2,4.1,0.2v1.2c0,2.8-1.8,4.9-4.8,4.9
	c-2.1,0-3.5-0.9-3.5-3.2C249.8,333.5,251.2,332.5,254.1,332.5 M278.7,328.4c0-2.8-1.9-4.7-5.3-4.7c-2.4,0-4.3,0.9-5.7,2.4v-2
	c0,0-0.4-0.2-1.2-0.2c-0.9,0-1.2,0.2-1.2,0.2v16c0,0,0.4,0.2,1.2,0.2c0.8,0,1.2-0.2,1.2-0.2v-11.8c1-1.8,2.9-2.8,4.8-2.8
	c2.5,0,3.7,1.1,3.7,3.2v11.4c0,0,0.4,0.2,1.2,0.2c0.8,0,1.2-0.2,1.2-0.2V328.4z M295.8,317.1c-0.9,0-1.2,0.2-1.2,0.2v8.9
	c-1-1.5-2.7-2.4-5.3-2.4c-4,0-6.5,2.1-6.5,8.5c0,6.3,2.6,8.5,6.5,8.5c2.7,0,4.4-1,5.4-2.5l0.2,2.1c0,0,0.4,0.2,1.1,0.2
	c0.6,0,1-0.2,1-0.2v-23C297,317.3,296.7,317.1,295.8,317.1 M290.1,325.7c2.9,0,4.4,2.3,4.4,4.6v4c0,2.3-1.5,4.6-4.4,4.6
	c-3.3,0-4.8-1.7-4.8-6.6C285.3,327.4,286.8,325.7,290.1,325.7 M318.9,317.8c-6.3,0-9.5,3.9-9.5,11.5c0,7.7,3.2,11.5,9.5,11.5
	c4,0,6.1-1.1,6.1-1.1c0-0.7-0.3-1.3-0.8-1.8c0,0-2,0.8-5,0.8c-4.3,0-7.2-2-7.2-9.4c0-7.4,2.9-9.5,7.2-9.5c2.7,0,4.7,0.8,4.7,0.8
	c0.5-0.4,0.8-1,0.8-1.7C324.7,318.8,322.7,317.8,318.9,317.8 M334.8,323.8c-3.2,0-5.8,1.1-5.8,1.1c0,0.1,0,0.5,0.2,1
	c0.2,0.4,0.5,0.7,0.6,0.7c0,0,2.2-0.8,4.8-0.8c2.8,0,4,1.1,4,3.8v1.7c-0.9-0.1-2.6-0.2-4.5-0.2c-4.3,0-6.4,1.6-6.4,4.8
	c0,3.3,2.1,5,5.3,5c2.7,0,4.8-1,5.7-2.8l0.4,2.3c0,0,0.4,0.2,1,0.2c0.7,0,1-0.2,1-0.2v-10.2C341,325.9,339.7,323.8,334.8,323.8
	 M334.4,332.5c1.6,0,3.3,0.2,4.1,0.2v1.2c0,2.8-1.8,4.9-4.8,4.9c-2.1,0-3.5-0.9-3.5-3.2C330.2,333.5,331.6,332.5,334.4,332.5
	 M349.2,325.9h4.9c0,0,0.2-0.3,0.2-0.9c0-0.6-0.2-0.9-0.2-0.9h-4.9v-3.5c-0.9-0.1-1.8,0.1-2.5,0.5v3H344c0,0-0.2,0.3-0.2,0.9
	c0,0.6,0.2,0.9,0.2,0.9h2.7v9c0,3.8,1.4,5.9,5.4,5.9c1.1,0,2-0.2,2.4-0.2c0,0,0.1-0.3,0.1-0.8c0-0.6-0.2-0.9-0.2-0.9
	s-0.8,0.2-1.7,0.2c-2.7,0-3.6-1.1-3.6-4.1V325.9z M371.2,328.4c0-2.8-1.9-4.7-5.3-4.7c-2.4,0-4.3,0.9-5.7,2.4v-8.9
	c0,0-0.4-0.2-1.2-0.2c-0.9,0-1.2,0.2-1.2,0.2v23c0,0,0.4,0.2,1.2,0.2c0.8,0,1.2-0.2,1.2-0.2v-11.8c1-1.8,2.9-2.8,4.8-2.8
	c2.5,0,3.7,1.1,3.7,3.2v11.4c0,0,0.4,0.2,1.2,0.2c0.8,0,1.2-0.2,1.2-0.2V328.4z M388.5,333c0,0,0.4-1.3,0.4-3.2c0-3.8-2.3-6-6.4-6
	c-4.4,0-7.3,2.5-7.3,8.4c0,5.6,2.5,8.6,7.4,8.6c3.6,0,5.5-1.4,5.5-1.4c0-0.7-0.4-1.3-0.9-1.6c0,0-1.6,1-4.2,1c-3.3,0-5-1.5-5.3-5.8
	H388.5z M382.5,325.6c2.9,0,4,1.8,4,3.9c0,1-0.1,1.6-0.1,1.8h-8.7C377.9,327.3,379.8,325.6,382.5,325.6 M399.8,323.8
	c-1.4,0-3.2,0.6-4.6,3v-2.5c0,0-0.4-0.2-1.2-0.2c-0.9,0-1.2,0.2-1.2,0.2v16c0,0,0.4,0.2,1.2,0.2c0.9,0,1.2-0.2,1.2-0.2v-11.3
	c1-1.9,2.5-3.1,4.1-3.1c0.9,0,1.6,0.2,2.3,0.6c0.7-0.5,1-1.1,1.1-1.9C402.3,324.3,401.3,323.8,399.8,323.8 M408.5,318.3
	c0,0-0.5-0.2-1.4-0.2c-1,0-1.4,0.2-1.4,0.2v2.3c0,0,0.4,0.2,1.4,0.2c0.9,0,1.4-0.2,1.4-0.2V318.3z M408.4,324.2c0,0-0.4-0.2-1.2-0.2
	c-0.9,0-1.2,0.2-1.2,0.2v16c0,0,0.3,0.2,1.2,0.2c0.8,0,1.2-0.2,1.2-0.2V324.2z M426.5,328.4c0-2.8-1.9-4.7-5.3-4.7
	c-2.4,0-4.3,0.9-5.7,2.4v-2c0,0-0.4-0.2-1.2-0.2c-0.9,0-1.2,0.2-1.2,0.2v16c0,0,0.4,0.2,1.2,0.2c0.8,0,1.2-0.2,1.2-0.2v-11.8
	c1-1.8,2.9-2.8,4.8-2.8c2.5,0,3.7,1.1,3.7,3.2v11.4c0,0,0.4,0.2,1.2,0.2c0.8,0,1.2-0.2,1.2-0.2V328.4z M443.8,333
	c0,0,0.4-1.3,0.4-3.2c0-3.8-2.3-6-6.4-6c-4.4,0-7.3,2.5-7.3,8.4c0,5.6,2.5,8.6,7.4,8.6c3.6,0,5.5-1.4,5.5-1.4c0-0.7-0.4-1.3-0.9-1.6
	c0,0-1.6,1-4.2,1c-3.3,0-5-1.5-5.3-5.8H443.8z M437.8,325.6c2.9,0,4,1.8,4,3.9c0,1-0.1,1.6-0.1,1.8H433
	C433.2,327.3,435.1,325.6,437.8,325.6 M454.6,318.1c0,0-0.2,0.4-0.2,1c0,0.6,0.2,1,0.2,1h6.8v20.2c0,0,0.4,0.2,1.3,0.2
	c0.8,0,1.3-0.2,1.3-0.2v-20.2h6.7c0,0,0.2-0.4,0.2-1c0-0.6-0.2-1-0.2-1H454.6z M474,338c0,0-0.5-0.2-1.4-0.2c-1,0-1.4,0.2-1.4,0.2
	v2.3c0,0,0.4,0.2,1.4,0.2c0.9,0,1.4-0.2,1.4-0.2V338z M-102.4,357.3c-0.7,0-1.3,0.1-1.6,0.2c-2.2,3.7-4.4,7.4-6.7,11.1
	c-0.7,1.1-1.1,1.9-1.2,2.3h-0.1c-0.2-0.7-0.9-2-1.8-3.5l-5.9-9.9c0,0-0.7-0.2-1.5-0.2c-1,0-1.5,0.2-1.5,0.2v22c0,0,0.4,0.2,1.2,0.2
	c0.8,0,1.2-0.2,1.2-0.2v-13.3c0-2.7-0.1-5.2-0.3-6.1h0.1c0.2,0.8,1.3,2.8,2.4,4.6c1.8,3.1,3.6,6.1,5.5,9.1c0,0,0.3,0.1,0.8,0.1
	c0.5,0,0.9-0.1,0.9-0.1l5.7-9.2c1.1-1.9,2-3.8,2.3-4.6h0.1c-0.1,1.1-0.2,3.5-0.2,6.2v13.2c0,0,0.4,0.2,1.3,0.2
	c0.8,0,1.3-0.2,1.3-0.2v-22C-100.7,357.4-101.3,357.3-102.4,357.3 M-89.4,363c-3.2,0-5.8,1.1-5.8,1.1c0,0.1,0,0.5,0.2,1
	c0.2,0.4,0.5,0.7,0.6,0.7c0,0,2.2-0.8,4.8-0.8c2.8,0,4,1.1,4,3.8v1.7c-0.9-0.1-2.6-0.2-4.5-0.2c-4.3,0-6.4,1.6-6.4,4.8
	c0,3.3,2.1,5,5.3,5c2.7,0,4.8-1,5.7-2.8l0.4,2.3c0,0,0.4,0.2,1,0.2c0.7,0,1-0.2,1-0.2v-10.2C-83.2,365.1-84.5,363-89.4,363
	 M-89.8,371.7c1.6,0,3.3,0.2,4.1,0.2v1.2c0,2.8-1.8,4.9-4.8,4.9c-2.1,0-3.5-0.9-3.5-3.2C-94.1,372.7-92.7,371.7-89.8,371.7
	 M-76.8,371.5c0-4.4,1.6-6.6,5.2-6.6c1.9,0,3.1,0.5,3.1,0.5c0.5-0.4,0.7-1,0.7-1.7c0,0-1.3-0.7-4.3-0.7c-4.8,0-7.3,3-7.3,8.5
	c0,5.5,2.6,8.5,7.3,8.5c3.1,0,4.7-0.9,4.7-0.9c0-0.7-0.3-1.3-0.8-1.6c0,0-1.3,0.6-3.3,0.6C-75.1,377.9-76.8,375.9-76.8,371.5
	 M-54.4,357.3c-0.9,0-1.4,0.2-1.4,0.2l-9,22c0,0,0.4,0.2,1.2,0.2c0.8,0,1.2-0.2,1.2-0.2l2.5-5.9H-49l2.5,5.9c0,0,0.4,0.2,1.2,0.2
	c1,0,1.4-0.2,1.4-0.2l-9-22C-53,357.4-53.5,357.3-54.4,357.3 M-54.4,359.9c0,0,0.2,0.9,0.7,2.1l4,9.5h-9.4l4-9.5
	c0.5-1.2,0.7-2.1,0.7-2.1H-54.4z M-33.6,363c-1.4,0-3.2,0.6-4.6,3v-2.5c0,0-0.4-0.2-1.2-0.2c-0.9,0-1.2,0.2-1.2,0.2v16
	c0,0,0.4,0.2,1.2,0.2c0.9,0,1.2-0.2,1.2-0.2v-11.3c1-1.9,2.5-3.1,4.1-3.1c0.9,0,1.6,0.2,2.3,0.6c0.7-0.5,1-1.1,1.1-1.9
	C-31.2,363.5-32.2,363-33.6,363 M-23.2,365h4.9c0,0,0.2-0.3,0.2-0.9c0-0.6-0.2-0.9-0.2-0.9h-4.9v-3.5c-0.9-0.1-1.8,0.1-2.5,0.5v3
	h-2.7c0,0-0.2,0.3-0.2,0.9c0,0.6,0.2,0.9,0.2,0.9h2.7v9c0,3.8,1.4,5.9,5.4,5.9c1.1,0,2-0.2,2.4-0.2c0,0,0.1-0.3,0.1-0.8
	c0-0.6-0.2-0.9-0.2-0.9s-0.8,0.2-1.7,0.2c-2.7,0-3.6-1.1-3.6-4.1V365z M-1.1,367.6c0-2.8-1.9-4.7-5.3-4.7c-2.4,0-4.3,0.9-5.7,2.4
	v-8.9c0,0-0.4-0.2-1.2-0.2c-0.9,0-1.2,0.2-1.2,0.2v23c0,0,0.4,0.2,1.2,0.2c0.8,0,1.2-0.2,1.2-0.2v-11.8c1-1.8,2.9-2.8,4.8-2.8
	c2.5,0,3.7,1.1,3.7,3.2v11.4c0,0,0.4,0.2,1.2,0.2c0.8,0,1.2-0.2,1.2-0.2V367.6z M3.5,375.3c0,2.8,1.9,4.7,5.3,4.7
	c2.4,0,4.3-0.9,5.7-2.4v2c0,0,0.4,0.2,1.2,0.2c0.9,0,1.2-0.2,1.2-0.2v-16c0,0-0.4-0.2-1.2-0.2c-0.8,0-1.2,0.2-1.2,0.2v11.8
	c-1.1,1.8-2.9,2.8-4.7,2.8c-2.5,0-3.7-1.1-3.7-3.2v-11.4c0,0-0.4-0.2-1.2-0.2c-0.8,0-1.2,0.2-1.2,0.2V375.3z M28.7,363
	c-1.4,0-3.2,0.6-4.6,3v-2.5c0,0-0.4-0.2-1.2-0.2c-0.9,0-1.2,0.2-1.2,0.2v16c0,0,0.4,0.2,1.2,0.2c0.9,0,1.2-0.2,1.2-0.2v-11.3
	c1-1.9,2.5-3.1,4.1-3.1c0.9,0,1.6,0.2,2.3,0.6c0.7-0.5,1-1.1,1.1-1.9C31.2,363.5,30.2,363,28.7,363 M45.4,369.6H55
	c0.1-0.2,0.2-0.6,0.2-1c0-0.4-0.1-0.7-0.2-0.9h-9.5v-8.5h10.9c0.1-0.2,0.2-0.5,0.2-1c0-0.4-0.1-0.7-0.2-1H42.9v22.2
	c0,0,0.4,0.2,1.3,0.2c0.9,0,1.3-0.2,1.3-0.2V369.6z M66.2,363c-4.6,0-7.3,2.3-7.3,8.5c0,6.2,2.7,8.5,7.3,8.5c4.6,0,7.3-2.3,7.3-8.5
	C73.5,365.3,70.8,363,66.2,363 M66.2,364.7c2.9,0,4.8,1.5,4.8,6.7c0,5.2-1.8,6.7-4.8,6.7c-2.9,0-4.8-1.5-4.8-6.7
	C61.4,366.3,63.3,364.7,66.2,364.7 M77.5,375.3c0,2.8,1.9,4.7,5.3,4.7c2.4,0,4.3-0.9,5.7-2.4v2c0,0,0.4,0.2,1.2,0.2
	c0.9,0,1.2-0.2,1.2-0.2v-16c0,0-0.4-0.2-1.2-0.2c-0.8,0-1.2,0.2-1.2,0.2v11.8c-1.1,1.8-2.9,2.8-4.7,2.8c-2.5,0-3.7-1.1-3.7-3.2
	v-11.4c0,0-0.4-0.2-1.2-0.2c-0.8,0-1.2,0.2-1.2,0.2V375.3z M109,367.6c0-2.8-1.9-4.7-5.3-4.7c-2.4,0-4.3,0.9-5.7,2.4v-2
	c0,0-0.4-0.2-1.2-0.2c-0.9,0-1.2,0.2-1.2,0.2v16c0,0,0.4,0.2,1.2,0.2c0.8,0,1.2-0.2,1.2-0.2v-11.8c1-1.8,2.9-2.8,4.8-2.8
	c2.5,0,3.7,1.1,3.7,3.2v11.4c0,0,0.4,0.2,1.2,0.2c0.8,0,1.2-0.2,1.2-0.2V367.6z M126.1,356.3c-0.9,0-1.2,0.2-1.2,0.2v8.9
	c-1-1.5-2.7-2.4-5.3-2.4c-4,0-6.5,2.1-6.5,8.5c0,6.3,2.6,8.5,6.5,8.5c2.7,0,4.4-1,5.4-2.5l0.2,2.1c0,0,0.4,0.2,1.1,0.2
	c0.6,0,1-0.2,1-0.2v-23C127.3,356.5,127,356.3,126.1,356.3 M120.4,364.9c2.9,0,4.4,2.3,4.4,4.6v4c0,2.3-1.5,4.6-4.4,4.6
	c-3.3,0-4.8-1.7-4.8-6.6S117.1,364.9,120.4,364.9 M138.1,363c-3.2,0-5.8,1.1-5.8,1.1c0,0.1,0,0.5,0.2,1c0.2,0.4,0.5,0.7,0.6,0.7
	c0,0,2.2-0.8,4.8-0.8c2.8,0,4,1.1,4,3.8v1.7c-0.9-0.1-2.6-0.2-4.5-0.2c-4.3,0-6.4,1.6-6.4,4.8c0,3.3,2.1,5,5.3,5
	c2.7,0,4.8-1,5.7-2.8l0.4,2.3c0,0,0.4,0.2,1,0.2c0.7,0,1-0.2,1-0.2v-10.2C144.3,365.1,143,363,138.1,363 M137.7,371.7
	c1.6,0,3.3,0.2,4.1,0.2v1.2c0,2.8-1.8,4.9-4.8,4.9c-2.1,0-3.5-0.9-3.5-3.2C133.5,372.7,134.9,371.7,137.7,371.7 M152.4,365h4.9
	c0,0,0.2-0.3,0.2-0.9c0-0.6-0.2-0.9-0.2-0.9h-4.9v-3.5c-0.9-0.1-1.8,0.1-2.5,0.5v3h-2.7c0,0-0.2,0.3-0.2,0.9c0,0.6,0.2,0.9,0.2,0.9
	h2.7v9c0,3.8,1.4,5.9,5.4,5.9c1.1,0,2-0.2,2.4-0.2c0,0,0.1-0.3,0.1-0.8c0-0.6-0.2-0.9-0.2-0.9s-0.8,0.2-1.7,0.2
	c-2.7,0-3.6-1.1-3.6-4.1V365z M163.8,357.5c0,0-0.5-0.2-1.4-0.2c-1,0-1.4,0.2-1.4,0.2v2.3c0,0,0.4,0.2,1.4,0.2
	c0.9,0,1.4-0.2,1.4-0.2V357.5z M163.6,363.4c0,0-0.4-0.2-1.2-0.2c-0.9,0-1.2,0.2-1.2,0.2v16c0,0,0.3,0.2,1.2,0.2
	c0.8,0,1.2-0.2,1.2-0.2V363.4z M175,363c-4.6,0-7.3,2.3-7.3,8.5c0,6.2,2.7,8.5,7.3,8.5c4.6,0,7.3-2.3,7.3-8.5
	C182.3,365.3,179.5,363,175,363 M175,364.7c2.9,0,4.8,1.5,4.8,6.7c0,5.2-1.8,6.7-4.8,6.7c-2.9,0-4.8-1.5-4.8-6.7
	C170.2,366.3,172,364.7,175,364.7 M199.7,367.6c0-2.8-1.9-4.7-5.3-4.7c-2.4,0-4.3,0.9-5.7,2.4v-2c0,0-0.4-0.2-1.2-0.2
	c-0.9,0-1.2,0.2-1.2,0.2v16c0,0,0.4,0.2,1.2,0.2c0.8,0,1.2-0.2,1.2-0.2v-11.8c1-1.8,2.9-2.8,4.8-2.8c2.5,0,3.7,1.1,3.7,3.2v11.4
	c0,0,0.4,0.2,1.2,0.2c0.8,0,1.2-0.2,1.2-0.2V367.6z"/>
</svg>
