<svg width="38" height="47" viewBox="0 0 38 47" fill="none" xmlns="http://www.w3.org/2000/svg">
<path d="M21.91 15.13L32.83 5.28997C29.34 2.02 24.66 0 19.5 0C8.73 0 0 8.72997 0 19.5C0 30.27 8.73 39 19.5 39C26.23 39 32.17 35.59 35.67 30.4L21.91 15.13Z" fill="#FFFBF1"/>
<path d="M19.5801 36.3301C28.5547 36.3301 35.8301 29.0547 35.8301 20.0801C35.8301 11.1055 28.5547 3.83008 19.5801 3.83008C10.6054 3.83008 3.33008 11.1055 3.33008 20.0801C3.33008 29.0547 10.6054 36.3301 19.5801 36.3301Z" fill="#40128B"/>
<path d="M18.4 20.0298L27.51 9.67984C25.34 8.05984 22.66 7.08984 19.75 7.08984C12.57 7.08984 6.75 12.9098 6.75 20.0898C6.75 27.2698 12.57 33.0898 19.75 33.0898C23.33 33.0898 26.58 31.6398 28.93 29.2898L18.4 20.0298Z" fill="#FFFBF1"/>
<path d="M24.4001 28.2701C22.9901 29.1001 21.3401 29.5801 19.5801 29.5801C14.3301 29.5801 10.0801 25.3301 10.0801 20.0801C10.0801 14.8301 14.3301 10.5801 19.5801 10.5801C21.8601 10.5801 23.9501 11.3801 25.5801 12.7201" fill="#40128B"/>
<path d="M24.4001 28.2701C22.9901 29.1001 21.3401 29.5801 19.5801 29.5801C14.3301 29.5801 10.0801 25.3301 10.0801 20.0801C10.0801 14.8301 14.3301 10.5801 19.5801 10.5801C21.8601 10.5801 23.9501 11.3801 25.5801 12.7201" stroke="#FFFBF1" stroke-width="0.5" stroke-miterlimit="10"/>
<path d="M25.5799 12.7202C27.7199 14.4602 29.0799 17.1102 29.0799 20.0802C29.0799 23.5702 27.1999 26.6202 24.3999 28.2702" fill="#40128B"/>
<path d="M25.5799 12.7202C27.7199 14.4602 29.0799 17.1102 29.0799 20.0802C29.0799 23.5702 27.1999 26.6202 24.3999 28.2702" stroke="#FFFBF1" stroke-width="0.5" stroke-miterlimit="10"/>
<path d="M19.5801 26.0801C22.8938 26.0801 25.5801 23.3938 25.5801 20.0801C25.5801 16.7664 22.8938 14.0801 19.5801 14.0801C16.2663 14.0801 13.5801 16.7664 13.5801 20.0801C13.5801 23.3938 16.2663 26.0801 19.5801 26.0801Z" fill="#FFFBF1"/>
<path d="M13.5999 19.5H10.6299V46.57H13.5999V19.5Z" fill="#40128B"/>
<path d="M25.02 26.47L28.91 29.72L29.77 24.73L25.02 26.47Z" fill="#FFFBF1" stroke="#FFFBF1" stroke-miterlimit="10"/>
<path d="M32.6101 27.9L36.7701 30.79L37.2001 25.75L32.6101 27.9Z" fill="#FFFBF1" stroke="#FFFBF1" stroke-miterlimit="10"/>
</svg>
